<svg width="24" height="20" viewBox="0 0 24 20" fill="none" xmlns="http://www.w3.org/2000/svg">
<path id="Vector" d="M22.8085 13.6471H22.2298V9.60959C22.2298 9.13525 22.0453 8.67958 21.7198 8.34344L18.1064 4.6122C17.7808 4.27605 17.3396 4.08557 16.8802 4.08557H15.2851V2.29279C15.2851 1.30302 14.5074 0.5 13.5489 0.5H4.28935C3.33084 0.5 2.55318 1.30302 2.55318 2.29279V4.08557H0.527643C0.368494 4.08557 0.238281 4.22003 0.238281 4.38437V4.98196C0.238281 5.1463 0.368494 5.28076 0.527643 5.28076H10.3659C10.5251 5.28076 10.6553 5.41522 10.6553 5.57956V6.17715C10.6553 6.34149 10.5251 6.47595 10.3659 6.47595H1.68509C1.52594 6.47595 1.39573 6.61041 1.39573 6.77475V7.37234C1.39573 7.53668 1.52594 7.67114 1.68509 7.67114H9.2085C9.36765 7.67114 9.49786 7.8056 9.49786 7.96994V8.56754C9.49786 8.73187 9.36765 8.86633 9.2085 8.86633H0.527643C0.368494 8.86633 0.238281 9.00079 0.238281 9.16513V9.76273C0.238281 9.92706 0.368494 10.0615 0.527643 10.0615H8.05105C8.2102 10.0615 8.34041 10.196 8.34041 10.3603V10.9579C8.34041 11.1223 8.2102 11.2567 8.05105 11.2567H2.55318V16.0375C2.55318 18.017 4.1085 19.623 6.02552 19.623C7.94254 19.623 9.49786 18.017 9.49786 16.0375H14.1277C14.1277 18.017 15.683 19.623 17.6 19.623C19.517 19.623 21.0723 18.017 21.0723 16.0375H22.8085C23.1268 16.0375 23.3872 15.7686 23.3872 15.4399V14.2447C23.3872 13.916 23.1268 13.6471 22.8085 13.6471ZM6.02552 17.8303C5.06701 17.8303 4.28935 17.0272 4.28935 16.0375C4.28935 15.0477 5.06701 14.2447 6.02552 14.2447C6.98403 14.2447 7.76169 15.0477 7.76169 16.0375C7.76169 17.0272 6.98403 17.8303 6.02552 17.8303ZM17.6 17.8303C16.6415 17.8303 15.8638 17.0272 15.8638 16.0375C15.8638 15.0477 16.6415 14.2447 17.6 14.2447C18.5585 14.2447 19.3362 15.0477 19.3362 16.0375C19.3362 17.0272 18.5585 17.8303 17.6 17.8303ZM20.4936 10.0615H15.2851V5.87836H16.8802L20.4936 9.60959V10.0615Z" fill="#21316A"/>
</svg>
