<svg width="13" height="12" viewBox="0 0 13 12" fill="none" xmlns="http://www.w3.org/2000/svg">
<path id="Vector" d="M10.3618 1.39062H9.22119V0.820312C9.22119 0.669056 9.16111 0.523995 9.05415 0.417041C8.9472 0.310086 8.80214 0.25 8.65088 0.25C8.49962 0.25 8.35456 0.310086 8.24761 0.417041C8.14065 0.523995 8.08057 0.669056 8.08057 0.820312V1.39062H4.65869V0.820312C4.65869 0.669056 4.5986 0.523995 4.49165 0.417041C4.3847 0.310086 4.23964 0.25 4.08838 0.25C3.93712 0.25 3.79206 0.310086 3.68511 0.417041C3.57815 0.523995 3.51807 0.669056 3.51807 0.820312V1.39062H2.37744C1.92367 1.39062 1.48849 1.57088 1.16763 1.89175C0.846763 2.21261 0.666504 2.64779 0.666504 3.10156V9.94531C0.666504 10.3991 0.846763 10.8343 1.16763 11.1551C1.48849 11.476 1.92367 11.6562 2.37744 11.6562H10.3618C10.8156 11.6562 11.2508 11.476 11.5716 11.1551C11.8925 10.8343 12.0728 10.3991 12.0728 9.94531V3.10156C12.0728 2.64779 11.8925 2.21261 11.5716 1.89175C11.2508 1.57088 10.8156 1.39062 10.3618 1.39062ZM10.9321 9.94531C10.9321 10.0966 10.872 10.2416 10.7651 10.3486C10.6581 10.4555 10.5131 10.5156 10.3618 10.5156H2.37744C2.22619 10.5156 2.08112 10.4555 1.97417 10.3486C1.86722 10.2416 1.80713 10.0966 1.80713 9.94531V5.95312H10.9321V9.94531ZM10.9321 4.8125H1.80713V3.10156C1.80713 2.95031 1.86722 2.80525 1.97417 2.69829C2.08112 2.59134 2.22619 2.53125 2.37744 2.53125H3.51807V3.10156C3.51807 3.25282 3.57815 3.39788 3.68511 3.50483C3.79206 3.61179 3.93712 3.67188 4.08838 3.67188C4.23964 3.67188 4.3847 3.61179 4.49165 3.50483C4.5986 3.39788 4.65869 3.25282 4.65869 3.10156V2.53125H8.08057V3.10156C8.08057 3.25282 8.14065 3.39788 8.24761 3.50483C8.35456 3.61179 8.49962 3.67188 8.65088 3.67188C8.80214 3.67188 8.9472 3.61179 9.05415 3.50483C9.16111 3.39788 9.22119 3.25282 9.22119 3.10156V2.53125H10.3618C10.5131 2.53125 10.6581 2.59134 10.7651 2.69829C10.872 2.80525 10.9321 2.95031 10.9321 3.10156V4.8125Z" fill="#21316A"/>
</svg>
