<svg width="13" height="13" viewBox="0 0 13 13" fill="none" xmlns="http://www.w3.org/2000/svg">
<path id="Vector" fill-rule="evenodd" clip-rule="evenodd" d="M0.621094 6.59619C0.621094 5.00489 1.25323 3.47877 2.37845 2.35355C3.50367 1.22833 5.02979 0.596191 6.62109 0.596191C8.21239 0.596191 9.73852 1.22833 10.8637 2.35355C11.989 3.47877 12.6211 5.00489 12.6211 6.59619C12.6211 8.18749 11.989 9.71361 10.8637 10.8388C9.73852 11.9641 8.21239 12.5962 6.62109 12.5962C5.02979 12.5962 3.50367 11.9641 2.37845 10.8388C1.25323 9.71361 0.621094 8.18749 0.621094 6.59619ZM6.27869 9.16419L9.73309 4.84579L9.10909 4.34659L6.16349 8.02739L4.07709 6.28899L3.56509 6.90339L6.27869 9.16419Z" fill="#2B9606"/>
</svg>
