<svg width="15" height="16" viewBox="0 0 15 16" fill="none" xmlns="http://www.w3.org/2000/svg">
<g id="teenyicons:tick-circle-solid" clip-path="url(#clip0_0_5004)">
<path id="Vector" fill-rule="evenodd" clip-rule="evenodd" d="M0 7.63892C0 5.64979 0.790176 3.74214 2.1967 2.33562C3.60322 0.929092 5.51088 0.138916 7.5 0.138916C9.48912 0.138916 11.3968 0.929092 12.8033 2.33562C14.2098 3.74214 15 5.64979 15 7.63892C15 9.62804 14.2098 11.5357 12.8033 12.9422C11.3968 14.3487 9.48912 15.1389 7.5 15.1389C5.51088 15.1389 3.60322 14.3487 2.1967 12.9422C0.790176 11.5357 0 9.62804 0 7.63892ZM7.072 10.8489L11.39 5.45092L10.61 4.82692L6.928 9.42792L4.32 7.25492L3.68 8.02292L7.072 10.8489Z" fill="#21316A"/>
</g>
<defs>
<clipPath id="clip0_0_5004">
<rect width="15" height="15" fill="white" transform="translate(0 0.138916)"/>
</clipPath>
</defs>
</svg>
