<svg width="15" height="15" viewBox="0 0 15 15" fill="none" xmlns="http://www.w3.org/2000/svg">
<g id="teenyicons:tick-circle-solid" clip-path="url(#clip0_29_9172)">
<path id="Vector" fill-rule="evenodd" clip-rule="evenodd" d="M0.445313 7.0166C0.445313 5.16009 1.18281 3.37961 2.49556 2.06685C3.80832 0.754099 5.5888 0.0166016 7.44531 0.0166016C9.30183 0.0166016 11.0823 0.754099 12.3951 2.06685C13.7078 3.37961 14.4453 5.16009 14.4453 7.0166C14.4453 8.87312 13.7078 10.6536 12.3951 11.9663C11.0823 13.2791 9.30183 14.0166 7.44531 14.0166C5.5888 14.0166 3.80832 13.2791 2.49556 11.9663C1.18281 10.6536 0.445313 8.87312 0.445313 7.0166ZM7.04585 10.0126L11.076 4.97447L10.348 4.39207L6.91145 8.68633L4.47731 6.6582L3.87998 7.375L7.04585 10.0126Z" fill="#73DC78"/>
</g>
<defs>
<clipPath id="clip0_29_9172">
<rect width="14" height="14" fill="white" transform="translate(0.445312 0.0166016)"/>
</clipPath>
</defs>
</svg>
