<svg width="41" height="40" viewBox="0 0 41 40" fill="none" xmlns="http://www.w3.org/2000/svg">
<g id="devicon:google" clip-path="url(#clip0_120_2188)">
<path id="Vector" d="M14.4344 1.44378C10.4378 2.79558 6.99108 5.36135 4.6006 8.7642C2.21012 12.1671 1.00185 16.2277 1.15326 20.3495C1.30467 24.4714 2.80778 28.4373 5.4418 31.6647C8.07583 34.8921 11.7019 37.2109 15.7875 38.2805C19.0998 39.1138 22.57 39.1504 25.9 38.3871C28.9166 37.7265 31.7056 36.3133 33.9938 34.286C36.3753 32.1116 38.1039 29.3455 38.9938 26.285C39.9607 22.9567 40.1328 19.4567 39.4969 16.0535H20.8969V23.5763H31.6688C31.4535 24.7761 30.9921 25.9212 30.3123 26.9432C29.6326 27.9651 28.7483 28.8428 27.7125 29.5238C26.3973 30.3724 24.9145 30.9433 23.3594 31.1996C21.7998 31.4824 20.2002 31.4824 18.6406 31.1996C17.0599 30.8813 15.5645 30.2452 14.25 29.3318C12.138 27.8742 10.5521 25.8033 9.71875 23.4148C8.87153 20.9815 8.87153 18.3436 9.71875 15.9103C10.312 14.2047 11.2926 12.6518 12.5875 11.3674C14.0693 9.87066 15.9454 8.80075 18.0099 8.2751C20.0743 7.74945 22.2474 7.78838 24.2906 8.38761C25.8869 8.86512 27.3465 9.69983 28.5531 10.8251C29.7677 9.64698 30.9802 8.46581 32.1906 7.28159C32.8156 6.64479 33.4969 6.03847 34.1125 5.38643C32.2704 3.71528 30.1083 2.41483 27.75 1.55956C23.4553 0.0391372 18.7562 -0.00172272 14.4344 1.44378Z" fill="white"/>
<path id="Vector_2" d="M14.4352 1.44331C18.7566 -0.00317758 23.4557 0.0366068 27.7508 1.55604C30.1095 2.41712 32.2706 3.72383 34.1102 5.4012C33.4852 6.05323 32.8258 6.6626 32.1883 7.29635C30.9758 8.47651 29.7643 9.6526 28.5539 10.8246C27.3473 9.69936 25.8877 8.86465 24.2914 8.38713C22.2488 7.7858 20.0758 7.74463 18.0108 8.26813C15.9458 8.79163 14.0686 9.85957 12.5852 11.3548C11.2903 12.6392 10.3096 14.1921 9.71641 15.8977L3.23828 11.0074C5.55706 6.52416 9.57187 3.09478 14.4352 1.44331Z" fill="#E33629"/>
<path id="Vector_3" d="M1.5203 15.8523C1.86824 14.1698 2.44632 12.5404 3.23905 11.0078L9.71718 15.9102C8.86996 18.3435 8.86996 20.9814 9.71718 23.4147C7.55885 25.0397 5.39947 26.6728 3.23905 28.3141C1.25515 24.4638 0.650093 20.0768 1.5203 15.8523Z" fill="#F8BD00"/>
<path id="Vector_4" d="M20.8959 16.0508H39.4959C40.1318 19.454 39.9597 22.9539 38.9928 26.2822C38.1029 29.3427 36.3743 32.1089 33.9928 34.2833C31.9022 32.6928 29.8022 31.1145 27.7115 29.5241C28.748 28.8424 29.6327 27.9637 30.3125 26.9407C30.9923 25.9177 31.4533 24.7714 31.6678 23.5705H20.8959C20.8928 21.0659 20.8959 18.5584 20.8959 16.0508Z" fill="#587DBD"/>
<path id="Vector_5" d="M3.23438 28.3134C5.39479 26.6884 7.55417 25.0553 9.7125 23.4141C10.5475 25.8034 12.1356 27.8744 14.25 29.3311C15.5686 30.2402 17.0672 30.8711 18.65 31.1836C20.2095 31.4664 21.8092 31.4664 23.3687 31.1836C24.9238 30.9273 26.4067 30.3565 27.7219 29.5078C29.8125 31.0983 31.9125 32.6766 34.0031 34.267C31.7153 36.2954 28.9263 37.7096 25.9094 38.3712C22.5794 39.1344 19.1091 39.0978 15.7969 38.2645C13.1772 37.5826 10.7302 36.3803 8.60938 34.7332C6.36477 32.9953 4.53136 30.8055 3.23438 28.3134Z" fill="#319F43"/>
</g>
<defs>
<clipPath id="clip0_120_2188">
<rect width="40" height="39" fill="white" transform="translate(0.5 0.160156)"/>
</clipPath>
</defs>
</svg>
