<svg width="940" height="758" viewBox="0 0 940 758" fill="none" xmlns="http://www.w3.org/2000/svg">
<path d="M0.976562 531.101H184.807V640.616H0.976562V531.101Z" fill="url(#paint0_linear_0_3)" fill-opacity="0.3"/>
<mask id="mask0_0_3" style="mask-type:luminance" maskUnits="userSpaceOnUse" x="0" y="531" width="185" height="110">
<path d="M0.976562 531.101H184.807V640.616H0.976562V531.101Z" fill="white"/>
</mask>
<g mask="url(#mask0_0_3)">
<path d="M184.807 630.616H0.976562V650.616H184.807V630.616Z" fill="#CCEBC5"/>
</g>
<path d="M184.805 469.523H373.285V640.616H184.805V469.523Z" fill="url(#paint1_linear_0_3)" fill-opacity="0.3"/>
<mask id="mask1_0_3" style="mask-type:luminance" maskUnits="userSpaceOnUse" x="184" y="469" width="190" height="172">
<path d="M184.805 469.523H373.285V640.616H184.805V469.523Z" fill="white"/>
</mask>
<g mask="url(#mask1_0_3)">
<path d="M373.285 630.616H184.805V650.616H373.285V630.616Z" fill="#F88A8A"/>
</g>
<path d="M373.289 413.883H545.771V640.615H373.289V413.883Z" fill="url(#paint2_linear_0_3)" fill-opacity="0.3"/>
<mask id="mask2_0_3" style="mask-type:luminance" maskUnits="userSpaceOnUse" x="373" y="413" width="173" height="228">
<path d="M373.289 413.883H545.771V640.615H373.289V413.883Z" fill="white"/>
</mask>
<g mask="url(#mask2_0_3)">
<path d="M545.771 630.615H373.289V650.615H545.771V630.615Z" fill="#E4D18B"/>
</g>
<path d="M544.766 351.299H715.947V640.616H544.766V351.299Z" fill="url(#paint3_linear_0_3)" fill-opacity="0.3"/>
<mask id="mask3_0_3" style="mask-type:luminance" maskUnits="userSpaceOnUse" x="544" y="351" width="172" height="290">
<path d="M544.766 351.299H715.947V640.616H544.766V351.299Z" fill="white"/>
</mask>
<g mask="url(#mask3_0_3)">
<path d="M715.947 630.616H544.766V650.616H715.947V630.616Z" fill="#97E2EC"/>
</g>
<path d="M715.949 351.299H939.02V640.616H715.949V351.299Z" fill="url(#paint4_linear_0_3)" fill-opacity="0.3"/>
<mask id="mask4_0_3" style="mask-type:luminance" maskUnits="userSpaceOnUse" x="715" y="351" width="225" height="290">
<path d="M715.949 351.299H939.02V640.616H715.949V351.299Z" fill="white"/>
</mask>
<g mask="url(#mask4_0_3)">
<path d="M939.02 630.616H715.949V650.616H939.02V630.616Z" fill="#36771F"/>
</g>
<path d="M179.729 711.99L189.316 721.578L179.729 731.166M187.985 721.578H168.543" stroke="#21316A" stroke-width="3.19593" stroke-linecap="round" stroke-linejoin="round"/>
<path d="M376.502 711.99L386.09 721.578L376.502 731.166M384.758 721.578H365.316" stroke="#21316A" stroke-width="3.19593" stroke-linecap="round" stroke-linejoin="round"/>
<path d="M547.276 711.99L556.863 721.578L547.276 731.166M555.532 721.578H536.09" stroke="#21316A" stroke-width="3.19593" stroke-linecap="round" stroke-linejoin="round"/>
<path d="M718.049 711.99L727.637 721.578L718.049 731.166M726.305 721.578H706.863" stroke="#21316A" stroke-width="3.19593" stroke-linecap="round" stroke-linejoin="round"/>
<path d="M26.7985 697.114C26.7985 692.962 27.5425 689.71 29.0305 687.358C30.5425 685.006 33.0385 683.83 36.5185 683.83C39.9985 683.83 42.4825 685.006 43.9705 687.358C45.4826 689.71 46.2386 692.962 46.2386 697.114C46.2386 701.29 45.4826 704.566 43.9705 706.942C42.4825 709.318 39.9985 710.506 36.5185 710.506C33.0385 710.506 30.5425 709.318 29.0305 706.942C27.5425 704.566 26.7985 701.29 26.7985 697.114ZM41.2705 697.114C41.2705 695.338 41.1505 693.85 40.9105 692.65C40.6945 691.426 40.2385 690.43 39.5425 689.662C38.8705 688.894 37.8625 688.51 36.5185 688.51C35.1745 688.51 34.1545 688.894 33.4585 689.662C32.7865 690.43 32.3305 691.426 32.0905 692.65C31.8745 693.85 31.7665 695.338 31.7665 697.114C31.7665 698.938 31.8745 700.474 32.0905 701.722C32.3065 702.946 32.7625 703.942 33.4585 704.71C34.1545 705.454 35.1745 705.826 36.5185 705.826C37.8625 705.826 38.8825 705.454 39.5785 704.71C40.2745 703.942 40.7305 702.946 40.9465 701.722C41.1625 700.474 41.2705 698.938 41.2705 697.114ZM52.16 710.83C51.248 710.83 50.492 710.554 49.892 710.002C49.316 709.426 49.028 708.718 49.028 707.878C49.028 707.038 49.316 706.342 49.892 705.79C50.492 705.214 51.248 704.926 52.16 704.926C53.048 704.926 53.78 705.214 54.356 705.79C54.932 706.342 55.22 707.038 55.22 707.878C55.22 708.718 54.932 709.426 54.356 710.002C53.78 710.554 53.048 710.83 52.16 710.83ZM59.5675 704.89C61.8715 702.97 63.7075 701.374 65.0755 700.102C66.4435 698.806 67.5835 697.462 68.4955 696.07C69.4075 694.678 69.8635 693.31 69.8635 691.966C69.8635 690.742 69.5755 689.782 68.9995 689.086C68.4235 688.39 67.5355 688.042 66.3355 688.042C65.1355 688.042 64.2115 688.45 63.5635 689.266C62.9155 690.058 62.5795 691.15 62.5555 692.542H57.6595C57.7555 689.662 58.6075 687.478 60.2155 685.99C61.8475 684.502 63.9115 683.758 66.4075 683.758C69.1435 683.758 71.2435 684.49 72.7075 685.954C74.1715 687.394 74.9035 689.302 74.9035 691.678C74.9035 693.55 74.3995 695.338 73.3915 697.042C72.3835 698.746 71.2315 700.234 69.9355 701.506C68.6395 702.754 66.9475 704.266 64.8595 706.042H75.4795V710.218H57.6955V706.474L59.5675 704.89ZM95.5754 688.69H83.9114V694.846C84.4154 694.222 85.1354 693.718 86.0714 693.334C87.0074 692.926 88.0034 692.722 89.0594 692.722C90.9794 692.722 92.5514 693.142 93.7754 693.982C94.9994 694.822 95.8874 695.902 96.4394 697.222C96.9914 698.518 97.2674 699.91 97.2674 701.398C97.2674 704.158 96.4754 706.378 94.8914 708.058C93.3314 709.738 91.0994 710.578 88.1954 710.578C85.4594 710.578 83.2754 709.894 81.6434 708.526C80.0114 707.158 79.0874 705.37 78.8714 703.162H83.7674C83.9834 704.122 84.4634 704.89 85.2074 705.466C85.9754 706.042 86.9474 706.33 88.1234 706.33C89.5394 706.33 90.6074 705.886 91.3274 704.998C92.0474 704.11 92.4074 702.934 92.4074 701.47C92.4074 699.982 92.0354 698.854 91.2914 698.086C90.5714 697.294 89.5034 696.898 88.0874 696.898C87.0794 696.898 86.2394 697.15 85.5674 697.654C84.8954 698.158 84.4154 698.83 84.1274 699.67H79.3034V684.262H95.5754V688.69Z" fill="#21316A"/>
<path d="M118.263 699.418C119.116 699.418 119.876 699.598 120.543 699.958C121.21 700.305 121.736 700.831 122.123 701.538C122.51 702.245 122.703 703.105 122.703 704.118V710.578H120.903V704.378C120.903 703.285 120.63 702.451 120.083 701.878C119.55 701.291 118.823 700.998 117.903 700.998C116.956 700.998 116.203 701.305 115.643 701.918C115.083 702.518 114.803 703.391 114.803 704.538V710.578H113.003V704.378C113.003 703.285 112.73 702.451 112.183 701.878C111.65 701.291 110.923 700.998 110.003 700.998C109.056 700.998 108.303 701.305 107.743 701.918C107.183 702.518 106.903 703.391 106.903 704.538V710.578H105.083V699.618H106.903V701.198C107.263 700.625 107.743 700.185 108.343 699.878C108.956 699.571 109.63 699.418 110.363 699.418C111.283 699.418 112.096 699.625 112.803 700.038C113.51 700.451 114.036 701.058 114.383 701.858C114.69 701.085 115.196 700.485 115.903 700.058C116.61 699.631 117.396 699.418 118.263 699.418ZM130.208 699.438C131.155 699.438 131.982 699.645 132.688 700.058C133.408 700.471 133.942 700.991 134.288 701.618V699.618H136.128V710.818C136.128 711.818 135.915 712.705 135.488 713.478C135.062 714.265 134.448 714.878 133.648 715.318C132.862 715.758 131.942 715.978 130.888 715.978C129.448 715.978 128.248 715.638 127.288 714.958C126.328 714.278 125.762 713.351 125.588 712.178H127.388C127.588 712.845 128.002 713.378 128.628 713.778C129.255 714.191 130.008 714.398 130.888 714.398C131.888 714.398 132.702 714.085 133.328 713.458C133.968 712.831 134.288 711.951 134.288 710.818V708.518C133.928 709.158 133.395 709.691 132.688 710.118C131.982 710.545 131.155 710.758 130.208 710.758C129.235 710.758 128.348 710.518 127.548 710.038C126.762 709.558 126.142 708.885 125.688 708.018C125.235 707.151 125.008 706.165 125.008 705.058C125.008 703.938 125.235 702.958 125.688 702.118C126.142 701.265 126.762 700.605 127.548 700.138C128.348 699.671 129.235 699.438 130.208 699.438ZM134.288 705.078C134.288 704.251 134.122 703.531 133.788 702.918C133.455 702.305 133.002 701.838 132.428 701.518C131.868 701.185 131.248 701.018 130.568 701.018C129.888 701.018 129.268 701.178 128.708 701.498C128.148 701.818 127.702 702.285 127.368 702.898C127.035 703.511 126.868 704.231 126.868 705.058C126.868 705.898 127.035 706.631 127.368 707.258C127.702 707.871 128.148 708.345 128.708 708.678C129.268 708.998 129.888 709.158 130.568 709.158C131.248 709.158 131.868 708.998 132.428 708.678C133.002 708.345 133.455 707.871 133.788 707.258C134.122 706.631 134.288 705.905 134.288 705.078Z" fill="#475467"/>
<path d="M41.5305 730.01H39.6905V737.578H38.2345V730.01H37.0985V728.81H38.2345V728.186C38.2345 727.205 38.4851 726.49 38.9865 726.042C39.4985 725.583 40.3145 725.354 41.4345 725.354V726.57C40.7945 726.57 40.3411 726.698 40.0745 726.954C39.8185 727.199 39.6905 727.61 39.6905 728.186V728.81H41.5305V730.01ZM47.0521 737.722C46.2308 737.722 45.4841 737.535 44.8121 737.162C44.1508 736.789 43.6281 736.261 43.2441 735.578C42.8708 734.885 42.6841 734.085 42.6841 733.178C42.6841 732.282 42.8761 731.493 43.2601 730.81C43.6548 730.117 44.1881 729.589 44.8601 729.226C45.5321 728.853 46.2841 728.666 47.1161 728.666C47.9481 728.666 48.7001 728.853 49.3721 729.226C50.0441 729.589 50.5721 730.111 50.9561 730.794C51.3508 731.477 51.5481 732.271 51.5481 733.178C51.5481 734.085 51.3454 734.885 50.9401 735.578C50.5454 736.261 50.0068 736.789 49.3241 737.162C48.6414 737.535 47.8841 737.722 47.0521 737.722ZM47.0521 736.442C47.5748 736.442 48.0654 736.319 48.5241 736.074C48.9828 735.829 49.3508 735.461 49.6281 734.97C49.9161 734.479 50.0601 733.882 50.0601 733.178C50.0601 732.474 49.9214 731.877 49.6441 731.386C49.3668 730.895 49.0041 730.533 48.5561 730.298C48.1081 730.053 47.6228 729.93 47.1001 729.93C46.5668 729.93 46.0761 730.053 45.6281 730.298C45.1908 730.533 44.8388 730.895 44.5721 731.386C44.3054 731.877 44.1721 732.474 44.1721 733.178C44.1721 733.893 44.3001 734.495 44.5561 734.986C44.8228 735.477 45.1748 735.845 45.6121 736.09C46.0494 736.325 46.5294 736.442 47.0521 736.442ZM54.9185 730.234C55.1745 729.733 55.5371 729.343 56.0065 729.066C56.4865 728.789 57.0678 728.65 57.7505 728.65V730.154H57.3665C55.7345 730.154 54.9185 731.039 54.9185 732.81V737.578H53.4625V728.81H54.9185V730.234ZM63.1048 735.002V733.898L68.7208 726.122H70.4648V733.738H72.0648V735.002H70.4648V737.578H69.0248V735.002H63.1048ZM69.0888 727.642L64.7848 733.738H69.0888V727.642ZM89.705 728.81L86.969 737.578H85.465L83.353 730.618L81.241 737.578H79.737L76.985 728.81H78.473L80.489 736.17L82.665 728.81H84.153L86.281 736.186L88.265 728.81H89.705ZM99.15 732.858C99.15 733.135 99.134 733.429 99.102 733.738H92.094C92.1473 734.602 92.4406 735.279 92.974 735.77C93.518 736.25 94.174 736.49 94.942 736.49C95.5713 736.49 96.094 736.346 96.51 736.058C96.9366 735.759 97.2353 735.365 97.406 734.874H98.974C98.7393 735.717 98.27 736.405 97.566 736.938C96.862 737.461 95.9873 737.722 94.942 737.722C94.11 737.722 93.3633 737.535 92.702 737.162C92.0513 736.789 91.5393 736.261 91.166 735.578C90.7926 734.885 90.606 734.085 90.606 733.178C90.606 732.271 90.7873 731.477 91.15 730.794C91.5126 730.111 92.0193 729.589 92.67 729.226C93.3313 728.853 94.0886 728.666 94.942 728.666C95.774 728.666 96.51 728.847 97.15 729.21C97.79 729.573 98.2806 730.074 98.622 730.714C98.974 731.343 99.15 732.058 99.15 732.858ZM97.646 732.554C97.646 731.999 97.5233 731.525 97.278 731.13C97.0326 730.725 96.6966 730.421 96.27 730.218C95.854 730.005 95.39 729.898 94.878 729.898C94.142 729.898 93.5126 730.133 92.99 730.602C92.478 731.071 92.1846 731.722 92.11 732.554H97.646ZM109.072 732.858C109.072 733.135 109.056 733.429 109.024 733.738H102.016C102.069 734.602 102.363 735.279 102.896 735.77C103.44 736.25 104.096 736.49 104.864 736.49C105.493 736.49 106.016 736.346 106.432 736.058C106.859 735.759 107.157 735.365 107.328 734.874H108.896C108.661 735.717 108.192 736.405 107.488 736.938C106.784 737.461 105.909 737.722 104.864 737.722C104.032 737.722 103.285 737.535 102.624 737.162C101.973 736.789 101.461 736.261 101.088 735.578C100.715 734.885 100.528 734.085 100.528 733.178C100.528 732.271 100.709 731.477 101.072 730.794C101.435 730.111 101.941 729.589 102.592 729.226C103.253 728.853 104.011 728.666 104.864 728.666C105.696 728.666 106.432 728.847 107.072 729.21C107.712 729.573 108.203 730.074 108.544 730.714C108.896 731.343 109.072 732.058 109.072 732.858ZM107.568 732.554C107.568 731.999 107.445 731.525 107.2 731.13C106.955 730.725 106.619 730.421 106.192 730.218C105.776 730.005 105.312 729.898 104.8 729.898C104.064 729.898 103.435 730.133 102.912 730.602C102.4 731.071 102.107 731.722 102.032 732.554H107.568ZM115.89 737.578L112.45 733.706V737.578H110.994V725.738H112.45V732.698L115.826 728.81H117.858L113.73 733.178L117.874 737.578H115.89ZM122.332 737.722C121.66 737.722 121.057 737.61 120.524 737.386C119.991 737.151 119.569 736.831 119.26 736.426C118.951 736.01 118.78 735.535 118.748 735.002H120.252C120.295 735.439 120.497 735.797 120.86 736.074C121.233 736.351 121.719 736.49 122.316 736.49C122.871 736.49 123.308 736.367 123.628 736.122C123.948 735.877 124.108 735.567 124.108 735.194C124.108 734.81 123.937 734.527 123.596 734.346C123.255 734.154 122.727 733.967 122.012 733.786C121.361 733.615 120.828 733.445 120.412 733.274C120.007 733.093 119.655 732.831 119.356 732.49C119.068 732.138 118.924 731.679 118.924 731.114C118.924 730.666 119.057 730.255 119.324 729.882C119.591 729.509 119.969 729.215 120.46 729.002C120.951 728.778 121.511 728.666 122.14 728.666C123.111 728.666 123.895 728.911 124.492 729.402C125.089 729.893 125.409 730.565 125.452 731.418H123.996C123.964 730.959 123.777 730.591 123.436 730.314C123.105 730.037 122.657 729.898 122.092 729.898C121.569 729.898 121.153 730.01 120.844 730.234C120.535 730.458 120.38 730.751 120.38 731.114C120.38 731.402 120.471 731.642 120.652 731.834C120.844 732.015 121.079 732.165 121.356 732.282C121.644 732.389 122.039 732.511 122.54 732.65C123.169 732.821 123.681 732.991 124.076 733.162C124.471 733.322 124.807 733.567 125.084 733.898C125.372 734.229 125.521 734.661 125.532 735.194C125.532 735.674 125.399 736.106 125.132 736.49C124.865 736.874 124.487 737.178 123.996 737.402C123.516 737.615 122.961 737.722 122.332 737.722Z" fill="#475467"/>
<path d="M221.271 697.114C221.271 692.962 222.015 689.71 223.503 687.358C225.015 685.006 227.511 683.83 230.991 683.83C234.471 683.83 236.955 685.006 238.443 687.358C239.955 689.71 240.711 692.962 240.711 697.114C240.711 701.29 239.955 704.566 238.443 706.942C236.955 709.318 234.471 710.506 230.991 710.506C227.511 710.506 225.015 709.318 223.503 706.942C222.015 704.566 221.271 701.29 221.271 697.114ZM235.743 697.114C235.743 695.338 235.623 693.85 235.383 692.65C235.167 691.426 234.711 690.43 234.015 689.662C233.343 688.894 232.335 688.51 230.991 688.51C229.647 688.51 228.627 688.894 227.931 689.662C227.259 690.43 226.803 691.426 226.563 692.65C226.347 693.85 226.239 695.338 226.239 697.114C226.239 698.938 226.347 700.474 226.563 701.722C226.779 702.946 227.235 703.942 227.931 704.71C228.627 705.454 229.647 705.826 230.991 705.826C232.335 705.826 233.355 705.454 234.051 704.71C234.747 703.942 235.203 702.946 235.419 701.722C235.635 700.474 235.743 698.938 235.743 697.114ZM246.633 710.83C245.721 710.83 244.965 710.554 244.365 710.002C243.789 709.426 243.501 708.718 243.501 707.878C243.501 707.038 243.789 706.342 244.365 705.79C244.965 705.214 245.721 704.926 246.633 704.926C247.521 704.926 248.253 705.214 248.829 705.79C249.405 706.342 249.693 707.038 249.693 707.878C249.693 708.718 249.405 709.426 248.829 710.002C248.253 710.554 247.521 710.83 246.633 710.83ZM270.096 688.69H258.432V694.846C258.936 694.222 259.656 693.718 260.592 693.334C261.528 692.926 262.524 692.722 263.58 692.722C265.5 692.722 267.072 693.142 268.296 693.982C269.52 694.822 270.408 695.902 270.96 697.222C271.512 698.518 271.788 699.91 271.788 701.398C271.788 704.158 270.996 706.378 269.412 708.058C267.852 709.738 265.62 710.578 262.716 710.578C259.98 710.578 257.796 709.894 256.164 708.526C254.532 707.158 253.608 705.37 253.392 703.162H258.288C258.504 704.122 258.984 704.89 259.728 705.466C260.496 706.042 261.468 706.33 262.644 706.33C264.06 706.33 265.128 705.886 265.848 704.998C266.568 704.11 266.928 702.934 266.928 701.47C266.928 699.982 266.556 698.854 265.812 698.086C265.092 697.294 264.024 696.898 262.608 696.898C261.6 696.898 260.76 697.15 260.088 697.654C259.416 698.158 258.936 698.83 258.648 699.67H253.824V684.262H270.096V688.69ZM274.904 697.114C274.904 692.962 275.648 689.71 277.136 687.358C278.648 685.006 281.144 683.83 284.624 683.83C288.104 683.83 290.588 685.006 292.076 687.358C293.588 689.71 294.344 692.962 294.344 697.114C294.344 701.29 293.588 704.566 292.076 706.942C290.588 709.318 288.104 710.506 284.624 710.506C281.144 710.506 278.648 709.318 277.136 706.942C275.648 704.566 274.904 701.29 274.904 697.114ZM289.376 697.114C289.376 695.338 289.256 693.85 289.016 692.65C288.8 691.426 288.344 690.43 287.648 689.662C286.976 688.894 285.968 688.51 284.624 688.51C283.28 688.51 282.26 688.894 281.564 689.662C280.892 690.43 280.436 691.426 280.196 692.65C279.98 693.85 279.872 695.338 279.872 697.114C279.872 698.938 279.98 700.474 280.196 701.722C280.412 702.946 280.868 703.942 281.564 704.71C282.26 705.454 283.28 705.826 284.624 705.826C285.968 705.826 286.988 705.454 287.684 704.71C288.38 703.942 288.836 702.946 289.052 701.722C289.268 700.474 289.376 698.938 289.376 697.114Z" fill="#21316A"/>
<path d="M315.036 699.418C315.89 699.418 316.65 699.598 317.316 699.958C317.983 700.305 318.51 700.831 318.896 701.538C319.283 702.245 319.476 703.105 319.476 704.118V710.578H317.676V704.378C317.676 703.285 317.403 702.451 316.856 701.878C316.323 701.291 315.596 700.998 314.676 700.998C313.73 700.998 312.976 701.305 312.416 701.918C311.856 702.518 311.576 703.391 311.576 704.538V710.578H309.776V704.378C309.776 703.285 309.503 702.451 308.956 701.878C308.423 701.291 307.696 700.998 306.776 700.998C305.83 700.998 305.076 701.305 304.516 701.918C303.956 702.518 303.676 703.391 303.676 704.538V710.578H301.856V699.618H303.676V701.198C304.036 700.625 304.516 700.185 305.116 699.878C305.73 699.571 306.403 699.418 307.136 699.418C308.056 699.418 308.87 699.625 309.576 700.038C310.283 700.451 310.81 701.058 311.156 701.858C311.463 701.085 311.97 700.485 312.676 700.058C313.383 699.631 314.17 699.418 315.036 699.418ZM326.982 699.438C327.929 699.438 328.755 699.645 329.462 700.058C330.182 700.471 330.715 700.991 331.062 701.618V699.618H332.902V710.818C332.902 711.818 332.689 712.705 332.262 713.478C331.835 714.265 331.222 714.878 330.422 715.318C329.635 715.758 328.715 715.978 327.662 715.978C326.222 715.978 325.022 715.638 324.062 714.958C323.102 714.278 322.535 713.351 322.362 712.178H324.162C324.362 712.845 324.775 713.378 325.402 713.778C326.029 714.191 326.782 714.398 327.662 714.398C328.662 714.398 329.475 714.085 330.102 713.458C330.742 712.831 331.062 711.951 331.062 710.818V708.518C330.702 709.158 330.169 709.691 329.462 710.118C328.755 710.545 327.929 710.758 326.982 710.758C326.009 710.758 325.122 710.518 324.322 710.038C323.535 709.558 322.915 708.885 322.462 708.018C322.009 707.151 321.782 706.165 321.782 705.058C321.782 703.938 322.009 702.958 322.462 702.118C322.915 701.265 323.535 700.605 324.322 700.138C325.122 699.671 326.009 699.438 326.982 699.438ZM331.062 705.078C331.062 704.251 330.895 703.531 330.562 702.918C330.229 702.305 329.775 701.838 329.202 701.518C328.642 701.185 328.022 701.018 327.342 701.018C326.662 701.018 326.042 701.178 325.482 701.498C324.922 701.818 324.475 702.285 324.142 702.898C323.809 703.511 323.642 704.231 323.642 705.058C323.642 705.898 323.809 706.631 324.142 707.258C324.475 707.871 324.922 708.345 325.482 708.678C326.042 708.998 326.662 709.158 327.342 709.158C328.022 709.158 328.642 708.998 329.202 708.678C329.775 708.345 330.229 707.871 330.562 707.258C330.895 706.631 331.062 705.905 331.062 705.078Z" fill="#475467"/>
<path d="M237.304 730.01H235.464V737.578H234.008V730.01H232.872V728.81H234.008V728.186C234.008 727.205 234.259 726.49 234.76 726.042C235.272 725.583 236.088 725.354 237.208 725.354V726.57C236.568 726.57 236.115 726.698 235.848 726.954C235.592 727.199 235.464 727.61 235.464 728.186V728.81H237.304V730.01ZM242.826 737.722C242.004 737.722 241.258 737.535 240.586 737.162C239.924 736.789 239.402 736.261 239.018 735.578C238.644 734.885 238.458 734.085 238.458 733.178C238.458 732.282 238.65 731.493 239.034 730.81C239.428 730.117 239.962 729.589 240.634 729.226C241.306 728.853 242.058 728.666 242.89 728.666C243.722 728.666 244.474 728.853 245.146 729.226C245.818 729.589 246.346 730.111 246.73 730.794C247.124 731.477 247.322 732.271 247.322 733.178C247.322 734.085 247.119 734.885 246.714 735.578C246.319 736.261 245.78 736.789 245.098 737.162C244.415 737.535 243.658 737.722 242.826 737.722ZM242.826 736.442C243.348 736.442 243.839 736.319 244.298 736.074C244.756 735.829 245.124 735.461 245.402 734.97C245.69 734.479 245.834 733.882 245.834 733.178C245.834 732.474 245.695 731.877 245.418 731.386C245.14 730.895 244.778 730.533 244.33 730.298C243.882 730.053 243.396 729.93 242.874 729.93C242.34 729.93 241.85 730.053 241.402 730.298C240.964 730.533 240.612 730.895 240.346 731.386C240.079 731.877 239.946 732.474 239.946 733.178C239.946 733.893 240.074 734.495 240.33 734.986C240.596 735.477 240.948 735.845 241.386 736.09C241.823 736.325 242.303 736.442 242.826 736.442ZM250.692 730.234C250.948 729.733 251.311 729.343 251.78 729.066C252.26 728.789 252.841 728.65 253.524 728.65V730.154H253.14C251.508 730.154 250.692 731.039 250.692 732.81V737.578H249.236V728.81H250.692V730.234ZM258.878 735.002V733.898L264.494 726.122H266.238V733.738H267.838V735.002H266.238V737.578H264.798V735.002H258.878ZM264.862 727.642L260.558 733.738H264.862V727.642ZM285.478 728.81L282.742 737.578H281.238L279.126 730.618L277.014 737.578H275.51L272.758 728.81H274.246L276.262 736.17L278.438 728.81H279.926L282.054 736.186L284.038 728.81H285.478ZM294.923 732.858C294.923 733.135 294.907 733.429 294.875 733.738H287.867C287.921 734.602 288.214 735.279 288.747 735.77C289.291 736.25 289.947 736.49 290.715 736.49C291.345 736.49 291.867 736.346 292.283 736.058C292.71 735.759 293.009 735.365 293.179 734.874H294.747C294.513 735.717 294.043 736.405 293.339 736.938C292.635 737.461 291.761 737.722 290.715 737.722C289.883 737.722 289.137 737.535 288.475 737.162C287.825 736.789 287.313 736.261 286.939 735.578C286.566 734.885 286.379 734.085 286.379 733.178C286.379 732.271 286.561 731.477 286.923 730.794C287.286 730.111 287.793 729.589 288.443 729.226C289.105 728.853 289.862 728.666 290.715 728.666C291.547 728.666 292.283 728.847 292.923 729.21C293.563 729.573 294.054 730.074 294.395 730.714C294.747 731.343 294.923 732.058 294.923 732.858ZM293.419 732.554C293.419 731.999 293.297 731.525 293.051 731.13C292.806 730.725 292.47 730.421 292.043 730.218C291.627 730.005 291.163 729.898 290.651 729.898C289.915 729.898 289.286 730.133 288.763 730.602C288.251 731.071 287.958 731.722 287.883 732.554H293.419ZM304.845 732.858C304.845 733.135 304.829 733.429 304.797 733.738H297.789C297.843 734.602 298.136 735.279 298.669 735.77C299.213 736.25 299.869 736.49 300.637 736.49C301.267 736.49 301.789 736.346 302.205 736.058C302.632 735.759 302.931 735.365 303.101 734.874H304.669C304.435 735.717 303.965 736.405 303.261 736.938C302.557 737.461 301.683 737.722 300.637 737.722C299.805 737.722 299.059 737.535 298.397 737.162C297.747 736.789 297.235 736.261 296.861 735.578C296.488 734.885 296.301 734.085 296.301 733.178C296.301 732.271 296.483 731.477 296.845 730.794C297.208 730.111 297.715 729.589 298.365 729.226C299.027 728.853 299.784 728.666 300.637 728.666C301.469 728.666 302.205 728.847 302.845 729.21C303.485 729.573 303.976 730.074 304.317 730.714C304.669 731.343 304.845 732.058 304.845 732.858ZM303.341 732.554C303.341 731.999 303.219 731.525 302.973 731.13C302.728 730.725 302.392 730.421 301.965 730.218C301.549 730.005 301.085 729.898 300.573 729.898C299.837 729.898 299.208 730.133 298.685 730.602C298.173 731.071 297.88 731.722 297.805 732.554H303.341ZM311.663 737.578L308.223 733.706V737.578H306.767V725.738H308.223V732.698L311.599 728.81H313.631L309.503 733.178L313.647 737.578H311.663ZM318.106 737.722C317.434 737.722 316.831 737.61 316.298 737.386C315.764 737.151 315.343 736.831 315.034 736.426C314.724 736.01 314.554 735.535 314.522 735.002H316.026C316.068 735.439 316.271 735.797 316.634 736.074C317.007 736.351 317.492 736.49 318.09 736.49C318.644 736.49 319.082 736.367 319.402 736.122C319.722 735.877 319.882 735.567 319.882 735.194C319.882 734.81 319.711 734.527 319.37 734.346C319.028 734.154 318.5 733.967 317.786 733.786C317.135 733.615 316.602 733.445 316.186 733.274C315.78 733.093 315.428 732.831 315.13 732.49C314.842 732.138 314.698 731.679 314.698 731.114C314.698 730.666 314.831 730.255 315.098 729.882C315.364 729.509 315.743 729.215 316.234 729.002C316.724 728.778 317.284 728.666 317.914 728.666C318.884 728.666 319.668 728.911 320.266 729.402C320.863 729.893 321.183 730.565 321.226 731.418H319.77C319.738 730.959 319.551 730.591 319.21 730.314C318.879 730.037 318.431 729.898 317.866 729.898C317.343 729.898 316.927 730.01 316.618 730.234C316.308 730.458 316.154 730.751 316.154 731.114C316.154 731.402 316.244 731.642 316.426 731.834C316.618 732.015 316.852 732.165 317.13 732.282C317.418 732.389 317.812 732.511 318.314 732.65C318.943 732.821 319.455 732.991 319.85 733.162C320.244 733.322 320.58 733.567 320.858 733.898C321.146 734.229 321.295 734.661 321.306 735.194C321.306 735.674 321.172 736.106 320.906 736.49C320.639 736.874 320.26 737.178 319.77 737.402C319.29 737.615 318.735 737.722 318.106 737.722Z" fill="#475467"/>
<path d="M436.364 688.978V684.334H445.04V710.578H439.856V688.978H436.364Z" fill="#21316A"/>
<path d="M467.31 699.418C468.163 699.418 468.923 699.598 469.59 699.958C470.257 700.305 470.783 700.831 471.17 701.538C471.557 702.245 471.75 703.105 471.75 704.118V710.578H469.95V704.378C469.95 703.285 469.677 702.451 469.13 701.878C468.597 701.291 467.87 700.998 466.95 700.998C466.003 700.998 465.25 701.305 464.69 701.918C464.13 702.518 463.85 703.391 463.85 704.538V710.578H462.05V704.378C462.05 703.285 461.777 702.451 461.23 701.878C460.697 701.291 459.97 700.998 459.05 700.998C458.103 700.998 457.35 701.305 456.79 701.918C456.23 702.518 455.95 703.391 455.95 704.538V710.578H454.13V699.618H455.95V701.198C456.31 700.625 456.79 700.185 457.39 699.878C458.003 699.571 458.677 699.418 459.41 699.418C460.33 699.418 461.143 699.625 461.85 700.038C462.557 700.451 463.083 701.058 463.43 701.858C463.737 701.085 464.243 700.485 464.95 700.058C465.657 699.631 466.443 699.418 467.31 699.418ZM479.255 699.438C480.202 699.438 481.029 699.645 481.735 700.058C482.455 700.471 482.989 700.991 483.335 701.618V699.618H485.175V710.818C485.175 711.818 484.962 712.705 484.535 713.478C484.109 714.265 483.495 714.878 482.695 715.318C481.909 715.758 480.989 715.978 479.935 715.978C478.495 715.978 477.295 715.638 476.335 714.958C475.375 714.278 474.809 713.351 474.635 712.178H476.435C476.635 712.845 477.049 713.378 477.675 713.778C478.302 714.191 479.055 714.398 479.935 714.398C480.935 714.398 481.749 714.085 482.375 713.458C483.015 712.831 483.335 711.951 483.335 710.818V708.518C482.975 709.158 482.442 709.691 481.735 710.118C481.029 710.545 480.202 710.758 479.255 710.758C478.282 710.758 477.395 710.518 476.595 710.038C475.809 709.558 475.189 708.885 474.735 708.018C474.282 707.151 474.055 706.165 474.055 705.058C474.055 703.938 474.282 702.958 474.735 702.118C475.189 701.265 475.809 700.605 476.595 700.138C477.395 699.671 478.282 699.438 479.255 699.438ZM483.335 705.078C483.335 704.251 483.169 703.531 482.835 702.918C482.502 702.305 482.049 701.838 481.475 701.518C480.915 701.185 480.295 701.018 479.615 701.018C478.935 701.018 478.315 701.178 477.755 701.498C477.195 701.818 476.749 702.285 476.415 702.898C476.082 703.511 475.915 704.231 475.915 705.058C475.915 705.898 476.082 706.631 476.415 707.258C476.749 707.871 477.195 708.345 477.755 708.678C478.315 708.998 478.935 709.158 479.615 709.158C480.295 709.158 480.915 708.998 481.475 708.678C482.049 708.345 482.502 707.871 482.835 707.258C483.169 706.631 483.335 705.905 483.335 705.078Z" fill="#475467"/>
<path d="M421.077 730.01H419.237V737.578H417.781V730.01H416.645V728.81H417.781V728.186C417.781 727.205 418.032 726.49 418.533 726.042C419.045 725.583 419.861 725.354 420.981 725.354V726.57C420.341 726.57 419.888 726.698 419.621 726.954C419.365 727.199 419.237 727.61 419.237 728.186V728.81H421.077V730.01ZM426.599 737.722C425.778 737.722 425.031 737.535 424.359 737.162C423.698 736.789 423.175 736.261 422.791 735.578C422.418 734.885 422.231 734.085 422.231 733.178C422.231 732.282 422.423 731.493 422.807 730.81C423.202 730.117 423.735 729.589 424.407 729.226C425.079 728.853 425.831 728.666 426.663 728.666C427.495 728.666 428.247 728.853 428.919 729.226C429.591 729.589 430.119 730.111 430.503 730.794C430.898 731.477 431.095 732.271 431.095 733.178C431.095 734.085 430.892 734.885 430.487 735.578C430.092 736.261 429.554 736.789 428.871 737.162C428.188 737.535 427.431 737.722 426.599 737.722ZM426.599 736.442C427.122 736.442 427.612 736.319 428.071 736.074C428.53 735.829 428.898 735.461 429.175 734.97C429.463 734.479 429.607 733.882 429.607 733.178C429.607 732.474 429.468 731.877 429.191 731.386C428.914 730.895 428.551 730.533 428.103 730.298C427.655 730.053 427.17 729.93 426.647 729.93C426.114 729.93 425.623 730.053 425.175 730.298C424.738 730.533 424.386 730.895 424.119 731.386C423.852 731.877 423.719 732.474 423.719 733.178C423.719 733.893 423.847 734.495 424.103 734.986C424.37 735.477 424.722 735.845 425.159 736.09C425.596 736.325 426.076 736.442 426.599 736.442ZM434.465 730.234C434.721 729.733 435.084 729.343 435.553 729.066C436.033 728.789 436.615 728.65 437.297 728.65V730.154H436.913C435.281 730.154 434.465 731.039 434.465 732.81V737.578H433.009V728.81H434.465V730.234ZM442.652 735.002V733.898L448.268 726.122H450.012V733.738H451.612V735.002H450.012V737.578H448.572V735.002H442.652ZM448.636 727.642L444.332 733.738H448.636V727.642ZM469.252 728.81L466.516 737.578H465.012L462.9 730.618L460.788 737.578H459.284L456.532 728.81H458.02L460.036 736.17L462.212 728.81H463.7L465.828 736.186L467.812 728.81H469.252ZM478.697 732.858C478.697 733.135 478.681 733.429 478.649 733.738H471.641C471.694 734.602 471.988 735.279 472.521 735.77C473.065 736.25 473.721 736.49 474.489 736.49C475.118 736.49 475.641 736.346 476.057 736.058C476.484 735.759 476.782 735.365 476.953 734.874H478.521C478.286 735.717 477.817 736.405 477.113 736.938C476.409 737.461 475.534 737.722 474.489 737.722C473.657 737.722 472.91 737.535 472.249 737.162C471.598 736.789 471.086 736.261 470.713 735.578C470.34 734.885 470.153 734.085 470.153 733.178C470.153 732.271 470.334 731.477 470.697 730.794C471.06 730.111 471.566 729.589 472.217 729.226C472.878 728.853 473.636 728.666 474.489 728.666C475.321 728.666 476.057 728.847 476.697 729.21C477.337 729.573 477.828 730.074 478.169 730.714C478.521 731.343 478.697 732.058 478.697 732.858ZM477.193 732.554C477.193 731.999 477.07 731.525 476.825 731.13C476.58 730.725 476.244 730.421 475.817 730.218C475.401 730.005 474.937 729.898 474.425 729.898C473.689 729.898 473.06 730.133 472.537 730.602C472.025 731.071 471.732 731.722 471.657 732.554H477.193ZM488.619 732.858C488.619 733.135 488.603 733.429 488.571 733.738H481.563C481.616 734.602 481.909 735.279 482.443 735.77C482.987 736.25 483.643 736.49 484.411 736.49C485.04 736.49 485.563 736.346 485.979 736.058C486.405 735.759 486.704 735.365 486.875 734.874H488.443C488.208 735.717 487.739 736.405 487.035 736.938C486.331 737.461 485.456 737.722 484.411 737.722C483.579 737.722 482.832 737.535 482.171 737.162C481.52 736.789 481.008 736.261 480.635 735.578C480.261 734.885 480.075 734.085 480.075 733.178C480.075 732.271 480.256 731.477 480.619 730.794C480.981 730.111 481.488 729.589 482.139 729.226C482.8 728.853 483.557 728.666 484.411 728.666C485.243 728.666 485.979 728.847 486.619 729.21C487.259 729.573 487.749 730.074 488.091 730.714C488.443 731.343 488.619 732.058 488.619 732.858ZM487.115 732.554C487.115 731.999 486.992 731.525 486.747 731.13C486.501 730.725 486.165 730.421 485.739 730.218C485.323 730.005 484.859 729.898 484.347 729.898C483.611 729.898 482.981 730.133 482.459 730.602C481.947 731.071 481.653 731.722 481.579 732.554H487.115ZM495.437 737.578L491.997 733.706V737.578H490.541V725.738H491.997V732.698L495.373 728.81H497.405L493.277 733.178L497.421 737.578H495.437ZM501.879 737.722C501.207 737.722 500.604 737.61 500.071 737.386C499.538 737.151 499.116 736.831 498.807 736.426C498.498 736.01 498.327 735.535 498.295 735.002H499.799C499.842 735.439 500.044 735.797 500.407 736.074C500.78 736.351 501.266 736.49 501.863 736.49C502.418 736.49 502.855 736.367 503.175 736.122C503.495 735.877 503.655 735.567 503.655 735.194C503.655 734.81 503.484 734.527 503.143 734.346C502.802 734.154 502.274 733.967 501.559 733.786C500.908 733.615 500.375 733.445 499.959 733.274C499.554 733.093 499.202 732.831 498.903 732.49C498.615 732.138 498.471 731.679 498.471 731.114C498.471 730.666 498.604 730.255 498.871 729.882C499.138 729.509 499.516 729.215 500.007 729.002C500.498 728.778 501.058 728.666 501.687 728.666C502.658 728.666 503.442 728.911 504.039 729.402C504.636 729.893 504.956 730.565 504.999 731.418H503.543C503.511 730.959 503.324 730.591 502.983 730.314C502.652 730.037 502.204 729.898 501.639 729.898C501.116 729.898 500.7 730.01 500.391 730.234C500.082 730.458 499.927 730.751 499.927 731.114C499.927 731.402 500.018 731.642 500.199 731.834C500.391 732.015 500.626 732.165 500.903 732.282C501.191 732.389 501.586 732.511 502.087 732.65C502.716 732.821 503.228 732.991 503.623 733.162C504.018 733.322 504.354 733.567 504.631 733.898C504.919 734.229 505.068 734.661 505.079 735.194C505.079 735.674 504.946 736.106 504.679 736.49C504.412 736.874 504.034 737.178 503.543 737.402C503.063 737.615 502.508 737.722 501.879 737.722Z" fill="#475467"/>
<path d="M593.321 688.978V684.334H601.997V710.578H596.813V688.978H593.321ZM609.064 710.83C608.152 710.83 607.396 710.554 606.796 710.002C606.22 709.426 605.932 708.718 605.932 707.878C605.932 707.038 606.22 706.342 606.796 705.79C607.396 705.214 608.152 704.926 609.064 704.926C609.952 704.926 610.684 705.214 611.26 705.79C611.836 706.342 612.124 707.038 612.124 707.878C612.124 708.718 611.836 709.426 611.26 710.002C610.684 710.554 609.952 710.83 609.064 710.83ZM631.591 688.15L622.015 710.578H616.903L626.551 688.726H614.239V684.406H631.591V688.15Z" fill="#21316A"/>
<path d="M651.583 699.418C652.437 699.418 653.197 699.598 653.863 699.958C654.53 700.305 655.057 700.831 655.443 701.538C655.83 702.245 656.023 703.105 656.023 704.118V710.578H654.223V704.378C654.223 703.285 653.95 702.451 653.403 701.878C652.87 701.291 652.143 700.998 651.223 700.998C650.277 700.998 649.523 701.305 648.963 701.918C648.403 702.518 648.123 703.391 648.123 704.538V710.578H646.323V704.378C646.323 703.285 646.05 702.451 645.503 701.878C644.97 701.291 644.243 700.998 643.323 700.998C642.377 700.998 641.623 701.305 641.063 701.918C640.503 702.518 640.223 703.391 640.223 704.538V710.578H638.403V699.618H640.223V701.198C640.583 700.625 641.063 700.185 641.663 699.878C642.277 699.571 642.95 699.418 643.683 699.418C644.603 699.418 645.417 699.625 646.123 700.038C646.83 700.451 647.357 701.058 647.703 701.858C648.01 701.085 648.517 700.485 649.223 700.058C649.93 699.631 650.717 699.418 651.583 699.418ZM663.529 699.438C664.475 699.438 665.302 699.645 666.009 700.058C666.729 700.471 667.262 700.991 667.609 701.618V699.618H669.449V710.818C669.449 711.818 669.235 712.705 668.809 713.478C668.382 714.265 667.769 714.878 666.969 715.318C666.182 715.758 665.262 715.978 664.209 715.978C662.769 715.978 661.569 715.638 660.609 714.958C659.649 714.278 659.082 713.351 658.909 712.178H660.709C660.909 712.845 661.322 713.378 661.949 713.778C662.575 714.191 663.329 714.398 664.209 714.398C665.209 714.398 666.022 714.085 666.649 713.458C667.289 712.831 667.609 711.951 667.609 710.818V708.518C667.249 709.158 666.715 709.691 666.009 710.118C665.302 710.545 664.475 710.758 663.529 710.758C662.555 710.758 661.669 710.518 660.869 710.038C660.082 709.558 659.462 708.885 659.009 708.018C658.555 707.151 658.329 706.165 658.329 705.058C658.329 703.938 658.555 702.958 659.009 702.118C659.462 701.265 660.082 700.605 660.869 700.138C661.669 699.671 662.555 699.438 663.529 699.438ZM667.609 705.078C667.609 704.251 667.442 703.531 667.109 702.918C666.775 702.305 666.322 701.838 665.749 701.518C665.189 701.185 664.569 701.018 663.889 701.018C663.209 701.018 662.589 701.178 662.029 701.498C661.469 701.818 661.022 702.285 660.689 702.898C660.355 703.511 660.189 704.231 660.189 705.058C660.189 705.898 660.355 706.631 660.689 707.258C661.022 707.871 661.469 708.345 662.029 708.678C662.589 708.998 663.209 709.158 663.889 709.158C664.569 709.158 665.189 708.998 665.749 708.678C666.322 708.345 666.775 707.871 667.109 707.258C667.442 706.631 667.609 705.905 667.609 705.078Z" fill="#475467"/>
<path d="M591.851 730.01H590.011V737.578H588.555V730.01H587.419V728.81H588.555V728.186C588.555 727.205 588.805 726.49 589.307 726.042C589.819 725.583 590.635 725.354 591.755 725.354V726.57C591.115 726.57 590.661 726.698 590.395 726.954C590.139 727.199 590.011 727.61 590.011 728.186V728.81H591.851V730.01ZM597.372 737.722C596.551 737.722 595.804 737.535 595.132 737.162C594.471 736.789 593.948 736.261 593.564 735.578C593.191 734.885 593.004 734.085 593.004 733.178C593.004 732.282 593.196 731.493 593.58 730.81C593.975 730.117 594.508 729.589 595.18 729.226C595.852 728.853 596.604 728.666 597.436 728.666C598.268 728.666 599.02 728.853 599.692 729.226C600.364 729.589 600.892 730.111 601.276 730.794C601.671 731.477 601.868 732.271 601.868 733.178C601.868 734.085 601.666 734.885 601.26 735.578C600.866 736.261 600.327 736.789 599.644 737.162C598.962 737.535 598.204 737.722 597.372 737.722ZM597.372 736.442C597.895 736.442 598.386 736.319 598.844 736.074C599.303 735.829 599.671 735.461 599.948 734.97C600.236 734.479 600.38 733.882 600.38 733.178C600.38 732.474 600.242 731.877 599.964 731.386C599.687 730.895 599.324 730.533 598.876 730.298C598.428 730.053 597.943 729.93 597.42 729.93C596.887 729.93 596.396 730.053 595.948 730.298C595.511 730.533 595.159 730.895 594.892 731.386C594.626 731.877 594.492 732.474 594.492 733.178C594.492 733.893 594.62 734.495 594.876 734.986C595.143 735.477 595.495 735.845 595.932 736.09C596.37 736.325 596.85 736.442 597.372 736.442ZM605.239 730.234C605.495 729.733 605.857 729.343 606.327 729.066C606.807 728.789 607.388 728.65 608.071 728.65V730.154H607.687C606.055 730.154 605.239 731.039 605.239 732.81V737.578H603.783V728.81H605.239V730.234ZM613.425 735.002V733.898L619.041 726.122H620.785V733.738H622.385V735.002H620.785V737.578H619.345V735.002H613.425ZM619.409 727.642L615.105 733.738H619.409V727.642ZM640.025 728.81L637.289 737.578H635.785L633.673 730.618L631.561 737.578H630.057L627.305 728.81H628.793L630.809 736.17L632.985 728.81H634.473L636.601 736.186L638.585 728.81H640.025ZM649.47 732.858C649.47 733.135 649.454 733.429 649.422 733.738H642.414C642.468 734.602 642.761 735.279 643.294 735.77C643.838 736.25 644.494 736.49 645.262 736.49C645.892 736.49 646.414 736.346 646.83 736.058C647.257 735.759 647.556 735.365 647.726 734.874H649.294C649.06 735.717 648.59 736.405 647.886 736.938C647.182 737.461 646.308 737.722 645.262 737.722C644.43 737.722 643.684 737.535 643.022 737.162C642.372 736.789 641.86 736.261 641.486 735.578C641.113 734.885 640.926 734.085 640.926 733.178C640.926 732.271 641.108 731.477 641.47 730.794C641.833 730.111 642.34 729.589 642.99 729.226C643.652 728.853 644.409 728.666 645.262 728.666C646.094 728.666 646.83 728.847 647.47 729.21C648.11 729.573 648.601 730.074 648.942 730.714C649.294 731.343 649.47 732.058 649.47 732.858ZM647.966 732.554C647.966 731.999 647.844 731.525 647.598 731.13C647.353 730.725 647.017 730.421 646.59 730.218C646.174 730.005 645.71 729.898 645.198 729.898C644.462 729.898 643.833 730.133 643.31 730.602C642.798 731.071 642.505 731.722 642.43 732.554H647.966ZM659.392 732.858C659.392 733.135 659.376 733.429 659.344 733.738H652.336C652.389 734.602 652.683 735.279 653.216 735.77C653.76 736.25 654.416 736.49 655.184 736.49C655.813 736.49 656.336 736.346 656.752 736.058C657.179 735.759 657.477 735.365 657.648 734.874H659.216C658.981 735.717 658.512 736.405 657.808 736.938C657.104 737.461 656.229 737.722 655.184 737.722C654.352 737.722 653.605 737.535 652.944 737.162C652.293 736.789 651.781 736.261 651.408 735.578C651.035 734.885 650.848 734.085 650.848 733.178C650.848 732.271 651.029 731.477 651.392 730.794C651.755 730.111 652.261 729.589 652.912 729.226C653.573 728.853 654.331 728.666 655.184 728.666C656.016 728.666 656.752 728.847 657.392 729.21C658.032 729.573 658.523 730.074 658.864 730.714C659.216 731.343 659.392 732.058 659.392 732.858ZM657.888 732.554C657.888 731.999 657.765 731.525 657.52 731.13C657.275 730.725 656.939 730.421 656.512 730.218C656.096 730.005 655.632 729.898 655.12 729.898C654.384 729.898 653.755 730.133 653.232 730.602C652.72 731.071 652.427 731.722 652.352 732.554H657.888ZM666.21 737.578L662.77 733.706V737.578H661.314V725.738H662.77V732.698L666.146 728.81H668.178L664.05 733.178L668.194 737.578H666.21ZM672.652 737.722C671.98 737.722 671.378 737.61 670.844 737.386C670.311 737.151 669.89 736.831 669.58 736.426C669.271 736.01 669.1 735.535 669.068 735.002H670.572C670.615 735.439 670.818 735.797 671.18 736.074C671.554 736.351 672.039 736.49 672.636 736.49C673.191 736.49 673.628 736.367 673.948 736.122C674.268 735.877 674.428 735.567 674.428 735.194C674.428 734.81 674.258 734.527 673.916 734.346C673.575 734.154 673.047 733.967 672.332 733.786C671.682 733.615 671.148 733.445 670.732 733.274C670.327 733.093 669.975 732.831 669.676 732.49C669.388 732.138 669.244 731.679 669.244 731.114C669.244 730.666 669.378 730.255 669.644 729.882C669.911 729.509 670.29 729.215 670.78 729.002C671.271 728.778 671.831 728.666 672.46 728.666C673.431 728.666 674.215 728.911 674.812 729.402C675.41 729.893 675.73 730.565 675.772 731.418H674.316C674.284 730.959 674.098 730.591 673.756 730.314C673.426 730.037 672.978 729.898 672.412 729.898C671.89 729.898 671.474 730.01 671.164 730.234C670.855 730.458 670.7 730.751 670.7 731.114C670.7 731.402 670.791 731.642 670.972 731.834C671.164 732.015 671.399 732.165 671.676 732.282C671.964 732.389 672.359 732.511 672.86 732.65C673.49 732.821 674.002 732.991 674.396 733.162C674.791 733.322 675.127 733.567 675.404 733.898C675.692 734.229 675.842 734.661 675.852 735.194C675.852 735.674 675.719 736.106 675.452 736.49C675.186 736.874 674.807 737.178 674.316 737.402C673.836 737.615 673.282 737.722 672.652 737.722Z" fill="#475467"/>
<path d="M799.124 704.89C801.428 702.97 803.264 701.374 804.632 700.102C806 698.806 807.14 697.462 808.052 696.07C808.964 694.678 809.42 693.31 809.42 691.966C809.42 690.742 809.132 689.782 808.556 689.086C807.98 688.39 807.092 688.042 805.892 688.042C804.692 688.042 803.768 688.45 803.12 689.266C802.472 690.058 802.136 691.15 802.112 692.542H797.216C797.312 689.662 798.164 687.478 799.772 685.99C801.404 684.502 803.468 683.758 805.964 683.758C808.7 683.758 810.8 684.49 812.264 685.954C813.728 687.394 814.46 689.302 814.46 691.678C814.46 693.55 813.956 695.338 812.948 697.042C811.94 698.746 810.788 700.234 809.492 701.506C808.196 702.754 806.504 704.266 804.416 706.042H815.036V710.218H797.252V706.474L799.124 704.89ZM820.3 710.83C819.388 710.83 818.632 710.554 818.032 710.002C817.456 709.426 817.168 708.718 817.168 707.878C817.168 707.038 817.456 706.342 818.032 705.79C818.632 705.214 819.388 704.926 820.3 704.926C821.188 704.926 821.92 705.214 822.496 705.79C823.072 706.342 823.36 707.038 823.36 707.878C823.36 708.718 823.072 709.426 822.496 710.002C821.92 710.554 821.188 710.83 820.3 710.83ZM825.908 705.466V701.506L837.68 684.658H843.548V701.074H846.716V705.466H843.548V710.578H838.508V705.466H825.908ZM838.832 690.058L831.452 701.074H838.832V690.058Z" fill="#21316A"/>
<path d="M867.044 699.418C867.898 699.418 868.658 699.598 869.324 699.958C869.991 700.305 870.518 700.831 870.904 701.538C871.291 702.245 871.484 703.105 871.484 704.118V710.578H869.684V704.378C869.684 703.285 869.411 702.451 868.864 701.878C868.331 701.291 867.604 700.998 866.684 700.998C865.738 700.998 864.984 701.305 864.424 701.918C863.864 702.518 863.584 703.391 863.584 704.538V710.578H861.784V704.378C861.784 703.285 861.511 702.451 860.964 701.878C860.431 701.291 859.704 700.998 858.784 700.998C857.838 700.998 857.084 701.305 856.524 701.918C855.964 702.518 855.684 703.391 855.684 704.538V710.578H853.864V699.618H855.684V701.198C856.044 700.625 856.524 700.185 857.124 699.878C857.738 699.571 858.411 699.418 859.144 699.418C860.064 699.418 860.878 699.625 861.584 700.038C862.291 700.451 862.818 701.058 863.164 701.858C863.471 701.085 863.978 700.485 864.684 700.058C865.391 699.631 866.178 699.418 867.044 699.418ZM878.99 699.438C879.936 699.438 880.763 699.645 881.47 700.058C882.19 700.471 882.723 700.991 883.07 701.618V699.618H884.91V710.818C884.91 711.818 884.696 712.705 884.27 713.478C883.843 714.265 883.23 714.878 882.43 715.318C881.643 715.758 880.723 715.978 879.67 715.978C878.23 715.978 877.03 715.638 876.07 714.958C875.11 714.278 874.543 713.351 874.37 712.178H876.17C876.37 712.845 876.783 713.378 877.41 713.778C878.036 714.191 878.79 714.398 879.67 714.398C880.67 714.398 881.483 714.085 882.11 713.458C882.75 712.831 883.07 711.951 883.07 710.818V708.518C882.71 709.158 882.176 709.691 881.47 710.118C880.763 710.545 879.936 710.758 878.99 710.758C878.016 710.758 877.13 710.518 876.33 710.038C875.543 709.558 874.923 708.885 874.47 708.018C874.016 707.151 873.79 706.165 873.79 705.058C873.79 703.938 874.016 702.958 874.47 702.118C874.923 701.265 875.543 700.605 876.33 700.138C877.13 699.671 878.016 699.438 878.99 699.438ZM883.07 705.078C883.07 704.251 882.903 703.531 882.57 702.918C882.236 702.305 881.783 701.838 881.21 701.518C880.65 701.185 880.03 701.018 879.35 701.018C878.67 701.018 878.05 701.178 877.49 701.498C876.93 701.818 876.483 702.285 876.15 702.898C875.816 703.511 875.65 704.231 875.65 705.058C875.65 705.898 875.816 706.631 876.15 707.258C876.483 707.871 876.93 708.345 877.49 708.678C878.05 708.998 878.67 709.158 879.35 709.158C880.03 709.158 880.65 708.998 881.21 708.678C881.783 708.345 882.236 707.871 882.57 707.258C882.903 706.631 883.07 705.905 883.07 705.078Z" fill="#475467"/>
<path d="M783.754 730.234C784.01 729.733 784.373 729.343 784.842 729.066C785.322 728.789 785.904 728.65 786.586 728.65V730.154H786.202C784.57 730.154 783.754 731.039 783.754 732.81V737.578H782.298V728.81H783.754V730.234ZM796.267 732.858C796.267 733.135 796.251 733.429 796.219 733.738H789.211C789.264 734.602 789.558 735.279 790.091 735.77C790.635 736.25 791.291 736.49 792.059 736.49C792.688 736.49 793.211 736.346 793.627 736.058C794.054 735.759 794.352 735.365 794.523 734.874H796.091C795.856 735.717 795.387 736.405 794.683 736.938C793.979 737.461 793.104 737.722 792.059 737.722C791.227 737.722 790.48 737.535 789.819 737.162C789.168 736.789 788.656 736.261 788.283 735.578C787.91 734.885 787.723 734.085 787.723 733.178C787.723 732.271 787.904 731.477 788.267 730.794C788.63 730.111 789.136 729.589 789.787 729.226C790.448 728.853 791.206 728.666 792.059 728.666C792.891 728.666 793.627 728.847 794.267 729.21C794.907 729.573 795.398 730.074 795.739 730.714C796.091 731.343 796.267 732.058 796.267 732.858ZM794.763 732.554C794.763 731.999 794.64 731.525 794.395 731.13C794.15 730.725 793.814 730.421 793.387 730.218C792.971 730.005 792.507 729.898 791.995 729.898C791.259 729.898 790.63 730.133 790.107 730.602C789.595 731.071 789.302 731.722 789.227 732.554H794.763ZM797.645 733.178C797.645 732.271 797.826 731.482 798.189 730.81C798.552 730.127 799.053 729.599 799.693 729.226C800.344 728.853 801.085 728.666 801.917 728.666C802.994 728.666 803.88 728.927 804.573 729.45C805.277 729.973 805.741 730.698 805.965 731.626H804.397C804.248 731.093 803.954 730.671 803.517 730.362C803.09 730.053 802.557 729.898 801.917 729.898C801.085 729.898 800.413 730.186 799.901 730.762C799.389 731.327 799.133 732.133 799.133 733.178C799.133 734.234 799.389 735.05 799.901 735.626C800.413 736.202 801.085 736.49 801.917 736.49C802.557 736.49 803.09 736.341 803.517 736.042C803.944 735.743 804.237 735.317 804.397 734.762H805.965C805.73 735.658 805.261 736.378 804.557 736.922C803.853 737.455 802.973 737.722 801.917 737.722C801.085 737.722 800.344 737.535 799.693 737.162C799.053 736.789 798.552 736.261 798.189 735.578C797.826 734.895 797.645 734.095 797.645 733.178ZM811.732 737.722C810.91 737.722 810.164 737.535 809.492 737.162C808.83 736.789 808.308 736.261 807.924 735.578C807.55 734.885 807.364 734.085 807.364 733.178C807.364 732.282 807.556 731.493 807.94 730.81C808.334 730.117 808.868 729.589 809.54 729.226C810.212 728.853 810.964 728.666 811.796 728.666C812.628 728.666 813.38 728.853 814.052 729.226C814.724 729.589 815.252 730.111 815.636 730.794C816.03 731.477 816.228 732.271 816.228 733.178C816.228 734.085 816.025 734.885 815.62 735.578C815.225 736.261 814.686 736.789 814.004 737.162C813.321 737.535 812.564 737.722 811.732 737.722ZM811.732 736.442C812.254 736.442 812.745 736.319 813.204 736.074C813.662 735.829 814.03 735.461 814.308 734.97C814.596 734.479 814.74 733.882 814.74 733.178C814.74 732.474 814.601 731.877 814.324 731.386C814.046 730.895 813.684 730.533 813.236 730.298C812.788 730.053 812.302 729.93 811.78 729.93C811.246 729.93 810.756 730.053 810.308 730.298C809.87 730.533 809.518 730.895 809.252 731.386C808.985 731.877 808.852 732.474 808.852 733.178C808.852 733.893 808.98 734.495 809.236 734.986C809.502 735.477 809.854 735.845 810.292 736.09C810.729 736.325 811.209 736.442 811.732 736.442ZM828.686 728.65C829.369 728.65 829.977 728.794 830.51 729.082C831.043 729.359 831.465 729.781 831.774 730.346C832.083 730.911 832.238 731.599 832.238 732.41V737.578H830.798V732.618C830.798 731.743 830.579 731.077 830.142 730.618C829.715 730.149 829.134 729.914 828.398 729.914C827.641 729.914 827.038 730.159 826.59 730.65C826.142 731.13 825.918 731.829 825.918 732.746V737.578H824.478V732.618C824.478 731.743 824.259 731.077 823.822 730.618C823.395 730.149 822.814 729.914 822.078 729.914C821.321 729.914 820.718 730.159 820.27 730.65C819.822 731.13 819.598 731.829 819.598 732.746V737.578H818.142V728.81H819.598V730.074C819.886 729.615 820.27 729.263 820.75 729.018C821.241 728.773 821.779 728.65 822.366 728.65C823.102 728.65 823.753 728.815 824.318 729.146C824.883 729.477 825.305 729.962 825.582 730.602C825.827 729.983 826.233 729.503 826.798 729.162C827.363 728.821 827.993 728.65 828.686 728.65ZM845.171 728.65C845.853 728.65 846.461 728.794 846.995 729.082C847.528 729.359 847.949 729.781 848.259 730.346C848.568 730.911 848.723 731.599 848.723 732.41V737.578H847.283V732.618C847.283 731.743 847.064 731.077 846.627 730.618C846.2 730.149 845.619 729.914 844.883 729.914C844.125 729.914 843.523 730.159 843.075 730.65C842.627 731.13 842.403 731.829 842.403 732.746V737.578H840.963V732.618C840.963 731.743 840.744 731.077 840.307 730.618C839.88 730.149 839.299 729.914 838.563 729.914C837.805 729.914 837.203 730.159 836.755 730.65C836.307 731.13 836.083 731.829 836.083 732.746V737.578H834.627V728.81H836.083V730.074C836.371 729.615 836.755 729.263 837.235 729.018C837.725 728.773 838.264 728.65 838.851 728.65C839.587 728.65 840.237 728.815 840.803 729.146C841.368 729.477 841.789 729.962 842.067 730.602C842.312 729.983 842.717 729.503 843.283 729.162C843.848 728.821 844.477 728.65 845.171 728.65ZM859.111 732.858C859.111 733.135 859.095 733.429 859.063 733.738H852.055C852.108 734.602 852.402 735.279 852.935 735.77C853.479 736.25 854.135 736.49 854.903 736.49C855.532 736.49 856.055 736.346 856.471 736.058C856.898 735.759 857.196 735.365 857.367 734.874H858.935C858.7 735.717 858.231 736.405 857.527 736.938C856.823 737.461 855.948 737.722 854.903 737.722C854.071 737.722 853.324 737.535 852.663 737.162C852.012 736.789 851.5 736.261 851.127 735.578C850.754 734.885 850.567 734.085 850.567 733.178C850.567 732.271 850.748 731.477 851.111 730.794C851.474 730.111 851.98 729.589 852.631 729.226C853.292 728.853 854.05 728.666 854.903 728.666C855.735 728.666 856.471 728.847 857.111 729.21C857.751 729.573 858.242 730.074 858.583 730.714C858.935 731.343 859.111 732.058 859.111 732.858ZM857.607 732.554C857.607 731.999 857.484 731.525 857.239 731.13C856.994 730.725 856.658 730.421 856.231 730.218C855.815 730.005 855.351 729.898 854.839 729.898C854.103 729.898 853.474 730.133 852.951 730.602C852.439 731.071 852.146 731.722 852.071 732.554H857.607ZM865.305 728.65C866.371 728.65 867.235 728.975 867.897 729.626C868.558 730.266 868.889 731.194 868.889 732.41V737.578H867.449V732.618C867.449 731.743 867.23 731.077 866.793 730.618C866.355 730.149 865.758 729.914 865.001 729.914C864.233 729.914 863.619 730.154 863.161 730.634C862.713 731.114 862.489 731.813 862.489 732.73V737.578H861.033V728.81H862.489V730.058C862.777 729.61 863.166 729.263 863.657 729.018C864.158 728.773 864.707 728.65 865.305 728.65ZM870.723 733.162C870.723 732.266 870.904 731.482 871.267 730.81C871.63 730.127 872.126 729.599 872.755 729.226C873.395 728.853 874.11 728.666 874.899 728.666C875.582 728.666 876.216 728.826 876.803 729.146C877.39 729.455 877.838 729.866 878.147 730.378V725.738H879.619V737.578H878.147V735.93C877.859 736.453 877.432 736.885 876.867 737.226C876.302 737.557 875.64 737.722 874.883 737.722C874.104 737.722 873.395 737.53 872.755 737.146C872.126 736.762 871.63 736.223 871.267 735.53C870.904 734.837 870.723 734.047 870.723 733.162ZM878.147 733.178C878.147 732.517 878.014 731.941 877.747 731.45C877.48 730.959 877.118 730.586 876.659 730.33C876.211 730.063 875.715 729.93 875.171 729.93C874.627 729.93 874.131 730.058 873.683 730.314C873.235 730.57 872.878 730.943 872.611 731.434C872.344 731.925 872.211 732.501 872.211 733.162C872.211 733.834 872.344 734.421 872.611 734.922C872.878 735.413 873.235 735.791 873.683 736.058C874.131 736.314 874.627 736.442 875.171 736.442C875.715 736.442 876.211 736.314 876.659 736.058C877.118 735.791 877.48 735.413 877.747 734.922C878.014 734.421 878.147 733.839 878.147 733.178ZM890.08 732.858C890.08 733.135 890.064 733.429 890.032 733.738H883.024C883.077 734.602 883.37 735.279 883.904 735.77C884.448 736.25 885.104 736.49 885.872 736.49C886.501 736.49 887.024 736.346 887.44 736.058C887.866 735.759 888.165 735.365 888.336 734.874H889.904C889.669 735.717 889.2 736.405 888.496 736.938C887.792 737.461 886.917 737.722 885.872 737.722C885.04 737.722 884.293 737.535 883.632 737.162C882.981 736.789 882.469 736.261 882.096 735.578C881.722 734.885 881.536 734.085 881.536 733.178C881.536 732.271 881.717 731.477 882.08 730.794C882.442 730.111 882.949 729.589 883.6 729.226C884.261 728.853 885.018 728.666 885.872 728.666C886.704 728.666 887.44 728.847 888.08 729.21C888.72 729.573 889.21 730.074 889.552 730.714C889.904 731.343 890.08 732.058 890.08 732.858ZM888.576 732.554C888.576 731.999 888.453 731.525 888.208 731.13C887.962 730.725 887.626 730.421 887.2 730.218C886.784 730.005 886.32 729.898 885.808 729.898C885.072 729.898 884.442 730.133 883.92 730.602C883.408 731.071 883.114 731.722 883.04 732.554H888.576ZM891.458 733.162C891.458 732.266 891.639 731.482 892.002 730.81C892.364 730.127 892.86 729.599 893.49 729.226C894.13 728.853 894.844 728.666 895.634 728.666C896.316 728.666 896.951 728.826 897.538 729.146C898.124 729.455 898.572 729.866 898.882 730.378V725.738H900.354V737.578H898.882V735.93C898.594 736.453 898.167 736.885 897.602 737.226C897.036 737.557 896.375 737.722 895.618 737.722C894.839 737.722 894.13 737.53 893.49 737.146C892.86 736.762 892.364 736.223 892.002 735.53C891.639 734.837 891.458 734.047 891.458 733.162ZM898.882 733.178C898.882 732.517 898.748 731.941 898.482 731.45C898.215 730.959 897.852 730.586 897.394 730.33C896.946 730.063 896.45 729.93 895.906 729.93C895.362 729.93 894.866 730.058 894.418 730.314C893.97 730.57 893.612 730.943 893.346 731.434C893.079 731.925 892.946 732.501 892.946 733.162C892.946 733.834 893.079 734.421 893.346 734.922C893.612 735.413 893.97 735.791 894.418 736.058C894.866 736.314 895.362 736.442 895.906 736.442C896.45 736.442 896.946 736.314 897.394 736.058C897.852 735.791 898.215 735.413 898.482 734.922C898.748 734.421 898.882 733.839 898.882 733.178ZM777.233 748.65C777.916 748.65 778.524 748.794 779.057 749.082C779.59 749.359 780.012 749.781 780.321 750.346C780.63 750.911 780.785 751.599 780.785 752.41V757.578H779.345V752.618C779.345 751.743 779.126 751.077 778.689 750.618C778.262 750.149 777.681 749.914 776.945 749.914C776.188 749.914 775.585 750.159 775.137 750.65C774.689 751.13 774.465 751.829 774.465 752.746V757.578H773.025V752.618C773.025 751.743 772.806 751.077 772.369 750.618C771.942 750.149 771.361 749.914 770.625 749.914C769.868 749.914 769.265 750.159 768.817 750.65C768.369 751.13 768.145 751.829 768.145 752.746V757.578H766.689V748.81H768.145V750.074C768.433 749.615 768.817 749.263 769.297 749.018C769.788 748.773 770.326 748.65 770.913 748.65C771.649 748.65 772.3 748.815 772.865 749.146C773.43 749.477 773.852 749.962 774.129 750.602C774.374 749.983 774.78 749.503 775.345 749.162C775.91 748.821 776.54 748.65 777.233 748.65ZM782.629 753.162C782.629 752.266 782.811 751.482 783.173 750.81C783.536 750.127 784.032 749.599 784.661 749.226C785.301 748.853 786.011 748.666 786.789 748.666C787.557 748.666 788.224 748.831 788.789 749.162C789.355 749.493 789.776 749.909 790.053 750.41V748.81H791.525V757.578H790.053V755.946C789.765 756.458 789.333 756.885 788.757 757.226C788.192 757.557 787.531 757.722 786.773 757.722C785.995 757.722 785.291 757.53 784.661 757.146C784.032 756.762 783.536 756.223 783.173 755.53C782.811 754.837 782.629 754.047 782.629 753.162ZM790.053 753.178C790.053 752.517 789.92 751.941 789.653 751.45C789.387 750.959 789.024 750.586 788.565 750.33C788.117 750.063 787.621 749.93 787.077 749.93C786.533 749.93 786.037 750.058 785.589 750.314C785.141 750.57 784.784 750.943 784.517 751.434C784.251 751.925 784.117 752.501 784.117 753.162C784.117 753.834 784.251 754.421 784.517 754.922C784.784 755.413 785.141 755.791 785.589 756.058C786.037 756.314 786.533 756.442 787.077 756.442C787.621 756.442 788.117 756.314 788.565 756.058C789.024 755.791 789.387 755.413 789.653 754.922C789.92 754.421 790.053 753.839 790.053 753.178ZM794.738 747.386C794.461 747.386 794.226 747.29 794.034 747.098C793.842 746.906 793.746 746.671 793.746 746.394C793.746 746.117 793.842 745.882 794.034 745.69C794.226 745.498 794.461 745.402 794.738 745.402C795.005 745.402 795.229 745.498 795.41 745.69C795.602 745.882 795.698 746.117 795.698 746.394C795.698 746.671 795.602 746.906 795.41 747.098C795.229 747.29 795.005 747.386 794.738 747.386ZM795.442 748.81V757.578H793.986V748.81H795.442ZM802.195 748.65C803.262 748.65 804.126 748.975 804.787 749.626C805.449 750.266 805.779 751.194 805.779 752.41V757.578H804.339V752.618C804.339 751.743 804.121 751.077 803.683 750.618C803.246 750.149 802.649 749.914 801.891 749.914C801.123 749.914 800.51 750.154 800.051 750.634C799.603 751.114 799.379 751.813 799.379 752.73V757.578H797.923V748.81H799.379V750.058C799.667 749.61 800.057 749.263 800.547 749.018C801.049 748.773 801.598 748.65 802.195 748.65ZM809.934 750.01V755.178C809.934 755.605 810.024 755.909 810.206 756.09C810.387 756.261 810.702 756.346 811.15 756.346H812.222V757.578H810.91C810.099 757.578 809.491 757.391 809.086 757.018C808.68 756.645 808.478 756.031 808.478 755.178V750.01H807.342V748.81H808.478V746.602H809.934V748.81H812.222V750.01H809.934ZM821.986 752.858C821.986 753.135 821.97 753.429 821.938 753.738H814.93C814.983 754.602 815.277 755.279 815.81 755.77C816.354 756.25 817.01 756.49 817.778 756.49C818.407 756.49 818.93 756.346 819.346 756.058C819.773 755.759 820.071 755.365 820.242 754.874H821.81C821.575 755.717 821.106 756.405 820.402 756.938C819.698 757.461 818.823 757.722 817.778 757.722C816.946 757.722 816.199 757.535 815.538 757.162C814.887 756.789 814.375 756.261 814.002 755.578C813.629 754.885 813.442 754.085 813.442 753.178C813.442 752.271 813.623 751.477 813.986 750.794C814.349 750.111 814.855 749.589 815.506 749.226C816.167 748.853 816.925 748.666 817.778 748.666C818.61 748.666 819.346 748.847 819.986 749.21C820.626 749.573 821.117 750.074 821.458 750.714C821.81 751.343 821.986 752.058 821.986 752.858ZM820.482 752.554C820.482 751.999 820.359 751.525 820.114 751.13C819.869 750.725 819.533 750.421 819.106 750.218C818.69 750.005 818.226 749.898 817.714 749.898C816.978 749.898 816.349 750.133 815.826 750.602C815.314 751.071 815.021 751.722 814.946 752.554H820.482ZM828.18 748.65C829.246 748.65 830.11 748.975 830.772 749.626C831.433 750.266 831.764 751.194 831.764 752.41V757.578H830.324V752.618C830.324 751.743 830.105 751.077 829.668 750.618C829.23 750.149 828.633 749.914 827.876 749.914C827.108 749.914 826.494 750.154 826.036 750.634C825.588 751.114 825.364 751.813 825.364 752.73V757.578H823.908V748.81H825.364V750.058C825.652 749.61 826.041 749.263 826.532 749.018C827.033 748.773 827.582 748.65 828.18 748.65ZM833.598 753.162C833.598 752.266 833.779 751.482 834.142 750.81C834.505 750.127 835.001 749.599 835.63 749.226C836.27 748.853 836.979 748.666 837.758 748.666C838.526 748.666 839.193 748.831 839.758 749.162C840.323 749.493 840.745 749.909 841.022 750.41V748.81H842.494V757.578H841.022V755.946C840.734 756.458 840.302 756.885 839.726 757.226C839.161 757.557 838.499 757.722 837.742 757.722C836.963 757.722 836.259 757.53 835.63 757.146C835.001 756.762 834.505 756.223 834.142 755.53C833.779 754.837 833.598 754.047 833.598 753.162ZM841.022 753.178C841.022 752.517 840.889 751.941 840.622 751.45C840.355 750.959 839.993 750.586 839.534 750.33C839.086 750.063 838.59 749.93 838.046 749.93C837.502 749.93 837.006 750.058 836.558 750.314C836.11 750.57 835.753 750.943 835.486 751.434C835.219 751.925 835.086 752.501 835.086 753.162C835.086 753.834 835.219 754.421 835.486 754.922C835.753 755.413 836.11 755.791 836.558 756.058C837.006 756.314 837.502 756.442 838.046 756.442C838.59 756.442 839.086 756.314 839.534 756.058C839.993 755.791 840.355 755.413 840.622 754.922C840.889 754.421 841.022 753.839 841.022 753.178ZM849.227 748.65C850.293 748.65 851.157 748.975 851.819 749.626C852.48 750.266 852.811 751.194 852.811 752.41V757.578H851.371V752.618C851.371 751.743 851.152 751.077 850.715 750.618C850.277 750.149 849.68 749.914 848.923 749.914C848.155 749.914 847.541 750.154 847.083 750.634C846.635 751.114 846.411 751.813 846.411 752.73V757.578H844.955V748.81H846.411V750.058C846.699 749.61 847.088 749.263 847.579 749.018C848.08 748.773 848.629 748.65 849.227 748.65ZM854.645 753.178C854.645 752.271 854.826 751.482 855.189 750.81C855.552 750.127 856.053 749.599 856.693 749.226C857.344 748.853 858.085 748.666 858.917 748.666C859.994 748.666 860.88 748.927 861.573 749.45C862.277 749.973 862.741 750.698 862.965 751.626H861.397C861.248 751.093 860.954 750.671 860.517 750.362C860.09 750.053 859.557 749.898 858.917 749.898C858.085 749.898 857.413 750.186 856.901 750.762C856.389 751.327 856.133 752.133 856.133 753.178C856.133 754.234 856.389 755.05 856.901 755.626C857.413 756.202 858.085 756.49 858.917 756.49C859.557 756.49 860.09 756.341 860.517 756.042C860.944 755.743 861.237 755.317 861.397 754.762H862.965C862.73 755.658 862.261 756.378 861.557 756.922C860.853 757.455 859.973 757.722 858.917 757.722C858.085 757.722 857.344 757.535 856.693 757.162C856.053 756.789 855.552 756.261 855.189 755.578C854.826 754.895 854.645 754.095 854.645 753.178ZM872.908 752.858C872.908 753.135 872.892 753.429 872.86 753.738H865.852C865.905 754.602 866.198 755.279 866.732 755.77C867.276 756.25 867.932 756.49 868.7 756.49C869.329 756.49 869.852 756.346 870.268 756.058C870.694 755.759 870.993 755.365 871.164 754.874H872.732C872.497 755.717 872.028 756.405 871.324 756.938C870.62 757.461 869.745 757.722 868.7 757.722C867.868 757.722 867.121 757.535 866.46 757.162C865.809 756.789 865.297 756.261 864.924 755.578C864.55 754.885 864.364 754.085 864.364 753.178C864.364 752.271 864.545 751.477 864.908 750.794C865.27 750.111 865.777 749.589 866.428 749.226C867.089 748.853 867.846 748.666 868.7 748.666C869.532 748.666 870.268 748.847 870.908 749.21C871.548 749.573 872.038 750.074 872.38 750.714C872.732 751.343 872.908 752.058 872.908 752.858ZM871.404 752.554C871.404 751.999 871.281 751.525 871.036 751.13C870.79 750.725 870.454 750.421 870.028 750.218C869.612 750.005 869.148 749.898 868.636 749.898C867.9 749.898 867.27 750.133 866.748 750.602C866.236 751.071 865.942 751.722 865.868 752.554H871.404ZM878.551 753.162C878.551 752.266 878.733 751.482 879.095 750.81C879.458 750.127 879.954 749.599 880.583 749.226C881.223 748.853 881.938 748.666 882.727 748.666C883.41 748.666 884.045 748.826 884.631 749.146C885.218 749.455 885.666 749.866 885.975 750.378V745.738H887.447V757.578H885.975V755.93C885.687 756.453 885.261 756.885 884.695 757.226C884.13 757.557 883.469 757.722 882.711 757.722C881.933 757.722 881.223 757.53 880.583 757.146C879.954 756.762 879.458 756.223 879.095 755.53C878.733 754.837 878.551 754.047 878.551 753.162ZM885.975 753.178C885.975 752.517 885.842 751.941 885.575 751.45C885.309 750.959 884.946 750.586 884.487 750.33C884.039 750.063 883.543 749.93 882.999 749.93C882.455 749.93 881.959 750.058 881.511 750.314C881.063 750.57 880.706 750.943 880.439 751.434C880.173 751.925 880.039 752.501 880.039 753.162C880.039 753.834 880.173 754.421 880.439 754.922C880.706 755.413 881.063 755.791 881.511 756.058C881.959 756.314 882.455 756.442 882.999 756.442C883.543 756.442 884.039 756.314 884.487 756.058C884.946 755.791 885.309 755.413 885.575 754.922C885.842 754.421 885.975 753.839 885.975 753.178ZM893.732 757.722C892.91 757.722 892.164 757.535 891.492 757.162C890.83 756.789 890.308 756.261 889.924 755.578C889.55 754.885 889.364 754.085 889.364 753.178C889.364 752.282 889.556 751.493 889.94 750.81C890.334 750.117 890.868 749.589 891.54 749.226C892.212 748.853 892.964 748.666 893.796 748.666C894.628 748.666 895.38 748.853 896.052 749.226C896.724 749.589 897.252 750.111 897.636 750.794C898.03 751.477 898.228 752.271 898.228 753.178C898.228 754.085 898.025 754.885 897.62 755.578C897.225 756.261 896.686 756.789 896.004 757.162C895.321 757.535 894.564 757.722 893.732 757.722ZM893.732 756.442C894.254 756.442 894.745 756.319 895.204 756.074C895.662 755.829 896.03 755.461 896.308 754.97C896.596 754.479 896.74 753.882 896.74 753.178C896.74 752.474 896.601 751.877 896.324 751.386C896.046 750.895 895.684 750.533 895.236 750.298C894.788 750.053 894.302 749.93 893.78 749.93C893.246 749.93 892.756 750.053 892.308 750.298C891.87 750.533 891.518 750.895 891.252 751.386C890.985 751.877 890.852 752.474 890.852 753.178C890.852 753.893 890.98 754.495 891.236 754.986C891.502 755.477 891.854 755.845 892.292 756.09C892.729 756.325 893.209 756.442 893.732 756.442ZM903.246 757.722C902.574 757.722 901.971 757.61 901.438 757.386C900.905 757.151 900.483 756.831 900.174 756.426C899.865 756.01 899.694 755.535 899.662 755.002H901.166C901.209 755.439 901.411 755.797 901.774 756.074C902.147 756.351 902.633 756.49 903.23 756.49C903.785 756.49 904.222 756.367 904.542 756.122C904.862 755.877 905.022 755.567 905.022 755.194C905.022 754.81 904.851 754.527 904.51 754.346C904.169 754.154 903.641 753.967 902.926 753.786C902.275 753.615 901.742 753.445 901.326 753.274C900.921 753.093 900.569 752.831 900.27 752.49C899.982 752.138 899.838 751.679 899.838 751.114C899.838 750.666 899.971 750.255 900.238 749.882C900.505 749.509 900.883 749.215 901.374 749.002C901.865 748.778 902.425 748.666 903.054 748.666C904.025 748.666 904.809 748.911 905.406 749.402C906.003 749.893 906.323 750.565 906.366 751.418H904.91C904.878 750.959 904.691 750.591 904.35 750.314C904.019 750.037 903.571 749.898 903.006 749.898C902.483 749.898 902.067 750.01 901.758 750.234C901.449 750.458 901.294 750.751 901.294 751.114C901.294 751.402 901.385 751.642 901.566 751.834C901.758 752.015 901.993 752.165 902.27 752.282C902.558 752.389 902.953 752.511 903.454 752.65C904.083 752.821 904.595 752.991 904.99 753.162C905.385 753.322 905.721 753.567 905.998 753.898C906.286 754.229 906.435 754.661 906.446 755.194C906.446 755.674 906.313 756.106 906.046 756.49C905.779 756.874 905.401 757.178 904.91 757.402C904.43 757.615 903.875 757.722 903.246 757.722ZM916.502 752.858C916.502 753.135 916.486 753.429 916.454 753.738H909.446C909.499 754.602 909.792 755.279 910.326 755.77C910.87 756.25 911.526 756.49 912.294 756.49C912.923 756.49 913.446 756.346 913.862 756.058C914.288 755.759 914.587 755.365 914.758 754.874H916.326C916.091 755.717 915.622 756.405 914.918 756.938C914.214 757.461 913.339 757.722 912.294 757.722C911.462 757.722 910.715 757.535 910.054 757.162C909.403 756.789 908.891 756.261 908.518 755.578C908.144 754.885 907.958 754.085 907.958 753.178C907.958 752.271 908.139 751.477 908.502 750.794C908.864 750.111 909.371 749.589 910.022 749.226C910.683 748.853 911.44 748.666 912.294 748.666C913.126 748.666 913.862 748.847 914.502 749.21C915.142 749.573 915.632 750.074 915.974 750.714C916.326 751.343 916.502 752.058 916.502 752.858ZM914.998 752.554C914.998 751.999 914.875 751.525 914.63 751.13C914.384 750.725 914.048 750.421 913.622 750.218C913.206 750.005 912.742 749.898 912.23 749.898C911.494 749.898 910.864 750.133 910.342 750.602C909.83 751.071 909.536 751.722 909.462 752.554H914.998Z" fill="#475467"/>
<path d="M0.976562 531.1H182.54V469.738H370.825V411.739H543.14V349.537H939.018" stroke="#1270DE" stroke-width="5"/>
<path d="M44.3414 191.014C43.1734 191.014 42.1174 190.814 41.1734 190.414C40.2454 190.014 39.5094 189.438 38.9654 188.686C38.4214 187.934 38.1414 187.046 38.1254 186.022H41.7254C41.7734 186.71 42.0134 187.254 42.4454 187.654C42.8934 188.054 43.5014 188.254 44.2694 188.254C45.0534 188.254 45.6694 188.07 46.1174 187.702C46.5654 187.318 46.7894 186.822 46.7894 186.214C46.7894 185.718 46.6374 185.31 46.3334 184.99C46.0294 184.67 45.6454 184.422 45.1814 184.246C44.7334 184.054 44.1094 183.846 43.3094 183.622C42.2214 183.302 41.3334 182.99 40.6454 182.686C39.9734 182.366 39.3894 181.894 38.8934 181.27C38.4134 180.63 38.1734 179.782 38.1734 178.726C38.1734 177.734 38.4214 176.87 38.9174 176.134C39.4134 175.398 40.1094 174.838 41.0054 174.454C41.9014 174.054 42.9254 173.854 44.0774 173.854C45.8054 173.854 47.2054 174.278 48.2774 175.126C49.3654 175.958 49.9654 177.126 50.0774 178.63H46.3814C46.3494 178.054 46.1014 177.582 45.6374 177.214C45.1894 176.83 44.5894 176.638 43.8374 176.638C43.1814 176.638 42.6534 176.806 42.2534 177.142C41.8694 177.478 41.6774 177.966 41.6774 178.606C41.6774 179.054 41.8214 179.43 42.1094 179.734C42.4134 180.022 42.7814 180.262 43.2134 180.454C43.6614 180.63 44.2854 180.838 45.0854 181.078C46.1734 181.398 47.0614 181.718 47.7494 182.038C48.4374 182.358 49.0294 182.838 49.5254 183.478C50.0214 184.118 50.2694 184.958 50.2694 185.998C50.2694 186.894 50.0374 187.726 49.5734 188.494C49.1094 189.262 48.4294 189.878 47.5334 190.342C46.6374 190.79 45.5734 191.014 44.3414 191.014ZM56.6144 180.31V186.742C56.6144 187.19 56.7184 187.518 56.9264 187.726C57.1504 187.918 57.5184 188.014 58.0304 188.014H59.5904V190.846H57.4784C54.6464 190.846 53.2304 189.47 53.2304 186.718V180.31H51.6464V177.55H53.2304V174.262H56.6144V177.55H59.5904V180.31H56.6144ZM60.6631 184.15C60.6631 182.806 60.9271 181.614 61.4551 180.574C61.9991 179.534 62.7271 178.734 63.6391 178.174C64.5671 177.614 65.5991 177.334 66.7351 177.334C67.7271 177.334 68.5911 177.534 69.3271 177.934C70.0791 178.334 70.6791 178.838 71.1271 179.446V177.55H74.5111V190.846H71.1271V188.902C70.6951 189.526 70.0951 190.046 69.3271 190.462C68.5751 190.862 67.7031 191.062 66.7111 191.062C65.5911 191.062 64.5671 190.774 63.6391 190.198C62.7271 189.622 61.9991 188.814 61.4551 187.774C60.9271 186.718 60.6631 185.51 60.6631 184.15ZM71.1271 184.198C71.1271 183.382 70.9671 182.686 70.6471 182.11C70.3271 181.518 69.8951 181.07 69.3511 180.766C68.8071 180.446 68.2231 180.286 67.5991 180.286C66.9751 180.286 66.3991 180.438 65.8711 180.742C65.3431 181.046 64.9111 181.494 64.5751 182.086C64.2551 182.662 64.0951 183.35 64.0951 184.15C64.0951 184.95 64.2551 185.654 64.5751 186.262C64.9111 186.854 65.3431 187.31 65.8711 187.63C66.4151 187.95 66.9911 188.11 67.5991 188.11C68.2231 188.11 68.8071 187.958 69.3511 187.654C69.8951 187.334 70.3271 186.886 70.6471 186.31C70.9671 185.718 71.1271 185.014 71.1271 184.198ZM80.6727 179.614C81.1047 178.91 81.6647 178.358 82.3527 177.958C83.0567 177.558 83.8567 177.358 84.7527 177.358V180.886H83.8647C82.8087 180.886 82.0087 181.134 81.4647 181.63C80.9367 182.126 80.6727 182.99 80.6727 184.222V190.846H77.3127V177.55H80.6727V179.614ZM90.4478 180.31V186.742C90.4478 187.19 90.5518 187.518 90.7598 187.726C90.9838 187.918 91.3518 188.014 91.8638 188.014H93.4238V190.846H91.3118C88.4798 190.846 87.0638 189.47 87.0638 186.718V180.31H85.4798V177.55H87.0638V174.262H90.4478V177.55H93.4238V180.31H90.4478Z" fill="#21316A"/>
<path d="M426.993 191.014C425.825 191.014 424.769 190.814 423.825 190.414C422.897 190.014 422.161 189.438 421.617 188.686C421.073 187.934 420.793 187.046 420.777 186.022H424.377C424.425 186.71 424.665 187.254 425.097 187.654C425.545 188.054 426.153 188.254 426.921 188.254C427.705 188.254 428.321 188.07 428.769 187.702C429.217 187.318 429.441 186.822 429.441 186.214C429.441 185.718 429.289 185.31 428.985 184.99C428.681 184.67 428.297 184.422 427.833 184.246C427.385 184.054 426.761 183.846 425.961 183.622C424.873 183.302 423.985 182.99 423.297 182.686C422.625 182.366 422.041 181.894 421.545 181.27C421.065 180.63 420.825 179.782 420.825 178.726C420.825 177.734 421.073 176.87 421.569 176.134C422.065 175.398 422.761 174.838 423.657 174.454C424.553 174.054 425.577 173.854 426.729 173.854C428.457 173.854 429.857 174.278 430.929 175.126C432.017 175.958 432.617 177.126 432.729 178.63H429.033C429.001 178.054 428.753 177.582 428.289 177.214C427.841 176.83 427.241 176.638 426.489 176.638C425.833 176.638 425.305 176.806 424.905 177.142C424.521 177.478 424.329 177.966 424.329 178.606C424.329 179.054 424.473 179.43 424.761 179.734C425.065 180.022 425.433 180.262 425.865 180.454C426.313 180.63 426.937 180.838 427.737 181.078C428.825 181.398 429.713 181.718 430.401 182.038C431.089 182.358 431.681 182.838 432.177 183.478C432.673 184.118 432.921 184.958 432.921 185.998C432.921 186.894 432.689 187.726 432.225 188.494C431.761 189.262 431.081 189.878 430.185 190.342C429.289 190.79 428.225 191.014 426.993 191.014ZM439.266 180.31V186.742C439.266 187.19 439.37 187.518 439.578 187.726C439.802 187.918 440.17 188.014 440.682 188.014H442.242V190.846H440.13C437.298 190.846 435.882 189.47 435.882 186.718V180.31H434.298V177.55H435.882V174.262H439.266V177.55H442.242V180.31H439.266ZM456.539 183.91C456.539 184.39 456.507 184.822 456.443 185.206H446.723C446.803 186.166 447.139 186.918 447.731 187.462C448.323 188.006 449.051 188.278 449.915 188.278C451.163 188.278 452.051 187.742 452.579 186.67H456.203C455.819 187.95 455.083 189.006 453.995 189.838C452.907 190.654 451.571 191.062 449.987 191.062C448.707 191.062 447.555 190.782 446.531 190.222C445.523 189.646 444.731 188.838 444.155 187.798C443.595 186.758 443.315 185.558 443.315 184.198C443.315 182.822 443.595 181.614 444.155 180.574C444.715 179.534 445.499 178.734 446.507 178.174C447.515 177.614 448.675 177.334 449.987 177.334C451.251 177.334 452.379 177.606 453.371 178.15C454.379 178.694 455.155 179.47 455.699 180.478C456.259 181.47 456.539 182.614 456.539 183.91ZM453.059 182.95C453.043 182.086 452.731 181.398 452.123 180.886C451.515 180.358 450.771 180.094 449.891 180.094C449.059 180.094 448.355 180.35 447.779 180.862C447.219 181.358 446.875 182.054 446.747 182.95H453.059ZM461.871 179.47C462.303 178.862 462.895 178.358 463.647 177.958C464.415 177.542 465.287 177.334 466.263 177.334C467.399 177.334 468.423 177.614 469.335 178.174C470.263 178.734 470.991 179.534 471.519 180.574C472.063 181.598 472.335 182.79 472.335 184.15C472.335 185.51 472.063 186.718 471.519 187.774C470.991 188.814 470.263 189.622 469.335 190.198C468.423 190.774 467.399 191.062 466.263 191.062C465.287 191.062 464.423 190.862 463.671 190.462C462.935 190.062 462.335 189.558 461.871 188.95V197.182H458.511V177.55H461.871V179.47ZM468.903 184.15C468.903 183.35 468.735 182.662 468.399 182.086C468.079 181.494 467.647 181.046 467.103 180.742C466.575 180.438 465.999 180.286 465.375 180.286C464.767 180.286 464.191 180.446 463.647 180.766C463.119 181.07 462.687 181.518 462.351 182.11C462.031 182.702 461.871 183.398 461.871 184.198C461.871 184.998 462.031 185.694 462.351 186.286C462.687 186.878 463.119 187.334 463.647 187.654C464.191 187.958 464.767 188.11 465.375 188.11C465.999 188.11 466.575 187.95 467.103 187.63C467.647 187.31 468.079 186.854 468.399 186.262C468.735 185.67 468.903 184.966 468.903 184.15ZM492.088 177.55V190.846H488.704V189.166C488.272 189.742 487.704 190.198 487 190.534C486.312 190.854 485.56 191.014 484.744 191.014C483.704 191.014 482.784 190.798 481.984 190.366C481.184 189.918 480.552 189.27 480.088 188.422C479.64 187.558 479.416 186.534 479.416 185.35V177.55H482.776V184.87C482.776 185.926 483.04 186.742 483.568 187.318C484.096 187.878 484.816 188.158 485.728 188.158C486.656 188.158 487.384 187.878 487.912 187.318C488.44 186.742 488.704 185.926 488.704 184.87V177.55H492.088ZM498.283 179.47C498.715 178.862 499.307 178.358 500.059 177.958C500.827 177.542 501.699 177.334 502.675 177.334C503.811 177.334 504.835 177.614 505.747 178.174C506.675 178.734 507.403 179.534 507.931 180.574C508.475 181.598 508.747 182.79 508.747 184.15C508.747 185.51 508.475 186.718 507.931 187.774C507.403 188.814 506.675 189.622 505.747 190.198C504.835 190.774 503.811 191.062 502.675 191.062C501.699 191.062 500.835 190.862 500.083 190.462C499.347 190.062 498.747 189.558 498.283 188.95V197.182H494.923V177.55H498.283V179.47ZM505.315 184.15C505.315 183.35 505.147 182.662 504.811 182.086C504.491 181.494 504.059 181.046 503.515 180.742C502.987 180.438 502.411 180.286 501.787 180.286C501.179 180.286 500.603 180.446 500.059 180.766C499.531 181.07 499.099 181.518 498.763 182.11C498.443 182.702 498.283 183.398 498.283 184.198C498.283 184.998 498.443 185.694 498.763 186.286C499.099 186.878 499.531 187.334 500.059 187.654C500.603 187.958 501.179 188.11 501.787 188.11C502.411 188.11 502.987 187.95 503.515 187.63C504.059 187.31 504.491 186.854 504.811 186.262C505.147 185.67 505.315 184.966 505.315 184.15Z" fill="#21316A"/>
<path d="M842.34 191.014C841.172 191.014 840.116 190.814 839.172 190.414C838.244 190.014 837.508 189.438 836.964 188.686C836.42 187.934 836.14 187.046 836.124 186.022H839.724C839.772 186.71 840.012 187.254 840.444 187.654C840.892 188.054 841.5 188.254 842.268 188.254C843.052 188.254 843.668 188.07 844.116 187.702C844.564 187.318 844.788 186.822 844.788 186.214C844.788 185.718 844.636 185.31 844.332 184.99C844.028 184.67 843.644 184.422 843.18 184.246C842.732 184.054 842.108 183.846 841.308 183.622C840.22 183.302 839.332 182.99 838.644 182.686C837.972 182.366 837.388 181.894 836.892 181.27C836.412 180.63 836.172 179.782 836.172 178.726C836.172 177.734 836.42 176.87 836.916 176.134C837.412 175.398 838.108 174.838 839.004 174.454C839.9 174.054 840.924 173.854 842.076 173.854C843.804 173.854 845.204 174.278 846.276 175.126C847.364 175.958 847.964 177.126 848.076 178.63H844.38C844.348 178.054 844.1 177.582 843.636 177.214C843.188 176.83 842.588 176.638 841.836 176.638C841.18 176.638 840.652 176.806 840.252 177.142C839.868 177.478 839.676 177.966 839.676 178.606C839.676 179.054 839.82 179.43 840.108 179.734C840.412 180.022 840.78 180.262 841.212 180.454C841.66 180.63 842.284 180.838 843.084 181.078C844.172 181.398 845.06 181.718 845.748 182.038C846.436 182.358 847.028 182.838 847.524 183.478C848.02 184.118 848.268 184.958 848.268 185.998C848.268 186.894 848.036 187.726 847.572 188.494C847.108 189.262 846.428 189.878 845.532 190.342C844.636 190.79 843.572 191.014 842.34 191.014ZM854.613 180.31V186.742C854.613 187.19 854.717 187.518 854.925 187.726C855.149 187.918 855.517 188.014 856.029 188.014H857.589V190.846H855.477C852.645 190.846 851.229 189.47 851.229 186.718V180.31H849.645V177.55H851.229V174.262H854.613V177.55H857.589V180.31H854.613ZM858.661 184.15C858.661 182.806 858.925 181.614 859.453 180.574C859.997 179.534 860.725 178.734 861.637 178.174C862.565 177.614 863.597 177.334 864.733 177.334C865.725 177.334 866.589 177.534 867.325 177.934C868.077 178.334 868.677 178.838 869.125 179.446V177.55H872.509V190.846H869.125V188.902C868.693 189.526 868.093 190.046 867.325 190.462C866.573 190.862 865.701 191.062 864.709 191.062C863.589 191.062 862.565 190.774 861.637 190.198C860.725 189.622 859.997 188.814 859.453 187.774C858.925 186.718 858.661 185.51 858.661 184.15ZM869.125 184.198C869.125 183.382 868.965 182.686 868.645 182.11C868.325 181.518 867.893 181.07 867.349 180.766C866.805 180.446 866.221 180.286 865.597 180.286C864.973 180.286 864.397 180.438 863.869 180.742C863.341 181.046 862.909 181.494 862.573 182.086C862.253 182.662 862.093 183.35 862.093 184.15C862.093 184.95 862.253 185.654 862.573 186.262C862.909 186.854 863.341 187.31 863.869 187.63C864.413 187.95 864.989 188.11 865.597 188.11C866.221 188.11 866.805 187.958 867.349 187.654C867.893 187.334 868.325 186.886 868.645 186.31C868.965 185.718 869.125 185.014 869.125 184.198ZM888.031 177.55L879.799 197.134H876.223L879.103 190.51L873.775 177.55H877.543L880.975 186.838L884.455 177.55H888.031Z" fill="#21316A"/>
<path d="M4.33657 356.994V370.934H2.51657V356.994H4.33657ZM12.7784 359.774C14.1118 359.774 15.1918 360.18 16.0184 360.994C16.8451 361.794 17.2584 362.954 17.2584 364.474V370.934H15.4584V364.734C15.4584 363.64 15.1851 362.807 14.6384 362.234C14.0918 361.647 13.3451 361.354 12.3984 361.354C11.4384 361.354 10.6718 361.654 10.0984 362.254C9.53845 362.854 9.25845 363.727 9.25845 364.874V370.934H7.43845V359.974H9.25845V361.534C9.61845 360.974 10.1051 360.54 10.7184 360.234C11.3451 359.927 12.0318 359.774 12.7784 359.774ZM21.1714 358.194C20.8247 358.194 20.5314 358.074 20.2914 357.834C20.0514 357.594 19.9314 357.3 19.9314 356.954C19.9314 356.607 20.0514 356.314 20.2914 356.074C20.5314 355.834 20.8247 355.714 21.1714 355.714C21.5047 355.714 21.7847 355.834 22.0114 356.074C22.2514 356.314 22.3714 356.607 22.3714 356.954C22.3714 357.3 22.2514 357.594 22.0114 357.834C21.7847 358.074 21.5047 358.194 21.1714 358.194ZM22.0514 359.974V370.934H20.2314V359.974H22.0514ZM27.3733 361.474V367.934C27.3733 368.467 27.4866 368.847 27.7133 369.074C27.9399 369.287 28.3333 369.394 28.8933 369.394H30.2333V370.934H28.5933C27.5799 370.934 26.8199 370.7 26.3133 370.234C25.8066 369.767 25.5533 369 25.5533 367.934V361.474H24.1333V359.974H25.5533V357.214H27.3733V359.974H30.2333V361.474H27.3733ZM33.3784 358.194C33.0318 358.194 32.7384 358.074 32.4984 357.834C32.2584 357.594 32.1384 357.3 32.1384 356.954C32.1384 356.607 32.2584 356.314 32.4984 356.074C32.7384 355.834 33.0318 355.714 33.3784 355.714C33.7118 355.714 33.9918 355.834 34.2184 356.074C34.4584 356.314 34.5784 356.607 34.5784 356.954C34.5784 357.3 34.4584 357.594 34.2184 357.834C33.9918 358.074 33.7118 358.194 33.3784 358.194ZM34.2584 359.974V370.934H32.4384V359.974H34.2584ZM36.6803 365.414C36.6803 364.294 36.907 363.314 37.3603 362.474C37.8136 361.62 38.4336 360.96 39.2203 360.494C40.0203 360.027 40.907 359.794 41.8803 359.794C42.8403 359.794 43.6736 360 44.3803 360.414C45.087 360.827 45.6136 361.347 45.9603 361.974V359.974H47.8003V370.934H45.9603V368.894C45.6003 369.534 45.0603 370.067 44.3403 370.494C43.6336 370.907 42.807 371.114 41.8603 371.114C40.887 371.114 40.007 370.874 39.2203 370.394C38.4336 369.914 37.8136 369.24 37.3603 368.374C36.907 367.507 36.6803 366.52 36.6803 365.414ZM45.9603 365.434C45.9603 364.607 45.7936 363.887 45.4603 363.274C45.127 362.66 44.6736 362.194 44.1003 361.874C43.5403 361.54 42.9203 361.374 42.2403 361.374C41.5603 361.374 40.9403 361.534 40.3803 361.854C39.8203 362.174 39.3736 362.64 39.0403 363.254C38.707 363.867 38.5403 364.587 38.5403 365.414C38.5403 366.254 38.707 366.987 39.0403 367.614C39.3736 368.227 39.8203 368.7 40.3803 369.034C40.9403 369.354 41.5603 369.514 42.2403 369.514C42.9203 369.514 43.5403 369.354 44.1003 369.034C44.6736 368.7 45.127 368.227 45.4603 367.614C45.7936 366.987 45.9603 366.26 45.9603 365.434ZM53.0959 361.474V367.934C53.0959 368.467 53.2093 368.847 53.4359 369.074C53.6626 369.287 54.0559 369.394 54.6159 369.394H55.9559V370.934H54.3159C53.3026 370.934 52.5426 370.7 52.0359 370.234C51.5293 369.767 51.2759 369 51.2759 367.934V361.474H49.8559V359.974H51.2759V357.214H53.0959V359.974H55.9559V361.474H53.0959ZM59.1011 358.194C58.7544 358.194 58.4611 358.074 58.2211 357.834C57.9811 357.594 57.8611 357.3 57.8611 356.954C57.8611 356.607 57.9811 356.314 58.2211 356.074C58.4611 355.834 58.7544 355.714 59.1011 355.714C59.4344 355.714 59.7144 355.834 59.9411 356.074C60.1811 356.314 60.3011 356.607 60.3011 356.954C60.3011 357.3 60.1811 357.594 59.9411 357.834C59.7144 358.074 59.4344 358.194 59.1011 358.194ZM59.9811 359.974V370.934H58.1611V359.974H59.9811ZM67.863 371.114C66.8363 371.114 65.903 370.88 65.063 370.414C64.2363 369.947 63.583 369.287 63.103 368.434C62.6363 367.567 62.403 366.567 62.403 365.434C62.403 364.314 62.643 363.327 63.123 362.474C63.6163 361.607 64.283 360.947 65.123 360.494C65.963 360.027 66.903 359.794 67.943 359.794C68.983 359.794 69.923 360.027 70.763 360.494C71.603 360.947 72.263 361.6 72.743 362.454C73.2363 363.307 73.483 364.3 73.483 365.434C73.483 366.567 73.2296 367.567 72.723 368.434C72.2296 369.287 71.5563 369.947 70.703 370.414C69.8496 370.88 68.903 371.114 67.863 371.114ZM67.863 369.514C68.5163 369.514 69.1296 369.36 69.703 369.054C70.2763 368.747 70.7363 368.287 71.083 367.674C71.443 367.06 71.623 366.314 71.623 365.434C71.623 364.554 71.4496 363.807 71.103 363.194C70.7563 362.58 70.303 362.127 69.743 361.834C69.183 361.527 68.5763 361.374 67.923 361.374C67.2563 361.374 66.643 361.527 66.083 361.834C65.5363 362.127 65.0963 362.58 64.763 363.194C64.4296 363.807 64.263 364.554 64.263 365.434C64.263 366.327 64.423 367.08 64.743 367.694C65.0763 368.307 65.5163 368.767 66.063 369.074C66.6096 369.367 67.2096 369.514 67.863 369.514ZM81.2159 359.774C82.5493 359.774 83.6293 360.18 84.4559 360.994C85.2826 361.794 85.6959 362.954 85.6959 364.474V370.934H83.8959V364.734C83.8959 363.64 83.6226 362.807 83.0759 362.234C82.5293 361.647 81.7826 361.354 80.8359 361.354C79.8759 361.354 79.1093 361.654 78.5359 362.254C77.9759 362.854 77.6959 363.727 77.6959 364.874V370.934H75.8759V359.974H77.6959V361.534C78.0559 360.974 78.5426 360.54 79.1559 360.234C79.7826 359.927 80.4693 359.774 81.2159 359.774ZM98.3409 356.994C99.8609 356.994 101.174 357.28 102.281 357.854C103.401 358.414 104.254 359.22 104.841 360.274C105.441 361.327 105.741 362.567 105.741 363.994C105.741 365.42 105.441 366.66 104.841 367.714C104.254 368.754 103.401 369.554 102.281 370.114C101.174 370.66 99.8609 370.934 98.3409 370.934H94.0009V356.994H98.3409ZM98.3409 369.434C100.141 369.434 101.514 368.96 102.461 368.014C103.408 367.054 103.881 365.714 103.881 363.994C103.881 362.26 103.401 360.907 102.441 359.934C101.494 358.96 100.128 358.474 98.3409 358.474H95.8209V369.434H98.3409ZM112.922 371.114C111.895 371.114 110.962 370.88 110.122 370.414C109.295 369.947 108.642 369.287 108.162 368.434C107.695 367.567 107.462 366.567 107.462 365.434C107.462 364.314 107.702 363.327 108.182 362.474C108.675 361.607 109.342 360.947 110.182 360.494C111.022 360.027 111.962 359.794 113.002 359.794C114.042 359.794 114.982 360.027 115.822 360.494C116.662 360.947 117.322 361.6 117.802 362.454C118.295 363.307 118.542 364.3 118.542 365.434C118.542 366.567 118.288 367.567 117.782 368.434C117.288 369.287 116.615 369.947 115.762 370.414C114.908 370.88 113.962 371.114 112.922 371.114ZM112.922 369.514C113.575 369.514 114.188 369.36 114.762 369.054C115.335 368.747 115.795 368.287 116.142 367.674C116.502 367.06 116.682 366.314 116.682 365.434C116.682 364.554 116.508 363.807 116.162 363.194C115.815 362.58 115.362 362.127 114.802 361.834C114.242 361.527 113.635 361.374 112.982 361.374C112.315 361.374 111.702 361.527 111.142 361.834C110.595 362.127 110.155 362.58 109.822 363.194C109.488 363.807 109.322 364.554 109.322 365.434C109.322 366.327 109.482 367.08 109.802 367.694C110.135 368.307 110.575 368.767 111.122 369.074C111.668 369.367 112.268 369.514 112.922 369.514ZM124.815 371.114C123.975 371.114 123.221 370.974 122.555 370.694C121.888 370.4 121.361 370 120.975 369.494C120.588 368.974 120.375 368.38 120.335 367.714H122.215C122.268 368.26 122.521 368.707 122.975 369.054C123.441 369.4 124.048 369.574 124.795 369.574C125.488 369.574 126.035 369.42 126.435 369.114C126.835 368.807 127.035 368.42 127.035 367.954C127.035 367.474 126.821 367.12 126.395 366.894C125.968 366.654 125.308 366.42 124.415 366.194C123.601 365.98 122.935 365.767 122.415 365.554C121.908 365.327 121.468 365 121.095 364.574C120.735 364.134 120.555 363.56 120.555 362.854C120.555 362.294 120.721 361.78 121.055 361.314C121.388 360.847 121.861 360.48 122.475 360.214C123.088 359.934 123.788 359.794 124.575 359.794C125.788 359.794 126.768 360.1 127.515 360.714C128.261 361.327 128.661 362.167 128.715 363.234H126.895C126.855 362.66 126.621 362.2 126.195 361.854C125.781 361.507 125.221 361.334 124.515 361.334C123.861 361.334 123.341 361.474 122.955 361.754C122.568 362.034 122.375 362.4 122.375 362.854C122.375 363.214 122.488 363.514 122.715 363.754C122.955 363.98 123.248 364.167 123.595 364.314C123.955 364.447 124.448 364.6 125.075 364.774C125.861 364.987 126.501 365.2 126.995 365.414C127.488 365.614 127.908 365.92 128.255 366.334C128.615 366.747 128.801 367.287 128.815 367.954C128.815 368.554 128.648 369.094 128.315 369.574C127.981 370.054 127.508 370.434 126.895 370.714C126.295 370.98 125.601 371.114 124.815 371.114ZM141.384 365.034C141.384 365.38 141.364 365.747 141.324 366.134H132.564C132.63 367.214 132.997 368.06 133.664 368.674C134.344 369.274 135.164 369.574 136.124 369.574C136.91 369.574 137.564 369.394 138.084 369.034C138.617 368.66 138.99 368.167 139.204 367.554H141.164C140.87 368.607 140.284 369.467 139.404 370.134C138.524 370.787 137.43 371.114 136.124 371.114C135.084 371.114 134.15 370.88 133.324 370.414C132.51 369.947 131.87 369.287 131.404 368.434C130.937 367.567 130.704 366.567 130.704 365.434C130.704 364.3 130.93 363.307 131.384 362.454C131.837 361.6 132.47 360.947 133.284 360.494C134.11 360.027 135.057 359.794 136.124 359.794C137.164 359.794 138.084 360.02 138.884 360.474C139.684 360.927 140.297 361.554 140.724 362.354C141.164 363.14 141.384 364.034 141.384 365.034ZM139.504 364.654C139.504 363.96 139.35 363.367 139.044 362.874C138.737 362.367 138.317 361.987 137.784 361.734C137.264 361.467 136.684 361.334 136.044 361.334C135.124 361.334 134.337 361.627 133.684 362.214C133.044 362.8 132.677 363.614 132.584 364.654H139.504Z" fill="#475467"/>
<defs>
<linearGradient id="paint0_linear_0_3" x1="92.8916" y1="531.101" x2="92.8916" y2="640.616" gradientUnits="userSpaceOnUse">
<stop stop-color="#F4F4F4"/>
<stop offset="1" stop-color="#CDEBC6"/>
</linearGradient>
<linearGradient id="paint1_linear_0_3" x1="279.045" y1="469.523" x2="279.045" y2="640.616" gradientUnits="userSpaceOnUse">
<stop stop-color="#F4F4F4"/>
<stop offset="1" stop-color="#F88A8A"/>
</linearGradient>
<linearGradient id="paint2_linear_0_3" x1="459.53" y1="413.883" x2="459.53" y2="640.615" gradientUnits="userSpaceOnUse">
<stop stop-color="#F4F4F4"/>
<stop offset="1" stop-color="#E4D18B"/>
</linearGradient>
<linearGradient id="paint3_linear_0_3" x1="630.356" y1="351.299" x2="630.356" y2="640.616" gradientUnits="userSpaceOnUse">
<stop stop-color="#F4F4F4"/>
<stop offset="1" stop-color="#97E2EC"/>
</linearGradient>
<linearGradient id="paint4_linear_0_3" x1="827.484" y1="351.299" x2="827.484" y2="640.616" gradientUnits="userSpaceOnUse">
<stop stop-color="#F4F4F4"/>
<stop offset="1" stop-color="#36771F"/>
</linearGradient>
</defs>
</svg>
