<svg width="836" height="215" viewBox="0 0 836 215" fill="none" xmlns="http://www.w3.org/2000/svg">
<path d="M531 107L602 107" stroke="#21316A" stroke-width="6"/>
<rect x="517.336" y="87.5355" width="28" height="28" transform="rotate(45 517.336 87.5355)" fill="#F0F0F0" stroke="#21316A" stroke-width="5"/>
<rect width="517" height="215" rx="14" fill="#F0F0F0"/>
<path d="M55.872 39.98C58.536 39.98 60.864 40.496 62.856 41.528C64.872 42.536 66.42 44 67.5 45.92C68.604 47.816 69.156 50.036 69.156 52.58C69.156 55.124 68.604 57.332 67.5 59.204C66.42 61.076 64.872 62.516 62.856 63.524C60.864 64.508 58.536 65 55.872 65H47.7V39.98H55.872ZM55.872 61.652C58.8 61.652 61.044 60.86 62.604 59.276C64.164 57.692 64.944 55.46 64.944 52.58C64.944 49.676 64.164 47.408 62.604 45.776C61.044 44.144 58.8 43.328 55.872 43.328H51.804V61.652H55.872ZM71.1354 54.992C71.1354 53 71.5434 51.236 72.3594 49.7C73.1994 48.164 74.3274 46.976 75.7434 46.136C77.1834 45.272 78.7674 44.84 80.4954 44.84C82.0554 44.84 83.4114 45.152 84.5634 45.776C85.7394 46.376 86.6754 47.132 87.3714 48.044V45.164H91.5114V65H87.3714V62.048C86.6754 62.984 85.7274 63.764 84.5274 64.388C83.3274 65.012 81.9594 65.324 80.4234 65.324C78.7194 65.324 77.1594 64.892 75.7434 64.028C74.3274 63.14 73.1994 61.916 72.3594 60.356C71.5434 58.772 71.1354 56.984 71.1354 54.992ZM87.3714 55.064C87.3714 53.696 87.0834 52.508 86.5074 51.5C85.9554 50.492 85.2234 49.724 84.3114 49.196C83.3994 48.668 82.4154 48.404 81.3594 48.404C80.3034 48.404 79.3194 48.668 78.4074 49.196C77.4954 49.7 76.7514 50.456 76.1754 51.464C75.6234 52.448 75.3474 53.624 75.3474 54.992C75.3474 56.36 75.6234 57.56 76.1754 58.592C76.7514 59.624 77.4954 60.416 78.4074 60.968C79.3434 61.496 80.3274 61.76 81.3594 61.76C82.4154 61.76 83.3994 61.496 84.3114 60.968C85.2234 60.44 85.9554 59.672 86.5074 58.664C87.0834 57.632 87.3714 56.432 87.3714 55.064ZM100.97 48.512V59.492C100.97 60.236 101.138 60.776 101.474 61.112C101.834 61.424 102.434 61.58 103.274 61.58H105.794V65H102.554C100.706 65 99.2899 64.568 98.3059 63.704C97.3219 62.84 96.8299 61.436 96.8299 59.492V48.512H94.4899V45.164H96.8299V40.232H100.97V45.164H105.794V48.512H100.97ZM107.488 54.992C107.488 53 107.896 51.236 108.712 49.7C109.552 48.164 110.68 46.976 112.096 46.136C113.536 45.272 115.12 44.84 116.848 44.84C118.408 44.84 119.764 45.152 120.916 45.776C122.092 46.376 123.028 47.132 123.724 48.044V45.164H127.864V65H123.724V62.048C123.028 62.984 122.08 63.764 120.88 64.388C119.68 65.012 118.312 65.324 116.776 65.324C115.072 65.324 113.512 64.892 112.096 64.028C110.68 63.14 109.552 61.916 108.712 60.356C107.896 58.772 107.488 56.984 107.488 54.992ZM123.724 55.064C123.724 53.696 123.436 52.508 122.86 51.5C122.308 50.492 121.576 49.724 120.664 49.196C119.752 48.668 118.768 48.404 117.712 48.404C116.656 48.404 115.672 48.668 114.76 49.196C113.848 49.7 113.104 50.456 112.528 51.464C111.976 52.448 111.7 53.624 111.7 54.992C111.7 56.36 111.976 57.56 112.528 58.592C113.104 59.624 113.848 60.416 114.76 60.968C115.696 61.496 116.68 61.76 117.712 61.76C118.768 61.76 119.752 61.496 120.664 60.968C121.576 60.44 122.308 59.672 122.86 58.664C123.436 57.632 123.724 56.432 123.724 55.064ZM145.27 48.116C145.966 47.156 146.914 46.376 148.114 45.776C149.338 45.152 150.694 44.84 152.182 44.84C153.934 44.84 155.518 45.26 156.934 46.1C158.35 46.94 159.466 48.14 160.282 49.7C161.098 51.236 161.506 53 161.506 54.992C161.506 56.984 161.098 58.772 160.282 60.356C159.466 61.916 158.338 63.14 156.898 64.028C155.482 64.892 153.91 65.324 152.182 65.324C150.646 65.324 149.278 65.024 148.078 64.424C146.902 63.824 145.966 63.056 145.27 62.12V65H141.166V38.36H145.27V48.116ZM157.33 54.992C157.33 53.624 157.042 52.448 156.466 51.464C155.914 50.456 155.17 49.7 154.234 49.196C153.322 48.668 152.338 48.404 151.282 48.404C150.25 48.404 149.266 48.668 148.33 49.196C147.418 49.724 146.674 50.492 146.098 51.5C145.546 52.508 145.27 53.696 145.27 55.064C145.27 56.432 145.546 57.632 146.098 58.664C146.674 59.672 147.418 60.44 148.33 60.968C149.266 61.496 150.25 61.76 151.282 61.76C152.338 61.76 153.322 61.496 154.234 60.968C155.17 60.416 155.914 59.624 156.466 58.592C157.042 57.56 157.33 56.36 157.33 54.992ZM163.477 54.992C163.477 53 163.885 51.236 164.701 49.7C165.541 48.164 166.669 46.976 168.085 46.136C169.525 45.272 171.109 44.84 172.837 44.84C174.397 44.84 175.753 45.152 176.905 45.776C178.081 46.376 179.017 47.132 179.713 48.044V45.164H183.853V65H179.713V62.048C179.017 62.984 178.069 63.764 176.869 64.388C175.669 65.012 174.301 65.324 172.765 65.324C171.061 65.324 169.501 64.892 168.085 64.028C166.669 63.14 165.541 61.916 164.701 60.356C163.885 58.772 163.477 56.984 163.477 54.992ZM179.713 55.064C179.713 53.696 179.425 52.508 178.849 51.5C178.297 50.492 177.565 49.724 176.653 49.196C175.741 48.668 174.757 48.404 173.701 48.404C172.645 48.404 171.661 48.668 170.749 49.196C169.837 49.7 169.093 50.456 168.517 51.464C167.965 52.448 167.689 53.624 167.689 54.992C167.689 56.36 167.965 57.56 168.517 58.592C169.093 59.624 169.837 60.416 170.749 60.968C171.685 61.496 172.669 61.76 173.701 61.76C174.757 61.76 175.741 61.496 176.653 60.968C177.565 60.44 178.297 59.672 178.849 58.664C179.425 57.632 179.713 56.432 179.713 55.064ZM187.155 55.064C187.155 53.024 187.563 51.236 188.379 49.7C189.219 48.14 190.371 46.94 191.835 46.1C193.299 45.26 194.979 44.84 196.875 44.84C199.275 44.84 201.255 45.416 202.815 46.568C204.399 47.696 205.467 49.316 206.019 51.428H201.591C201.231 50.444 200.655 49.676 199.863 49.124C199.071 48.572 198.075 48.296 196.875 48.296C195.195 48.296 193.851 48.896 192.843 50.096C191.859 51.272 191.367 52.928 191.367 55.064C191.367 57.2 191.859 58.868 192.843 60.068C193.851 61.268 195.195 61.868 196.875 61.868C199.251 61.868 200.823 60.824 201.591 58.736H206.019C205.443 60.752 204.363 62.36 202.779 63.56C201.195 64.736 199.227 65.324 196.875 65.324C194.979 65.324 193.299 64.904 191.835 64.064C190.371 63.2 189.219 62 188.379 60.464C187.563 58.904 187.155 57.104 187.155 55.064ZM217.237 55.1L226.381 65H220.837L213.493 56.468V65H209.389V38.36H213.493V53.84L220.693 45.164H226.381L217.237 55.1ZM246.783 54.596C246.783 55.34 246.735 56.012 246.639 56.612H231.483C231.603 58.196 232.191 59.468 233.247 60.428C234.303 61.388 235.599 61.868 237.135 61.868C239.343 61.868 240.903 60.944 241.815 59.096H246.243C245.643 60.92 244.551 62.42 242.967 63.596C241.407 64.748 239.463 65.324 237.135 65.324C235.239 65.324 233.535 64.904 232.023 64.064C230.535 63.2 229.359 62 228.495 60.464C227.655 58.904 227.235 57.104 227.235 55.064C227.235 53.024 227.643 51.236 228.459 49.7C229.299 48.14 230.463 46.94 231.951 46.1C233.463 45.26 235.191 44.84 237.135 44.84C239.007 44.84 240.675 45.248 242.139 46.064C243.603 46.88 244.743 48.032 245.559 49.52C246.375 50.984 246.783 52.676 246.783 54.596ZM242.499 53.3C242.475 51.788 241.935 50.576 240.879 49.664C239.823 48.752 238.515 48.296 236.955 48.296C235.539 48.296 234.327 48.752 233.319 49.664C232.311 50.552 231.711 51.764 231.519 53.3H242.499ZM248.734 54.992C248.734 53 249.142 51.236 249.958 49.7C250.798 48.164 251.926 46.976 253.342 46.136C254.782 45.272 256.378 44.84 258.13 44.84C259.426 44.84 260.698 45.128 261.946 45.704C263.218 46.256 264.226 47 264.97 47.936V38.36H269.11V65H264.97V62.012C264.298 62.972 263.362 63.764 262.162 64.388C260.986 65.012 259.63 65.324 258.094 65.324C256.366 65.324 254.782 64.892 253.342 64.028C251.926 63.14 250.798 61.916 249.958 60.356C249.142 58.772 248.734 56.984 248.734 54.992ZM264.97 55.064C264.97 53.696 264.682 52.508 264.106 51.5C263.554 50.492 262.822 49.724 261.91 49.196C260.998 48.668 260.014 48.404 258.958 48.404C257.902 48.404 256.918 48.668 256.006 49.196C255.094 49.7 254.35 50.456 253.774 51.464C253.222 52.448 252.946 53.624 252.946 54.992C252.946 56.36 253.222 57.56 253.774 58.592C254.35 59.624 255.094 60.416 256.006 60.968C256.942 61.496 257.926 61.76 258.958 61.76C260.014 61.76 260.998 61.496 261.91 60.968C262.822 60.44 263.554 59.672 264.106 58.664C264.682 57.632 264.97 56.432 264.97 55.064ZM292.672 44.84C294.184 44.84 295.528 45.164 296.704 45.812C297.904 46.46 298.84 47.42 299.512 48.692C300.208 49.964 300.556 51.5 300.556 53.3V65H296.488V53.912C296.488 52.136 296.044 50.78 295.156 49.844C294.268 48.884 293.056 48.404 291.52 48.404C289.984 48.404 288.76 48.884 287.848 49.844C286.96 50.78 286.516 52.136 286.516 53.912V65H282.412V38.36H286.516V47.468C287.212 46.628 288.088 45.98 289.144 45.524C290.224 45.068 291.4 44.84 292.672 44.84ZM323.25 54.596C323.25 55.34 323.202 56.012 323.106 56.612H307.95C308.07 58.196 308.658 59.468 309.714 60.428C310.77 61.388 312.066 61.868 313.602 61.868C315.81 61.868 317.37 60.944 318.282 59.096H322.71C322.11 60.92 321.018 62.42 319.434 63.596C317.874 64.748 315.93 65.324 313.602 65.324C311.706 65.324 310.002 64.904 308.49 64.064C307.002 63.2 305.826 62 304.962 60.464C304.122 58.904 303.702 57.104 303.702 55.064C303.702 53.024 304.11 51.236 304.926 49.7C305.766 48.14 306.93 46.94 308.418 46.1C309.93 45.26 311.658 44.84 313.602 44.84C315.474 44.84 317.142 45.248 318.606 46.064C320.07 46.88 321.21 48.032 322.026 49.52C322.842 50.984 323.25 52.676 323.25 54.596ZM318.966 53.3C318.942 51.788 318.402 50.576 317.346 49.664C316.29 48.752 314.982 48.296 313.422 48.296C312.006 48.296 310.794 48.752 309.786 49.664C308.778 50.552 308.178 51.764 307.986 53.3H318.966ZM325.201 54.992C325.201 53 325.609 51.236 326.425 49.7C327.265 48.164 328.393 46.976 329.809 46.136C331.249 45.272 332.833 44.84 334.561 44.84C336.121 44.84 337.477 45.152 338.629 45.776C339.805 46.376 340.741 47.132 341.437 48.044V45.164H345.577V65H341.437V62.048C340.741 62.984 339.793 63.764 338.593 64.388C337.393 65.012 336.025 65.324 334.489 65.324C332.785 65.324 331.225 64.892 329.809 64.028C328.393 63.14 327.265 61.916 326.425 60.356C325.609 58.772 325.201 56.984 325.201 54.992ZM341.437 55.064C341.437 53.696 341.149 52.508 340.573 51.5C340.021 50.492 339.289 49.724 338.377 49.196C337.465 48.668 336.481 48.404 335.425 48.404C334.369 48.404 333.385 48.668 332.473 49.196C331.561 49.7 330.817 50.456 330.241 51.464C329.689 52.448 329.413 53.624 329.413 54.992C329.413 56.36 329.689 57.56 330.241 58.592C330.817 59.624 331.561 60.416 332.473 60.968C333.409 61.496 334.393 61.76 335.425 61.76C336.481 61.76 337.465 61.496 338.377 60.968C339.289 60.44 340.021 59.672 340.573 58.664C341.149 57.632 341.437 56.432 341.437 55.064ZM354.352 38.36V65H350.248V38.36H354.352ZM363.808 48.512V59.492C363.808 60.236 363.976 60.776 364.312 61.112C364.672 61.424 365.272 61.58 366.112 61.58H368.632V65H365.392C363.544 65 362.128 64.568 361.144 63.704C360.16 62.84 359.668 61.436 359.668 59.492V48.512H357.328V45.164H359.668V40.232H363.808V45.164H368.632V48.512H363.808ZM381.954 44.84C383.466 44.84 384.81 45.164 385.986 45.812C387.186 46.46 388.122 47.42 388.794 48.692C389.49 49.964 389.838 51.5 389.838 53.3V65H385.77V53.912C385.77 52.136 385.326 50.78 384.438 49.844C383.55 48.884 382.338 48.404 380.802 48.404C379.266 48.404 378.042 48.884 377.13 49.844C376.242 50.78 375.798 52.136 375.798 53.912V65H371.694V38.36H375.798V47.468C376.494 46.628 377.37 45.98 378.426 45.524C379.506 45.068 380.682 44.84 381.954 44.84ZM392.985 55.064C392.985 53.024 393.393 51.236 394.209 49.7C395.049 48.14 396.201 46.94 397.665 46.1C399.129 45.26 400.809 44.84 402.705 44.84C405.105 44.84 407.085 45.416 408.645 46.568C410.229 47.696 411.297 49.316 411.849 51.428H407.421C407.061 50.444 406.485 49.676 405.693 49.124C404.901 48.572 403.905 48.296 402.705 48.296C401.025 48.296 399.681 48.896 398.673 50.096C397.689 51.272 397.197 52.928 397.197 55.064C397.197 57.2 397.689 58.868 398.673 60.068C399.681 61.268 401.025 61.868 402.705 61.868C405.081 61.868 406.653 60.824 407.421 58.736H411.849C411.273 60.752 410.193 62.36 408.609 63.56C407.025 64.736 405.057 65.324 402.705 65.324C400.809 65.324 399.129 64.904 397.665 64.064C396.201 63.2 395.049 62 394.209 60.464C393.393 58.904 392.985 57.104 392.985 55.064ZM413.851 54.992C413.851 53 414.259 51.236 415.075 49.7C415.915 48.164 417.043 46.976 418.459 46.136C419.899 45.272 421.483 44.84 423.211 44.84C424.771 44.84 426.127 45.152 427.279 45.776C428.455 46.376 429.391 47.132 430.087 48.044V45.164H434.227V65H430.087V62.048C429.391 62.984 428.443 63.764 427.243 64.388C426.043 65.012 424.675 65.324 423.139 65.324C421.435 65.324 419.875 64.892 418.459 64.028C417.043 63.14 415.915 61.916 415.075 60.356C414.259 58.772 413.851 56.984 413.851 54.992ZM430.087 55.064C430.087 53.696 429.799 52.508 429.223 51.5C428.671 50.492 427.939 49.724 427.027 49.196C426.115 48.668 425.131 48.404 424.075 48.404C423.019 48.404 422.035 48.668 421.123 49.196C420.211 49.7 419.467 50.456 418.891 51.464C418.339 52.448 418.063 53.624 418.063 54.992C418.063 56.36 418.339 57.56 418.891 58.592C419.467 59.624 420.211 60.416 421.123 60.968C422.059 61.496 423.043 61.76 424.075 61.76C425.131 61.76 426.115 61.496 427.027 60.968C427.939 60.44 428.671 59.672 429.223 58.664C429.799 57.632 430.087 56.432 430.087 55.064ZM443.002 48.044C443.602 47.036 444.394 46.256 445.378 45.704C446.386 45.128 447.574 44.84 448.942 44.84V49.088H447.898C446.29 49.088 445.066 49.496 444.226 50.312C443.41 51.128 443.002 52.544 443.002 54.56V65H438.898V45.164H443.002V48.044ZM470.174 54.596C470.174 55.34 470.126 56.012 470.03 56.612H454.874C454.994 58.196 455.582 59.468 456.638 60.428C457.694 61.388 458.99 61.868 460.526 61.868C462.734 61.868 464.294 60.944 465.206 59.096H469.634C469.034 60.92 467.942 62.42 466.358 63.596C464.798 64.748 462.854 65.324 460.526 65.324C458.63 65.324 456.926 64.904 455.414 64.064C453.926 63.2 452.75 62 451.886 60.464C451.046 58.904 450.626 57.104 450.626 55.064C450.626 53.024 451.034 51.236 451.85 49.7C452.69 48.14 453.854 46.94 455.342 46.1C456.854 45.26 458.582 44.84 460.526 44.84C462.398 44.84 464.066 45.248 465.53 46.064C466.994 46.88 468.134 48.032 468.95 49.52C469.766 50.984 470.174 52.676 470.174 54.596ZM465.89 53.3C465.866 51.788 465.326 50.576 464.27 49.664C463.214 48.752 461.906 48.296 460.346 48.296C458.93 48.296 457.718 48.752 456.71 49.664C455.702 50.552 455.102 51.764 454.91 53.3H465.89Z" fill="#21316A"/>
<path d="M267.532 108.732H260.26V116.184H256.444V108.732H249.172V105.276H256.444V97.824H260.26V105.276H267.532V108.732Z" fill="#1270DE"/>
<path d="M41.332 162.436C41.332 159.988 41.896 157.792 43.024 155.848C44.176 153.904 45.724 152.392 47.668 151.312C49.636 150.208 51.784 149.656 54.112 149.656C56.776 149.656 59.14 150.316 61.204 151.636C63.292 152.932 64.804 154.78 65.74 157.18H60.808C60.16 155.86 59.26 154.876 58.108 154.228C56.956 153.58 55.624 153.256 54.112 153.256C52.456 153.256 50.98 153.628 49.684 154.372C48.388 155.116 47.368 156.184 46.624 157.576C45.904 158.968 45.544 160.588 45.544 162.436C45.544 164.284 45.904 165.904 46.624 167.296C47.368 168.688 48.388 169.768 49.684 170.536C50.98 171.28 52.456 171.652 54.112 171.652C55.624 171.652 56.956 171.328 58.108 170.68C59.26 170.032 60.16 169.048 60.808 167.728H65.74C64.804 170.128 63.292 171.976 61.204 173.272C59.14 174.568 56.776 175.216 54.112 175.216C51.76 175.216 49.612 174.676 47.668 173.596C45.724 172.492 44.176 170.968 43.024 169.024C41.896 167.08 41.332 164.884 41.332 162.436ZM87.7878 155.164V175H83.6838V172.66C83.0358 173.476 82.1838 174.124 81.1278 174.604C80.0958 175.06 78.9918 175.288 77.8158 175.288C76.2558 175.288 74.8518 174.964 73.6038 174.316C72.3798 173.668 71.4078 172.708 70.6878 171.436C69.9918 170.164 69.6438 168.628 69.6438 166.828V155.164H73.7118V166.216C73.7118 167.992 74.1558 169.36 75.0438 170.32C75.9318 171.256 77.1438 171.724 78.6798 171.724C80.2158 171.724 81.4278 171.256 82.3158 170.32C83.2278 169.36 83.6838 167.992 83.6838 166.216V155.164H87.7878ZM97.2707 158.512V169.492C97.2707 170.236 97.4387 170.776 97.7747 171.112C98.1347 171.424 98.7347 171.58 99.5747 171.58H102.095V175H98.8547C97.0067 175 95.5907 174.568 94.6067 173.704C93.6227 172.84 93.1307 171.436 93.1307 169.492V158.512H90.7907V155.164H93.1307V150.232H97.2707V155.164H102.095V158.512H97.2707ZM109.945 158.512V169.492C109.945 170.236 110.113 170.776 110.449 171.112C110.809 171.424 111.409 171.58 112.249 171.58H114.769V175H111.529C109.681 175 108.265 174.568 107.281 173.704C106.297 172.84 105.805 171.436 105.805 169.492V158.512H103.465V155.164H105.805V150.232H109.945V155.164H114.769V158.512H109.945ZM119.92 152.536C119.176 152.536 118.552 152.284 118.048 151.78C117.544 151.276 117.292 150.652 117.292 149.908C117.292 149.164 117.544 148.54 118.048 148.036C118.552 147.532 119.176 147.28 119.92 147.28C120.64 147.28 121.252 147.532 121.756 148.036C122.26 148.54 122.512 149.164 122.512 149.908C122.512 150.652 122.26 151.276 121.756 151.78C121.252 152.284 120.64 152.536 119.92 152.536ZM121.936 155.164V175H117.832V155.164H121.936ZM136.612 154.84C138.172 154.84 139.564 155.164 140.788 155.812C142.036 156.46 143.008 157.42 143.704 158.692C144.4 159.964 144.748 161.5 144.748 163.3V175H140.68V163.912C140.68 162.136 140.236 160.78 139.348 159.844C138.46 158.884 137.248 158.404 135.712 158.404C134.176 158.404 132.952 158.884 132.04 159.844C131.152 160.78 130.708 162.136 130.708 163.912V175H126.604V155.164H130.708V157.432C131.38 156.616 132.232 155.98 133.264 155.524C134.32 155.068 135.436 154.84 136.612 154.84ZM157.255 154.84C158.791 154.84 160.147 155.152 161.323 155.776C162.523 156.376 163.459 157.132 164.131 158.044V155.164H168.271V175.324C168.271 177.148 167.887 178.768 167.119 180.184C166.351 181.624 165.235 182.752 163.771 183.568C162.331 184.384 160.603 184.792 158.587 184.792C155.899 184.792 153.667 184.156 151.891 182.884C150.115 181.636 149.107 179.932 148.867 177.772H152.935C153.247 178.804 153.907 179.632 154.915 180.256C155.947 180.904 157.171 181.228 158.587 181.228C160.243 181.228 161.575 180.724 162.583 179.716C163.615 178.708 164.131 177.244 164.131 175.324V172.012C163.435 172.948 162.487 173.74 161.287 174.388C160.111 175.012 158.767 175.324 157.255 175.324C155.527 175.324 153.943 174.892 152.503 174.028C151.087 173.14 149.959 171.916 149.119 170.356C148.303 168.772 147.895 166.984 147.895 164.992C147.895 163 148.303 161.236 149.119 159.7C149.959 158.164 151.087 156.976 152.503 156.136C153.943 155.272 155.527 154.84 157.255 154.84ZM164.131 165.064C164.131 163.696 163.843 162.508 163.267 161.5C162.715 160.492 161.983 159.724 161.071 159.196C160.159 158.668 159.175 158.404 158.119 158.404C157.063 158.404 156.079 158.668 155.167 159.196C154.255 159.7 153.511 160.456 152.935 161.464C152.383 162.448 152.107 163.624 152.107 164.992C152.107 166.36 152.383 167.56 152.935 168.592C153.511 169.624 154.255 170.416 155.167 170.968C156.103 171.496 157.087 171.76 158.119 171.76C159.175 171.76 160.159 171.496 161.071 170.968C161.983 170.44 162.715 169.672 163.267 168.664C163.843 167.632 164.131 166.432 164.131 165.064ZM199.753 164.596C199.753 165.34 199.705 166.012 199.609 166.612H184.453C184.573 168.196 185.161 169.468 186.217 170.428C187.273 171.388 188.569 171.868 190.105 171.868C192.313 171.868 193.873 170.944 194.785 169.096H199.213C198.613 170.92 197.521 172.42 195.937 173.596C194.377 174.748 192.433 175.324 190.105 175.324C188.209 175.324 186.505 174.904 184.993 174.064C183.505 173.2 182.329 172 181.465 170.464C180.625 168.904 180.205 167.104 180.205 165.064C180.205 163.024 180.613 161.236 181.429 159.7C182.269 158.14 183.433 156.94 184.921 156.1C186.433 155.26 188.161 154.84 190.105 154.84C191.977 154.84 193.645 155.248 195.109 156.064C196.573 156.88 197.713 158.032 198.529 159.52C199.345 160.984 199.753 162.676 199.753 164.596ZM195.469 163.3C195.445 161.788 194.905 160.576 193.849 159.664C192.793 158.752 191.485 158.296 189.925 158.296C188.509 158.296 187.297 158.752 186.289 159.664C185.281 160.552 184.681 161.764 184.489 163.3H195.469ZM201.704 164.992C201.704 163 202.112 161.236 202.928 159.7C203.768 158.164 204.896 156.976 206.312 156.136C207.752 155.272 209.348 154.84 211.1 154.84C212.396 154.84 213.668 155.128 214.916 155.704C216.188 156.256 217.196 157 217.94 157.936V148.36H222.08V175H217.94V172.012C217.268 172.972 216.332 173.764 215.132 174.388C213.956 175.012 212.6 175.324 211.064 175.324C209.336 175.324 207.752 174.892 206.312 174.028C204.896 173.14 203.768 171.916 202.928 170.356C202.112 168.772 201.704 166.984 201.704 164.992ZM217.94 165.064C217.94 163.696 217.652 162.508 217.076 161.5C216.524 160.492 215.792 159.724 214.88 159.196C213.968 158.668 212.984 158.404 211.928 158.404C210.872 158.404 209.888 158.668 208.976 159.196C208.064 159.7 207.32 160.456 206.744 161.464C206.192 162.448 205.916 163.624 205.916 164.992C205.916 166.36 206.192 167.56 206.744 168.592C207.32 169.624 208.064 170.416 208.976 170.968C209.912 171.496 210.896 171.76 211.928 171.76C212.984 171.76 213.968 171.496 214.88 170.968C215.792 170.44 216.524 169.672 217.076 168.664C217.652 167.632 217.94 166.432 217.94 165.064ZM234.742 154.84C236.278 154.84 237.634 155.152 238.81 155.776C240.01 156.376 240.946 157.132 241.618 158.044V155.164H245.758V175.324C245.758 177.148 245.374 178.768 244.606 180.184C243.838 181.624 242.722 182.752 241.258 183.568C239.818 184.384 238.09 184.792 236.074 184.792C233.386 184.792 231.154 184.156 229.378 182.884C227.602 181.636 226.594 179.932 226.354 177.772H230.422C230.734 178.804 231.394 179.632 232.402 180.256C233.434 180.904 234.658 181.228 236.074 181.228C237.73 181.228 239.062 180.724 240.07 179.716C241.102 178.708 241.618 177.244 241.618 175.324V172.012C240.922 172.948 239.974 173.74 238.774 174.388C237.598 175.012 236.254 175.324 234.742 175.324C233.014 175.324 231.43 174.892 229.99 174.028C228.574 173.14 227.446 171.916 226.606 170.356C225.79 168.772 225.382 166.984 225.382 164.992C225.382 163 225.79 161.236 226.606 159.7C227.446 158.164 228.574 156.976 229.99 156.136C231.43 155.272 233.014 154.84 234.742 154.84ZM241.618 165.064C241.618 163.696 241.33 162.508 240.754 161.5C240.202 160.492 239.47 159.724 238.558 159.196C237.646 158.668 236.662 158.404 235.606 158.404C234.55 158.404 233.566 158.668 232.654 159.196C231.742 159.7 230.998 160.456 230.422 161.464C229.87 162.448 229.594 163.624 229.594 164.992C229.594 166.36 229.87 167.56 230.422 168.592C230.998 169.624 231.742 170.416 232.654 170.968C233.59 171.496 234.574 171.76 235.606 171.76C236.662 171.76 237.646 171.496 238.558 170.968C239.47 170.44 240.202 169.672 240.754 168.664C241.33 167.632 241.618 166.432 241.618 165.064ZM268.608 164.596C268.608 165.34 268.56 166.012 268.464 166.612H253.308C253.428 168.196 254.016 169.468 255.072 170.428C256.128 171.388 257.424 171.868 258.96 171.868C261.168 171.868 262.728 170.944 263.64 169.096H268.068C267.468 170.92 266.376 172.42 264.792 173.596C263.232 174.748 261.288 175.324 258.96 175.324C257.064 175.324 255.36 174.904 253.848 174.064C252.36 173.2 251.184 172 250.32 170.464C249.48 168.904 249.06 167.104 249.06 165.064C249.06 163.024 249.468 161.236 250.284 159.7C251.124 158.14 252.288 156.94 253.776 156.1C255.288 155.26 257.016 154.84 258.96 154.84C260.832 154.84 262.5 155.248 263.964 156.064C265.428 156.88 266.568 158.032 267.384 159.52C268.2 160.984 268.608 162.676 268.608 164.596ZM264.324 163.3C264.3 161.788 263.76 160.576 262.704 159.664C261.648 158.752 260.34 158.296 258.78 158.296C257.364 158.296 256.152 158.752 255.144 159.664C254.136 160.552 253.536 161.764 253.344 163.3H264.324ZM285.347 158.512V169.492C285.347 170.236 285.515 170.776 285.851 171.112C286.211 171.424 286.811 171.58 287.651 171.58H290.171V175H286.931C285.083 175 283.667 174.568 282.683 173.704C281.699 172.84 281.207 171.436 281.207 169.492V158.512H278.867V155.164H281.207V150.232H285.347V155.164H290.171V158.512H285.347ZM311.413 164.596C311.413 165.34 311.365 166.012 311.269 166.612H296.113C296.233 168.196 296.821 169.468 297.877 170.428C298.933 171.388 300.229 171.868 301.765 171.868C303.973 171.868 305.533 170.944 306.445 169.096H310.873C310.273 170.92 309.181 172.42 307.597 173.596C306.037 174.748 304.093 175.324 301.765 175.324C299.869 175.324 298.165 174.904 296.653 174.064C295.165 173.2 293.989 172 293.125 170.464C292.285 168.904 291.865 167.104 291.865 165.064C291.865 163.024 292.273 161.236 293.089 159.7C293.929 158.14 295.093 156.94 296.581 156.1C298.093 155.26 299.821 154.84 301.765 154.84C303.637 154.84 305.305 155.248 306.769 156.064C308.233 156.88 309.373 158.032 310.189 159.52C311.005 160.984 311.413 162.676 311.413 164.596ZM307.129 163.3C307.105 161.788 306.565 160.576 305.509 159.664C304.453 158.752 303.145 158.296 301.585 158.296C300.169 158.296 298.957 158.752 297.949 159.664C296.941 160.552 296.341 161.764 296.149 163.3H307.129ZM313.364 165.064C313.364 163.024 313.772 161.236 314.588 159.7C315.428 158.14 316.58 156.94 318.044 156.1C319.508 155.26 321.188 154.84 323.084 154.84C325.484 154.84 327.464 155.416 329.024 156.568C330.608 157.696 331.676 159.316 332.228 161.428H327.8C327.44 160.444 326.864 159.676 326.072 159.124C325.28 158.572 324.284 158.296 323.084 158.296C321.404 158.296 320.06 158.896 319.052 160.096C318.068 161.272 317.576 162.928 317.576 165.064C317.576 167.2 318.068 168.868 319.052 170.068C320.06 171.268 321.404 171.868 323.084 171.868C325.46 171.868 327.032 170.824 327.8 168.736H332.228C331.652 170.752 330.572 172.36 328.988 173.56C327.404 174.736 325.436 175.324 323.084 175.324C321.188 175.324 319.508 174.904 318.044 174.064C316.58 173.2 315.428 172 314.588 170.464C313.772 168.904 313.364 167.104 313.364 165.064ZM345.858 154.84C347.37 154.84 348.714 155.164 349.89 155.812C351.09 156.46 352.026 157.42 352.698 158.692C353.394 159.964 353.742 161.5 353.742 163.3V175H349.674V163.912C349.674 162.136 349.23 160.78 348.342 159.844C347.454 158.884 346.242 158.404 344.706 158.404C343.17 158.404 341.946 158.884 341.034 159.844C340.146 160.78 339.702 162.136 339.702 163.912V175H335.598V148.36H339.702V157.468C340.398 156.628 341.274 155.98 342.33 155.524C343.41 155.068 344.586 154.84 345.858 154.84ZM368.265 154.84C369.825 154.84 371.217 155.164 372.441 155.812C373.689 156.46 374.661 157.42 375.357 158.692C376.053 159.964 376.401 161.5 376.401 163.3V175H372.333V163.912C372.333 162.136 371.889 160.78 371.001 159.844C370.113 158.884 368.901 158.404 367.365 158.404C365.829 158.404 364.605 158.884 363.693 159.844C362.805 160.78 362.361 162.136 362.361 163.912V175H358.257V155.164H362.361V157.432C363.033 156.616 363.885 155.98 364.917 155.524C365.973 155.068 367.089 154.84 368.265 154.84ZM389.52 175.324C387.648 175.324 385.956 174.904 384.444 174.064C382.932 173.2 381.744 172 380.88 170.464C380.016 168.904 379.584 167.104 379.584 165.064C379.584 163.048 380.028 161.26 380.916 159.7C381.804 158.14 383.016 156.94 384.552 156.1C386.088 155.26 387.804 154.84 389.7 154.84C391.596 154.84 393.312 155.26 394.848 156.1C396.384 156.94 397.596 158.14 398.484 159.7C399.372 161.26 399.816 163.048 399.816 165.064C399.816 167.08 399.36 168.868 398.448 170.428C397.536 171.988 396.288 173.2 394.704 174.064C393.144 174.904 391.416 175.324 389.52 175.324ZM389.52 171.76C390.576 171.76 391.56 171.508 392.472 171.004C393.408 170.5 394.164 169.744 394.74 168.736C395.316 167.728 395.604 166.504 395.604 165.064C395.604 163.624 395.328 162.412 394.776 161.428C394.224 160.42 393.492 159.664 392.58 159.16C391.668 158.656 390.684 158.404 389.628 158.404C388.572 158.404 387.588 158.656 386.676 159.16C385.788 159.664 385.08 160.42 384.552 161.428C384.024 162.412 383.76 163.624 383.76 165.064C383.76 167.2 384.3 168.856 385.38 170.032C386.484 171.184 387.864 171.76 389.52 171.76ZM407.257 148.36V175H403.153V148.36H407.257ZM420.529 175.324C418.657 175.324 416.965 174.904 415.453 174.064C413.941 173.2 412.753 172 411.889 170.464C411.025 168.904 410.593 167.104 410.593 165.064C410.593 163.048 411.037 161.26 411.925 159.7C412.813 158.14 414.025 156.94 415.561 156.1C417.097 155.26 418.813 154.84 420.709 154.84C422.605 154.84 424.321 155.26 425.857 156.1C427.393 156.94 428.605 158.14 429.493 159.7C430.381 161.26 430.825 163.048 430.825 165.064C430.825 167.08 430.369 168.868 429.457 170.428C428.545 171.988 427.297 173.2 425.713 174.064C424.153 174.904 422.425 175.324 420.529 175.324ZM420.529 171.76C421.585 171.76 422.569 171.508 423.481 171.004C424.417 170.5 425.173 169.744 425.749 168.736C426.325 167.728 426.613 166.504 426.613 165.064C426.613 163.624 426.337 162.412 425.785 161.428C425.233 160.42 424.501 159.664 423.589 159.16C422.677 158.656 421.693 158.404 420.637 158.404C419.581 158.404 418.597 158.656 417.685 159.16C416.797 159.664 416.089 160.42 415.561 161.428C415.033 162.412 414.769 163.624 414.769 165.064C414.769 167.2 415.309 168.856 416.389 170.032C417.493 171.184 418.873 171.76 420.529 171.76ZM442.154 154.84C443.69 154.84 445.046 155.152 446.222 155.776C447.422 156.376 448.358 157.132 449.03 158.044V155.164H453.17V175.324C453.17 177.148 452.786 178.768 452.018 180.184C451.25 181.624 450.134 182.752 448.67 183.568C447.23 184.384 445.502 184.792 443.486 184.792C440.798 184.792 438.566 184.156 436.79 182.884C435.014 181.636 434.006 179.932 433.766 177.772H437.834C438.146 178.804 438.806 179.632 439.814 180.256C440.846 180.904 442.07 181.228 443.486 181.228C445.142 181.228 446.474 180.724 447.482 179.716C448.514 178.708 449.03 177.244 449.03 175.324V172.012C448.334 172.948 447.386 173.74 446.186 174.388C445.01 175.012 443.666 175.324 442.154 175.324C440.426 175.324 438.842 174.892 437.402 174.028C435.986 173.14 434.858 171.916 434.018 170.356C433.202 168.772 432.794 166.984 432.794 164.992C432.794 163 433.202 161.236 434.018 159.7C434.858 158.164 435.986 156.976 437.402 156.136C438.842 155.272 440.426 154.84 442.154 154.84ZM449.03 165.064C449.03 163.696 448.742 162.508 448.166 161.5C447.614 160.492 446.882 159.724 445.97 159.196C445.058 158.668 444.074 158.404 443.018 158.404C441.962 158.404 440.978 158.668 440.066 159.196C439.154 159.7 438.41 160.456 437.834 161.464C437.282 162.448 437.006 163.624 437.006 164.992C437.006 166.36 437.282 167.56 437.834 168.592C438.41 169.624 439.154 170.416 440.066 170.968C441.002 171.496 441.986 171.76 443.018 171.76C444.074 171.76 445.058 171.496 445.97 170.968C446.882 170.44 447.614 169.672 448.166 168.664C448.742 167.632 449.03 166.432 449.03 165.064ZM475.696 155.164L463.528 184.324H459.28L463.312 174.676L455.5 155.164H460.072L465.652 170.284L471.448 155.164H475.696Z" fill="#21316A"/>
<rect x="594" y="65" width="242" height="85" rx="42.5" fill="#21316A"/>
<path d="M658.804 103.116C659.5 102.156 660.448 101.376 661.648 100.776C662.872 100.152 664.228 99.84 665.716 99.84C667.468 99.84 669.052 100.26 670.468 101.1C671.884 101.94 673 103.14 673.816 104.7C674.632 106.236 675.04 108 675.04 109.992C675.04 111.984 674.632 113.772 673.816 115.356C673 116.916 671.872 118.14 670.432 119.028C669.016 119.892 667.444 120.324 665.716 120.324C664.18 120.324 662.812 120.024 661.612 119.424C660.436 118.824 659.5 118.056 658.804 117.12V120H654.7V93.36H658.804V103.116ZM670.864 109.992C670.864 108.624 670.576 107.448 670 106.464C669.448 105.456 668.704 104.7 667.768 104.196C666.856 103.668 665.872 103.404 664.816 103.404C663.784 103.404 662.8 103.668 661.864 104.196C660.952 104.724 660.208 105.492 659.632 106.5C659.08 107.508 658.804 108.696 658.804 110.064C658.804 111.432 659.08 112.632 659.632 113.664C660.208 114.672 660.952 115.44 661.864 115.968C662.8 116.496 663.784 116.76 664.816 116.76C665.872 116.76 666.856 116.496 667.768 115.968C668.704 115.416 669.448 114.624 670 113.592C670.576 112.56 670.864 111.36 670.864 109.992ZM702.39 99.84C703.95 99.84 705.342 100.164 706.566 100.812C707.814 101.46 708.786 102.42 709.482 103.692C710.202 104.964 710.562 106.5 710.562 108.3V120H706.494V108.912C706.494 107.136 706.05 105.78 705.162 104.844C704.274 103.884 703.062 103.404 701.526 103.404C699.99 103.404 698.766 103.884 697.854 104.844C696.966 105.78 696.522 107.136 696.522 108.912V120H692.454V108.912C692.454 107.136 692.01 105.78 691.122 104.844C690.234 103.884 689.022 103.404 687.486 103.404C685.95 103.404 684.726 103.884 683.814 104.844C682.926 105.78 682.482 107.136 682.482 108.912V120H678.378V100.164H682.482V102.432C683.154 101.616 684.006 100.98 685.038 100.524C686.07 100.068 687.174 99.84 688.35 99.84C689.934 99.84 691.35 100.176 692.598 100.848C693.846 101.52 694.806 102.492 695.478 103.764C696.078 102.564 697.014 101.616 698.286 100.92C699.558 100.2 700.926 99.84 702.39 99.84ZM717.153 97.536C716.409 97.536 715.785 97.284 715.281 96.78C714.777 96.276 714.525 95.652 714.525 94.908C714.525 94.164 714.777 93.54 715.281 93.036C715.785 92.532 716.409 92.28 717.153 92.28C717.873 92.28 718.485 92.532 718.989 93.036C719.493 93.54 719.745 94.164 719.745 94.908C719.745 95.652 719.493 96.276 718.989 96.78C718.485 97.284 717.873 97.536 717.153 97.536ZM719.169 100.164V120H715.065V100.164H719.169ZM750.189 94.98V120H746.085V102.864L738.453 120H735.609L727.941 102.864V120H723.837V94.98H728.265L737.049 114.6L745.797 94.98H750.189ZM763.035 94.98C765.699 94.98 768.027 95.496 770.019 96.528C772.035 97.536 773.583 99 774.663 100.92C775.767 102.816 776.319 105.036 776.319 107.58C776.319 110.124 775.767 112.332 774.663 114.204C773.583 116.076 772.035 117.516 770.019 118.524C768.027 119.508 765.699 120 763.035 120H754.863V94.98H763.035ZM763.035 116.652C765.963 116.652 768.207 115.86 769.767 114.276C771.327 112.692 772.107 110.46 772.107 107.58C772.107 104.676 771.327 102.408 769.767 100.776C768.207 99.144 765.963 98.328 763.035 98.328H758.967V116.652H763.035Z" fill="white"/>
</svg>
