<svg width="38" height="38" viewBox="0 0 38 38" fill="none" xmlns="http://www.w3.org/2000/svg">
<g id="Group 212">
<path id="Vector" d="M37.2301 29.2866C37.0585 29.1132 36.8543 28.9756 36.6292 28.8816C36.4042 28.7877 36.1627 28.7394 35.9188 28.7394H35.7705C35.9454 28.3256 36.0488 27.8852 36.0763 27.4368C36.0794 27.3906 36.0756 27.3442 36.0651 27.2991C36.0833 27.199 36.0957 27.098 36.1023 26.9965C36.122 26.6584 36.0749 26.3197 35.9636 25.9998C35.8523 25.68 35.679 25.3852 35.4536 25.1324C35.2282 24.8796 34.9552 24.6737 34.6502 24.5265C34.3452 24.3793 34.0141 24.2938 33.676 24.2747C33.3567 24.2553 33.0367 24.2975 32.7333 24.3989C32.6448 23.7038 32.3447 23.0528 31.8739 22.5339C31.403 22.015 30.784 21.6533 30.1008 21.4979C29.4175 21.3425 28.703 21.4009 28.054 21.6651C27.4051 21.9292 26.8529 22.3865 26.4725 22.9749C25.934 22.3722 25.3213 21.84 24.6492 21.3912C23.6011 20.6816 22.3072 20.7421 20.9815 21.5538L17.6833 19.8993C17.6461 19.8804 17.6066 19.8666 17.5658 19.8583C17.2426 19.8042 16.9109 19.8403 16.6069 19.9627C16.303 20.0851 16.0388 20.289 15.8433 20.5519L13.5759 19.0149C13.6066 18.5422 13.4822 18.0724 13.2214 17.677C13.0897 17.4999 12.9229 17.3518 12.7314 17.242C12.5399 17.1322 12.3278 17.063 12.1084 17.0388C11.8942 17.0013 11.6745 17.0094 11.4636 17.0623C11.2527 17.1153 11.0553 17.212 10.8842 17.3462C10.5055 17.6869 10.2549 18.1471 10.1743 18.6501C9.7373 18.9118 9.40314 19.3152 9.22741 19.7933C9.16086 20.0176 9.14889 20.2545 9.19251 20.4843C3.30059 20.5535 2.6038 21.5055 2.6038 27.9245V28.6529H2.36428H2.35916C1.86753 28.6529 1.39596 28.8479 1.04782 29.195C0.699673 29.5421 0.503364 30.0131 0.501923 30.5047L0.500002 31.2092C0.49932 31.7015 0.693884 32.1739 1.04103 32.5229C1.38817 32.8719 1.85955 33.069 2.35179 33.0709L3.22149 33.0732L3.80044 35.086C3.97043 35.6627 4.32148 36.1693 4.80167 36.531C5.28186 36.8927 5.8657 37.0902 6.46685 37.0944L31.773 37.1616H31.7819C32.3819 37.1594 32.9652 36.9639 33.4454 36.6042C33.9256 36.2445 34.2772 35.7396 34.448 35.1645L35.0379 33.1574L35.9079 33.1596H35.913C36.4046 33.1596 36.8761 32.9647 37.2242 32.6177C37.5724 32.2706 37.7687 31.7997 37.7702 31.3082L37.7722 30.6037C37.7737 30.3592 37.7265 30.1168 37.6334 29.8907C37.5403 29.6646 37.4032 29.4593 37.2301 29.2866ZM29.4777 22.3755C30.1301 22.4149 30.7403 22.711 31.1748 23.1992C31.6094 23.6874 31.8329 24.3279 31.7964 24.9804C31.7947 24.9937 31.7923 25.0068 31.7893 25.0198C31.7813 25.0614 31.7736 25.1031 31.7695 25.1479C31.7601 25.2414 31.7783 25.3356 31.822 25.4189C31.8656 25.5021 31.9327 25.5707 32.015 25.6162C32.0972 25.6616 32.191 25.682 32.2847 25.6747C32.3784 25.6674 32.4679 25.6327 32.5421 25.5751C32.8468 25.3318 33.2308 25.2101 33.62 25.2334C33.8318 25.2451 34.0393 25.2984 34.2306 25.3904C34.4218 25.4823 34.593 25.611 34.7345 25.7692C34.876 25.9273 34.9849 26.1118 35.055 26.312C35.1251 26.5123 35.1551 26.7244 35.1432 26.9363C35.1359 27.0514 35.1164 27.1653 35.0853 27.2763C35.059 27.3739 35.0638 27.4772 35.099 27.5719C35.0461 27.9839 34.9074 28.3802 34.6917 28.7352L32.8918 28.7304L33.823 26.8825C33.8514 26.8261 33.8684 26.7648 33.873 26.7018C33.8777 26.6389 33.8699 26.5757 33.8501 26.5158C33.8304 26.4559 33.799 26.4004 33.7578 26.3526C33.7166 26.3048 33.6664 26.2656 33.61 26.2373C33.5537 26.2089 33.4923 26.1919 33.4294 26.1872C33.3665 26.1825 33.3032 26.1903 33.2433 26.2101C33.1834 26.2299 33.128 26.2613 33.0802 26.3024C33.0324 26.3436 32.9932 26.3939 32.9648 26.4502L31.8175 28.7295L29.7588 28.724L30.0307 24.0188C30.038 23.8914 29.9945 23.7663 29.9096 23.6711C29.8247 23.5758 29.7055 23.5181 29.5781 23.5108C29.4507 23.5035 29.3256 23.547 29.2303 23.6319C29.1351 23.7168 29.0774 23.836 29.0701 23.9634L28.7953 28.7215L27.9371 28.7192C28.1728 27.8913 28.221 27.0212 28.0781 26.1722C27.9353 25.3233 27.605 24.5169 27.1113 23.8116C27.3171 23.3632 27.6525 22.9867 28.0743 22.7307C28.4961 22.4747 28.9849 22.351 29.4777 22.3755ZM17.3157 20.7882L20.7961 22.533C20.8725 22.5713 20.9577 22.5886 21.043 22.5829C21.1283 22.5773 21.2105 22.549 21.2812 22.501C22.0318 21.9912 23.1323 21.5224 24.1106 22.1843C24.9085 22.709 25.6076 23.3702 26.176 24.1376C27.2096 25.585 27.476 27.2363 26.9272 28.7147L17.7713 28.6907C17.748 28.3039 17.7804 27.9156 17.8674 27.538C17.8856 27.4548 17.8814 27.3682 17.8552 27.2872C17.829 27.2062 17.7817 27.1336 17.7182 27.0769L14.8119 24.4857C14.7517 24.3376 14.7309 24.1765 14.7515 24.018C14.7722 23.8595 14.8336 23.7091 14.9298 23.5814C15.0219 23.4127 15.1587 23.2726 15.3252 23.1765C15.4918 23.0805 15.6816 23.0322 15.8738 23.037C15.9642 23.0518 16.0569 23.0403 16.1411 23.0041C16.2252 22.9678 16.2972 22.9083 16.3486 22.8325C16.4 22.7566 16.4286 22.6677 16.4311 22.5761C16.4336 22.4845 16.4099 22.3941 16.3627 22.3156C16.2873 22.139 16.262 21.9451 16.2895 21.7551C16.317 21.5651 16.3963 21.3863 16.5187 21.2384C16.6015 21.101 16.7183 20.9874 16.858 20.9085C16.9976 20.8296 17.1553 20.7882 17.3157 20.7882ZM10.1429 20.0732C10.2842 19.7702 10.5255 19.5252 10.8262 19.3793C10.9006 19.3422 10.9641 19.2867 11.0108 19.218C11.0574 19.1493 11.0856 19.0697 11.0927 18.987C11.117 18.6528 11.2559 18.3373 11.4859 18.0936C11.5543 18.0415 11.6335 18.0052 11.7176 17.9872C11.8017 17.9692 11.8888 17.97 11.9726 17.9895C12.0637 17.9956 12.1525 18.0209 12.2331 18.0637C12.3137 18.1066 12.3844 18.166 12.4404 18.238C12.5973 18.5205 12.6526 18.8483 12.597 19.1666C12.5806 19.2581 12.5911 19.3523 12.6272 19.4379C12.6633 19.5235 12.7235 19.5968 12.8003 19.6489L15.3883 21.4033C15.3202 21.6402 15.297 21.8877 15.3198 22.1331C15.0833 22.2027 14.862 22.316 14.6672 22.4671L12.0776 20.7133C12.0007 20.6618 11.9107 20.6335 11.8182 20.6316C11.7257 20.6297 11.6346 20.6544 11.5557 20.7027C11.28 20.8735 10.9541 20.9448 10.6322 20.9047C10.5441 20.8793 10.4625 20.8354 10.3926 20.7762C10.3226 20.7169 10.266 20.6435 10.2265 20.5608C10.1779 20.4907 10.1453 20.4107 10.131 20.3265C10.1167 20.2423 10.1211 20.1561 10.1439 20.0738L10.1429 20.0732ZM3.56284 27.9225C3.56284 21.819 3.8568 21.4523 9.70901 21.4389C9.89992 21.631 10.1387 21.7687 10.4007 21.8375C10.8647 21.9324 11.3471 21.8731 11.7744 21.6688L14.0428 23.2058C13.8712 23.4851 13.7801 23.8064 13.7798 24.1341C13.7795 24.4619 13.8698 24.7834 14.0409 25.063C14.0636 25.0968 14.0903 25.1277 14.1206 25.1549L16.6445 27.4057C16.6445 27.5754 16.6467 27.7439 16.6467 27.9219V28.684H15.2778L3.56284 28.652V27.9225ZM33.5252 34.8897C33.4137 35.2663 33.1838 35.5968 32.8695 35.8323C32.5552 36.0678 32.1734 36.1956 31.7807 36.1968H31.7749L6.46845 36.1296C6.07417 36.1307 5.6903 36.003 5.37516 35.7661C5.06001 35.5291 4.8308 35.1958 4.72233 34.8167L4.22088 33.0732L34.0366 33.1523L33.5252 34.8897ZM36.808 31.3014C36.8072 31.5387 36.7123 31.7659 36.5443 31.9333C36.3762 32.1008 36.1487 32.1948 35.9114 32.1948H35.9089L3.55868 32.1093C3.55355 32.1093 3.54843 32.1093 3.54299 32.1093L2.35275 32.1064C2.11507 32.1057 1.88742 32.0106 1.71984 31.842C1.55225 31.6735 1.45844 31.4453 1.45904 31.2076L1.46096 30.5047C1.46172 30.2674 1.55652 30.0401 1.72459 29.8726C1.89265 29.7051 2.12026 29.611 2.35756 29.611H2.36012L2.91153 29.6126C2.9661 29.6336 3.02405 29.6445 3.08252 29.6446H15.2753L17.3496 29.6501H17.3685L27.2442 29.6763H27.2487H27.2519L32.1092 29.6892H32.1127H32.1156L35.9162 29.6994C36.1538 29.7002 36.3813 29.7952 36.5489 29.9636C36.7165 30.132 36.8104 30.36 36.8099 30.5976L36.808 31.3014Z" fill="#21316A"/>
<path id="Vector_2" d="M5.59241 13.5304L20.71 17.1786L23.3441 17.8142L36.7271 21.0448C36.7884 21.0599 36.8521 21.0626 36.9144 21.0529C36.9768 21.0432 37.0367 21.0213 37.0905 20.9884C37.1444 20.9554 37.1912 20.9122 37.2283 20.8611C37.2654 20.81 37.292 20.7521 37.3066 20.6907C37.959 18.0088 37.9223 15.2055 37.2 12.5416C36.5415 10.1136 35.3417 7.86625 33.6905 5.96825C31.7185 3.70549 29.1636 2.02708 26.3038 1.11574C25.9365 0.996622 25.5561 0.891592 25.1408 0.790084C22.4989 0.151171 19.74 0.175341 17.1097 0.860442C14.4794 1.54554 12.0593 2.87032 10.0648 4.71686C7.67613 6.92324 5.99592 9.78886 5.23697 12.9508C5.22219 13.0122 5.21967 13.0759 5.22954 13.1383C5.23941 13.2007 5.26148 13.2605 5.2945 13.3143C5.32751 13.3682 5.37082 13.4149 5.42193 13.452C5.47305 13.4891 5.53098 13.5157 5.59241 13.5304ZM14.656 14.7293L14.3474 13.6726C14.3139 13.5587 14.3063 13.4388 14.3252 13.3217C14.3441 13.2045 14.3889 13.093 14.4565 12.9955C14.524 12.8979 14.6125 12.8167 14.7156 12.7577C14.8186 12.6988 14.9335 12.6637 15.0518 12.6549L16.9369 12.5201C17.1852 12.5009 17.4265 12.4292 17.6451 12.3099C17.8636 12.1905 18.0543 12.0262 18.2047 11.8277C18.3551 11.6293 18.4616 11.4011 18.5174 11.1585C18.5731 10.9158 18.5767 10.664 18.5281 10.4199L18.2594 9.08777C18.2135 8.84704 18.1163 8.61901 17.9744 8.41916L16.8172 6.76174C16.6471 6.51515 16.4163 6.31666 16.147 6.18549C15.8777 6.05433 15.5791 5.99494 15.2801 6.01308L13.4498 6.11523C13.2974 6.12404 13.1455 6.08999 13.0114 6.01692L11.1981 5.00505C11.2416 4.96759 11.2842 4.92852 11.3284 4.89169C11.4414 4.79787 11.5564 4.70725 11.6713 4.61695C11.8052 4.5116 11.9397 4.40753 12.0761 4.30731C12.1936 4.22117 12.3124 4.13791 12.4318 4.0553C12.5711 3.95923 12.7111 3.86317 12.8529 3.77255C12.9743 3.6941 13.0966 3.61853 13.2199 3.5436C13.3643 3.45618 13.51 3.37036 13.657 3.28743C13.7814 3.21719 13.9068 3.14899 14.0332 3.08281C14.1827 3.00404 14.3332 2.92783 14.4847 2.85418C14.6128 2.79206 14.7409 2.73122 14.869 2.67294C15.023 2.60313 15.178 2.53685 15.3336 2.47248C15.4639 2.41837 15.5946 2.36521 15.7262 2.31494C15.8844 2.25474 16.0438 2.19806 16.2039 2.14266C16.3362 2.09719 16.4684 2.05172 16.6017 2.00978C16.764 1.95854 16.9276 1.91179 17.0913 1.866C17.2251 1.82886 17.3586 1.79107 17.4931 1.75745C17.6593 1.71582 17.8265 1.67932 17.9939 1.64313C18.1284 1.61431 18.2629 1.58421 18.3984 1.55892C18.5684 1.52689 18.7391 1.50064 18.9107 1.4747C19.0455 1.45389 19.1797 1.43179 19.3151 1.4145C19.489 1.39273 19.6642 1.37703 19.839 1.3607C19.9725 1.34854 20.1061 1.33413 20.2402 1.32516C20.4186 1.31363 20.5976 1.30883 20.7766 1.30339C20.9082 1.29922 21.0398 1.29218 21.1717 1.29154C21.3555 1.29154 21.5397 1.2973 21.7238 1.30275C21.8519 1.30659 21.98 1.30691 22.108 1.31395C22.3002 1.32452 22.4923 1.34373 22.6844 1.36134C22.8045 1.37223 22.9246 1.37928 23.045 1.39337C23.2566 1.41802 23.4683 1.45196 23.68 1.48527C23.7805 1.50128 23.8811 1.51248 23.9813 1.5301C24.293 1.58539 24.604 1.65028 24.9144 1.72479C25.0889 1.76705 25.2548 1.81092 25.4178 1.85575L25.5353 1.88777C25.5788 1.89994 25.6205 1.91371 25.6634 1.9262L25.6147 3.55929C25.6115 3.69167 25.5753 3.82116 25.5093 3.93597C25.4433 4.05079 25.3496 4.14728 25.2368 4.21669L23.6931 5.16227C23.3899 5.34575 23.1497 5.61708 23.0043 5.94027C22.8589 6.26346 22.8153 6.62322 22.8791 6.9718L23.1033 8.19853C23.1373 8.3855 23.103 8.57847 23.0066 8.74223C22.9102 8.906 22.7581 9.02966 22.5781 9.09065L21.5486 9.43968C21.1857 9.56488 20.8737 9.80537 20.6603 10.1245C20.4468 10.4435 20.3436 10.8237 20.3664 11.2069L20.4506 12.5919C20.4747 12.9663 20.6174 13.3234 20.8581 13.6112C21.0987 13.8991 21.4248 14.1029 21.7891 14.1929C21.8921 14.217 21.997 14.2322 22.1026 14.2384C22.2991 14.2482 22.4849 14.331 22.6236 14.4705C22.7624 14.61 22.8441 14.7963 22.8529 14.9928C22.8769 15.4879 22.9076 16.0966 22.9416 16.7274L16.8537 15.2596L14.656 14.7293ZM33.1983 6.87638C33.2332 6.91832 33.2691 6.95963 33.3033 7.0019C33.3539 7.06402 33.4039 7.12614 33.4532 7.1889C33.532 7.28881 33.6088 7.38968 33.685 7.49118C33.7308 7.55235 33.7769 7.61319 33.8218 7.67467C33.9025 7.78578 33.9819 7.89882 34.0584 8.01153C34.0952 8.06501 34.1333 8.11816 34.1695 8.17164C34.2739 8.3279 34.3754 8.48577 34.474 8.64523C34.4814 8.65708 34.4891 8.66829 34.4961 8.67982C34.6029 8.85294 34.7057 9.0281 34.8045 9.20529C34.832 9.2546 34.858 9.30455 34.8852 9.35418C34.955 9.48227 35.0238 9.61036 35.0901 9.73844C35.1221 9.80248 35.1542 9.86652 35.1862 9.93281C35.2438 10.0494 35.3008 10.1666 35.3556 10.285C35.3876 10.3542 35.4196 10.4234 35.4516 10.4929C35.5039 10.6096 35.5546 10.727 35.6037 10.8451C35.6329 10.9146 35.662 10.9844 35.6902 11.0545C35.7395 11.1778 35.7863 11.3017 35.8333 11.4263C35.8574 11.4903 35.882 11.5544 35.9054 11.6203C35.9577 11.767 36.0076 11.9146 36.0552 12.0632C36.069 12.1061 36.0844 12.149 36.0978 12.1913C36.1587 12.3834 36.2156 12.5772 36.2685 12.7728C36.2794 12.8125 36.2887 12.8528 36.2989 12.8925C36.3396 13.0469 36.3787 13.2012 36.4145 13.3565C36.4302 13.4247 36.4443 13.4933 36.459 13.5618C36.4869 13.6899 36.5138 13.818 36.5381 13.946C36.5529 14.0229 36.5663 14.1004 36.5798 14.1776C36.6009 14.2996 36.6211 14.4216 36.6393 14.5439C36.6512 14.6233 36.6627 14.704 36.6733 14.7828C36.6793 14.8292 36.6841 14.8756 36.6899 14.9221L36.6035 14.8602C36.2472 14.6055 35.8404 14.4302 35.4106 14.3461C34.9807 14.2621 34.5378 14.2713 34.1119 14.3732L33.164 14.6018C32.8462 14.6769 32.5153 14.6776 32.1971 14.6039C31.8789 14.5302 31.582 14.3841 31.3295 14.1769L31.1963 14.0671C30.7859 13.7274 30.52 13.2443 30.4526 12.7157C30.3853 12.1872 30.5214 11.6529 30.8335 11.221C31.1399 10.789 31.3304 10.2856 31.3869 9.75893L31.4871 8.80182C31.5251 8.44444 31.6539 8.10273 31.8613 7.8092C32.0687 7.51567 32.3477 7.28009 32.6719 7.12486L33.1983 6.87638ZM32.53 6.13092L32.2604 6.259C31.7874 6.48501 31.3802 6.82835 31.0775 7.25631C30.7749 7.68427 30.5868 8.1826 30.5312 8.70383L30.431 9.66095C30.3918 10.0237 30.2603 10.3703 30.049 10.6677C29.597 11.2974 29.4007 12.0751 29.4999 12.8439C29.5991 13.6126 29.9864 14.3151 30.5834 14.8093L30.7173 14.9195C31.0845 15.2214 31.5166 15.4343 31.9798 15.5416C32.443 15.6488 32.9246 15.6475 33.3872 15.5378L34.3357 15.3092C34.6278 15.2394 34.9315 15.2331 35.2262 15.2907C35.5209 15.3484 35.7998 15.4687 36.044 15.6435L36.7901 16.1763C36.8445 17.4573 36.7399 18.74 36.4786 19.9952L23.9166 16.9637C23.8766 16.2343 23.8401 15.5157 23.8125 14.9483C23.7938 14.5151 23.6144 14.1044 23.3095 13.7961C23.0045 13.4878 22.5958 13.3041 22.1628 13.2806C22.1127 13.2776 22.0629 13.2707 22.0139 13.2598C21.8492 13.2186 21.7018 13.126 21.5931 12.9955C21.4844 12.8651 21.4201 12.7034 21.4093 12.5339L21.3251 11.1467C21.3154 10.9737 21.3624 10.8023 21.4589 10.6585C21.5555 10.5146 21.6964 10.4062 21.8602 10.3497L22.8887 9.99749C23.2865 9.86273 23.6225 9.58927 23.8352 9.22713C24.048 8.86499 24.1232 8.43837 24.0473 8.0253L23.8231 6.79984C23.7944 6.64186 23.8143 6.47886 23.8803 6.33246C23.9463 6.18607 24.0552 6.06318 24.1926 5.9801L25.7377 5.03579C25.987 4.88338 26.1942 4.67103 26.3404 4.41806C26.4867 4.1651 26.5673 3.87956 26.575 3.58747L26.615 2.24641C28.861 3.06559 30.8859 4.39538 32.53 6.13092ZM10.4507 5.68646L12.5468 6.8562C12.8381 7.01582 13.1681 7.09112 13.4997 7.07363L15.3339 6.97116C15.4693 6.96355 15.6044 6.99079 15.7263 7.05027C15.8482 7.10975 15.9528 7.19948 16.0301 7.3109L17.1892 8.97153C17.2533 9.06043 17.297 9.16231 17.3173 9.26997L17.5863 10.6059C17.6084 10.7167 17.6067 10.8309 17.5815 10.941C17.5563 11.0511 17.508 11.1546 17.44 11.2447C17.3719 11.3348 17.2855 11.4095 17.1865 11.4639C17.0875 11.5183 16.9781 11.5511 16.8655 11.5601L14.982 11.6949C14.7206 11.7141 14.4669 11.7916 14.2393 11.9216C14.0118 12.0516 13.8162 12.2309 13.667 12.4463C13.5178 12.6618 13.4186 12.9079 13.3769 13.1666C13.3352 13.4253 13.3519 13.6901 13.4258 13.9416L13.5798 14.4686L6.29367 12.711C7.0246 10.0392 8.46037 7.61299 10.4507 5.68646Z" fill="#21316A"/>
<path id="Vector_3" d="M7.10561 24.8108C7.36133 24.8108 7.56863 24.6035 7.56863 24.3478C7.56863 24.0921 7.36133 23.8848 7.10561 23.8848C6.84988 23.8848 6.64258 24.0921 6.64258 24.3478C6.64258 24.6035 6.84988 24.8108 7.10561 24.8108Z" fill="#21316A"/>
<path id="Vector_4" d="M9.64272 24.8108C9.89844 24.8108 10.1057 24.6035 10.1057 24.3478C10.1057 24.0921 9.89844 23.8848 9.64272 23.8848C9.38699 23.8848 9.17969 24.0921 9.17969 24.3478C9.17969 24.6035 9.38699 24.8108 9.64272 24.8108Z" fill="#21316A"/>
<path id="Vector_5" d="M8.30678 26.8147C8.5625 26.8147 8.76981 26.6074 8.76981 26.3517C8.76981 26.096 8.5625 25.8887 8.30678 25.8887C8.05106 25.8887 7.84375 26.096 7.84375 26.3517C7.84375 26.6074 8.05106 26.8147 8.30678 26.8147Z" fill="#21316A"/>
<path id="Vector_6" d="M10.9572 26.8147C11.2129 26.8147 11.4202 26.6074 11.4202 26.3517C11.4202 26.096 11.2129 25.8887 10.9572 25.8887C10.7014 25.8887 10.4941 26.096 10.4941 26.3517C10.4941 26.6074 10.7014 26.8147 10.9572 26.8147Z" fill="#21316A"/>
<path id="Vector_7" d="M12.3781 24.8108C12.6338 24.8108 12.8411 24.6035 12.8411 24.3478C12.8411 24.0921 12.6338 23.8848 12.3781 23.8848C12.1223 23.8848 11.915 24.0921 11.915 24.3478C11.915 24.6035 12.1223 24.8108 12.3781 24.8108Z" fill="#21316A"/>
</g>
</svg>
