<svg width="17" height="21" viewBox="0 0 17 21" fill="none" xmlns="http://www.w3.org/2000/svg">
<path id="Vector" fill-rule="evenodd" clip-rule="evenodd" d="M13.3125 0.5C14.1081 0.5 14.8712 0.816071 15.4338 1.37868C15.9964 1.94129 16.3125 2.70435 16.3125 3.5V19.5C16.3124 19.6883 16.2591 19.8728 16.1587 20.0322C16.0584 20.1916 15.915 20.3194 15.7452 20.4009C15.5754 20.4824 15.3861 20.5143 15.1989 20.4929C15.0118 20.4715 14.8345 20.3977 14.6875 20.28L12.8125 18.78L10.9375 20.28C10.7454 20.4339 10.5033 20.5115 10.2575 20.4981C10.0118 20.4846 9.77962 20.381 9.6055 20.207L8.3125 18.914L7.0195 20.207C6.8455 20.3811 6.61341 20.4849 6.36764 20.4986C6.12188 20.5122 5.87971 20.4348 5.6875 20.281L3.8125 18.78L1.9375 20.28C1.79047 20.3977 1.61319 20.4715 1.42606 20.4929C1.23893 20.5143 1.04957 20.4824 0.879769 20.4009C0.70997 20.3194 0.566641 20.1916 0.466282 20.0322C0.365924 19.8728 0.312618 19.6883 0.3125 19.5V3.5C0.3125 2.70435 0.628571 1.94129 1.19118 1.37868C1.75379 0.816071 2.51685 0.5 3.3125 0.5H13.3125ZM8.3125 10.5H5.3125C5.04728 10.5 4.79293 10.6054 4.60539 10.7929C4.41786 10.9804 4.3125 11.2348 4.3125 11.5C4.3125 11.7652 4.41786 12.0196 4.60539 12.2071C4.79293 12.3946 5.04728 12.5 5.3125 12.5H8.3125C8.57772 12.5 8.83207 12.3946 9.01961 12.2071C9.20714 12.0196 9.3125 11.7652 9.3125 11.5C9.3125 11.2348 9.20714 10.9804 9.01961 10.7929C8.83207 10.6054 8.57772 10.5 8.3125 10.5ZM11.3125 6.5H5.3125C5.05762 6.50028 4.81247 6.59788 4.62713 6.77285C4.4418 6.94782 4.33026 7.18695 4.31533 7.44139C4.30039 7.69584 4.38317 7.94638 4.54676 8.14183C4.71035 8.33729 4.9424 8.4629 5.1955 8.493L5.3125 8.5H11.3125C11.5674 8.49972 11.8125 8.40212 11.9979 8.22715C12.1832 8.05218 12.2947 7.81305 12.3097 7.55861C12.3246 7.30416 12.2418 7.05362 12.0782 6.85817C11.9146 6.66271 11.6826 6.5371 11.4295 6.507L11.3125 6.5Z" fill="#21316A"/>
</svg>
