<svg width="17" height="14" viewBox="0 0 17 14" fill="none" xmlns="http://www.w3.org/2000/svg">
<path id="Vector" d="M14.9811 0.275391H1.94234C1.04593 0.275391 0.3125 1.00882 0.3125 1.90523V11.6843C0.3125 12.5807 1.04593 13.3141 1.94234 13.3141H14.9811C15.8775 13.3141 16.6109 12.5807 16.6109 11.6843V1.90523C16.6109 1.00882 15.8775 0.275391 14.9811 0.275391ZM14.6551 3.7388L9.32551 7.07182C8.79582 7.40594 8.12758 7.40594 7.59788 7.07182L2.26831 3.7388C2.18659 3.69293 2.11504 3.63095 2.05797 3.55663C2.0009 3.4823 1.9595 3.39717 1.93629 3.30638C1.91307 3.21559 1.90852 3.12104 1.92291 3.02844C1.9373 2.93584 1.97032 2.84713 2.01999 2.76766C2.06965 2.6882 2.13493 2.61963 2.21186 2.56613C2.28879 2.51262 2.37577 2.47528 2.46755 2.45636C2.55933 2.43744 2.654 2.43735 2.74581 2.45607C2.83763 2.4748 2.9247 2.51197 3.00174 2.56532L8.4617 5.97983L13.9217 2.56532C13.9987 2.51197 14.0858 2.4748 14.1776 2.45607C14.2694 2.43735 14.3641 2.43744 14.4558 2.45636C14.5476 2.47528 14.6346 2.51262 14.7115 2.56613C14.7885 2.61963 14.8537 2.6882 14.9034 2.76766C14.9531 2.84713 14.9861 2.93584 15.0005 3.02844C15.0149 3.12104 15.0103 3.21559 14.9871 3.30638C14.9639 3.39717 14.9225 3.4823 14.8654 3.55663C14.8084 3.63095 14.7368 3.69293 14.6551 3.7388Z" fill="#82879A"/>
</svg>
