<svg width="52" height="53" viewBox="0 0 52 53" fill="none" xmlns="http://www.w3.org/2000/svg">
<g filter="url(#filter0_d_0_11)">
<rect x="2.15672" y="1.75734" width="47.8385" height="47.8385" rx="23.9192" fill="white"/>
<path d="M26.5404 30.668C26.471 30.5988 26.416 30.5167 26.3784 30.4262C26.3409 30.3358 26.3216 30.2388 26.3216 30.1409C26.3216 30.043 26.3409 29.946 26.3784 29.8555C26.416 29.7651 26.471 29.683 26.5404 29.6138L29.7332 26.4211L20.6181 26.4211C20.4208 26.4211 20.2315 26.3427 20.092 26.2031C19.9524 26.0636 19.874 25.8743 19.874 25.677C19.874 25.4797 19.9524 25.2904 20.092 25.1509C20.2315 25.0113 20.4208 24.9329 20.6181 24.9329L29.7332 24.9329L26.5404 21.7389C26.4006 21.5991 26.3221 21.4095 26.3221 21.2119C26.3221 21.0142 26.4006 20.8246 26.5404 20.6848C26.6802 20.545 26.8698 20.4665 27.0675 20.4665C27.2652 20.4665 27.4547 20.545 27.5945 20.6848L32.059 25.1493C32.1284 25.2184 32.1834 25.3006 32.221 25.391C32.2586 25.4815 32.2779 25.5784 32.2779 25.6764C32.2779 25.7743 32.2586 25.8713 32.221 25.9617C32.1834 26.0522 32.1284 26.1343 32.059 26.2034L27.5945 30.668C27.5254 30.7373 27.4433 30.7924 27.3528 30.8299C27.2624 30.8675 27.1654 30.8868 27.0675 30.8868C26.9695 30.8868 26.8726 30.8675 26.7821 30.8299C26.6917 30.7924 26.6095 30.7373 26.5404 30.668Z" fill="#21316A"/>
</g>
<defs>
<filter id="filter0_d_0_11" x="0.243184" y="0.80057" width="51.6656" height="51.6656" filterUnits="userSpaceOnUse" color-interpolation-filters="sRGB">
<feFlood flood-opacity="0" result="BackgroundImageFix"/>
<feColorMatrix in="SourceAlpha" type="matrix" values="0 0 0 0 0 0 0 0 0 0 0 0 0 0 0 0 0 0 127 0" result="hardAlpha"/>
<feOffset dy="0.95677"/>
<feGaussianBlur stdDeviation="0.95677"/>
<feColorMatrix type="matrix" values="0 0 0 0 0.0627451 0 0 0 0 0.0941176 0 0 0 0 0.156863 0 0 0 0.05 0"/>
<feBlend mode="normal" in2="BackgroundImageFix" result="effect1_dropShadow_0_11"/>
<feBlend mode="normal" in="SourceGraphic" in2="effect1_dropShadow_0_11" result="shape"/>
</filter>
</defs>
</svg>
