<svg width="48" height="49" viewBox="0 0 48 49" fill="none" xmlns="http://www.w3.org/2000/svg">
<rect x="0.156723" y="0.757584" width="47.8385" height="47.8385" rx="23.9192" fill="#E4EAFF"/>
<path d="M24.5404 29.6682C24.471 29.5991 24.416 29.5169 24.3784 29.4265C24.3409 29.336 24.3216 29.2391 24.3216 29.1411C24.3216 29.0432 24.3409 28.9462 24.3784 28.8558C24.416 28.7653 24.471 28.6832 24.5404 28.6141L27.7332 25.4213L18.6181 25.4213C18.4208 25.4213 18.2315 25.3429 18.092 25.2034C17.9524 25.0638 17.874 24.8746 17.874 24.6772C17.874 24.4799 17.9524 24.2906 18.092 24.1511C18.2315 24.0116 18.4208 23.9332 18.6181 23.9332L27.7332 23.9332L24.5404 20.7392C24.4006 20.5994 24.3221 20.4098 24.3221 20.2121C24.3221 20.0144 24.4006 19.8248 24.5404 19.685C24.6802 19.5453 24.8698 19.4667 25.0675 19.4667C25.2651 19.4667 25.4547 19.5453 25.5945 19.685L30.059 24.1496C30.1284 24.2187 30.1834 24.3008 30.221 24.3913C30.2586 24.4817 30.2779 24.5787 30.2779 24.6766C30.2779 24.7746 30.2586 24.8715 30.221 24.962C30.1834 25.0524 30.1284 25.1346 30.059 25.2037L25.5945 29.6682C25.5254 29.7376 25.4433 29.7926 25.3528 29.8302C25.2624 29.8677 25.1654 29.8871 25.0675 29.8871C24.9695 29.8871 24.8726 29.8677 24.7821 29.8302C24.6917 29.7926 24.6095 29.7376 24.5404 29.6682Z" fill="#21316A"/>
</svg>
