<svg width="16" height="16" viewBox="0 0 16 16" fill="none" xmlns="http://www.w3.org/2000/svg">
<path id="Vector" d="M3.28396 6.89438C4.46597 9.21737 6.37033 11.1135 8.69332 12.3037L10.4992 10.4979C10.7208 10.2763 11.0491 10.2024 11.3364 10.3009C12.2558 10.6046 13.249 10.7688 14.2669 10.7688C14.7183 10.7688 15.0877 11.1381 15.0877 11.5896V14.4544C15.0877 14.9058 14.7183 15.2752 14.2669 15.2752C6.55913 15.2752 0.3125 9.02857 0.3125 1.32084C0.3125 0.86938 0.68188 0.5 1.13334 0.5H4.0063C4.45776 0.5 4.82714 0.86938 4.82714 1.32084C4.82714 2.3469 4.99131 3.33191 5.29503 4.25126C5.38532 4.53855 5.31965 4.85868 5.08981 5.08852L3.28396 6.89438Z" fill="#82879A"/>
</svg>
