<svg width="15" height="21" viewBox="0 0 15 21" fill="none" xmlns="http://www.w3.org/2000/svg">
<path id="Vector" d="M7.3125 10C6.64946 10 6.01357 9.73661 5.54473 9.26777C5.07589 8.79893 4.8125 8.16304 4.8125 7.5C4.8125 6.83696 5.07589 6.20107 5.54473 5.73223C6.01357 5.26339 6.64946 5 7.3125 5C7.97554 5 8.61143 5.26339 9.08027 5.73223C9.54911 6.20107 9.8125 6.83696 9.8125 7.5C9.8125 7.8283 9.74784 8.15339 9.6222 8.45671C9.49656 8.76002 9.31241 9.03562 9.08027 9.26777C8.84812 9.49991 8.57252 9.68406 8.26921 9.8097C7.96589 9.93534 7.6408 10 7.3125 10ZM7.3125 0.5C5.45598 0.5 3.67551 1.2375 2.36275 2.55025C1.05 3.86301 0.3125 5.64348 0.3125 7.5C0.3125 12.75 7.3125 20.5 7.3125 20.5C7.3125 20.5 14.3125 12.75 14.3125 7.5C14.3125 5.64348 13.575 3.86301 12.2622 2.55025C10.9495 1.2375 9.16902 0.5 7.3125 0.5Z" fill="#82879A"/>
</svg>
