<svg width="48" height="49" viewBox="0 0 48 49" fill="none" xmlns="http://www.w3.org/2000/svg">
<rect x="47.8385" y="48.5961" width="47.8385" height="47.8385" rx="23.9192" transform="rotate(-180 47.8385 48.5961)" fill="#E4EAFF"/>
<path d="M23.4548 19.6856C23.5242 19.7547 23.5792 19.8369 23.6168 19.9273C23.6543 20.0178 23.6736 20.1147 23.6736 20.2127C23.6736 20.3106 23.6543 20.4076 23.6168 20.498C23.5792 20.5884 23.5242 20.6706 23.4548 20.7397L20.262 23.9325L29.3771 23.9325C29.5744 23.9325 29.7637 24.0109 29.9032 24.1504C30.0428 24.2899 30.1212 24.4792 30.1212 24.6765C30.1212 24.8739 30.0428 25.0632 29.9032 25.2027C29.7637 25.3422 29.5744 25.4206 29.3771 25.4206L20.262 25.4206L23.4548 28.6146C23.5946 28.7544 23.6731 28.944 23.6731 29.1417C23.6731 29.3394 23.5946 29.529 23.4548 29.6687C23.315 29.8085 23.1254 29.8871 22.9277 29.8871C22.73 29.8871 22.5405 29.8085 22.4007 29.6687L17.9362 25.2042C17.8668 25.1351 17.8117 25.053 17.7742 24.9625C17.7366 24.8721 17.7173 24.7751 17.7173 24.6772C17.7173 24.5792 17.7366 24.4823 17.7742 24.3918C17.8117 24.3014 17.8668 24.2192 17.9362 24.1501L22.4007 19.6856C22.4698 19.6162 22.5519 19.5612 22.6424 19.5236C22.7328 19.4861 22.8298 19.4667 22.9277 19.4667C23.0257 19.4667 23.1226 19.4861 23.2131 19.5236C23.3035 19.5612 23.3857 19.6162 23.4548 19.6856Z" fill="#21316A"/>
</svg>
