<svg width="52" height="53" viewBox="0 0 52 53" fill="none" xmlns="http://www.w3.org/2000/svg">
<g filter="url(#filter0_d_0_7)">
<rect x="49.8385" y="49.5959" width="47.8385" height="47.8385" rx="23.9192" transform="rotate(-180 49.8385 49.5959)" fill="white"/>
<path d="M25.4548 20.6853C25.5242 20.7545 25.5792 20.8366 25.6168 20.9271C25.6543 21.0175 25.6736 21.1145 25.6736 21.2124C25.6736 21.3103 25.6543 21.4073 25.6168 21.4978C25.5792 21.5882 25.5242 21.6703 25.4548 21.7395L22.262 24.9322L31.3771 24.9322C31.5744 24.9322 31.7637 25.0106 31.9032 25.1502C32.0428 25.2897 32.1212 25.479 32.1212 25.6763C32.1212 25.8736 32.0428 26.0629 31.9032 26.2025C31.7637 26.342 31.5744 26.4204 31.3771 26.4204L22.262 26.4204L25.4548 29.6144C25.5946 29.7542 25.6731 29.9438 25.6731 30.1414C25.6731 30.3391 25.5946 30.5287 25.4548 30.6685C25.315 30.8083 25.1254 30.8868 24.9277 30.8868C24.73 30.8868 24.5405 30.8083 24.4007 30.6685L19.9362 26.204C19.8668 26.1349 19.8117 26.0527 19.7742 25.9623C19.7366 25.8718 19.7173 25.7749 19.7173 25.6769C19.7173 25.579 19.7366 25.482 19.7742 25.3916C19.8117 25.3011 19.8668 25.219 19.9362 25.1499L24.4007 20.6853C24.4698 20.616 24.5519 20.5609 24.6424 20.5234C24.7328 20.4858 24.8298 20.4665 24.9277 20.4665C25.0257 20.4665 25.1226 20.4858 25.2131 20.5234C25.3035 20.5609 25.3857 20.616 25.4548 20.6853Z" fill="#21316A"/>
</g>
<defs>
<filter id="filter0_d_0_7" x="0.0864531" y="0.800631" width="51.6656" height="51.6656" filterUnits="userSpaceOnUse" color-interpolation-filters="sRGB">
<feFlood flood-opacity="0" result="BackgroundImageFix"/>
<feColorMatrix in="SourceAlpha" type="matrix" values="0 0 0 0 0 0 0 0 0 0 0 0 0 0 0 0 0 0 127 0" result="hardAlpha"/>
<feOffset dy="0.95677"/>
<feGaussianBlur stdDeviation="0.95677"/>
<feColorMatrix type="matrix" values="0 0 0 0 0.0627451 0 0 0 0 0.0941176 0 0 0 0 0.156863 0 0 0 0.05 0"/>
<feBlend mode="normal" in2="BackgroundImageFix" result="effect1_dropShadow_0_7"/>
<feBlend mode="normal" in="SourceGraphic" in2="effect1_dropShadow_0_7" result="shape"/>
</filter>
</defs>
</svg>
