<svg width="24" height="24" viewBox="0 0 24 24" fill="none" xmlns="http://www.w3.org/2000/svg">
<path fill-rule="evenodd" clip-rule="evenodd" d="M14.8124 3.85586V9.00806H20.0966V3.85586H14.8124ZM13.9665 2C13.3825 2 12.909 2.46161 12.909 3.03103V9.83288C12.909 10.4023 13.3825 10.8639 13.9665 10.8639H20.9426C21.5266 10.8639 22 10.4023 22 9.83288V3.03103C22 2.46161 21.5266 2 20.9426 2H13.9665Z" fill="#21316A"/>
<path fill-rule="evenodd" clip-rule="evenodd" d="M14.8124 14.4919V19.6441H20.0966V14.4919H14.8124ZM13.9665 12.6361C13.3825 12.6361 12.909 13.0977 12.909 13.6671V20.4689C12.909 21.0384 13.3825 21.5 13.9665 21.5H20.9426C21.5266 21.5 22 21.0384 22 20.4689V13.6671C22 13.0977 21.5266 12.6361 20.9426 12.6361H13.9665Z" fill="#21316A"/>
<path fill-rule="evenodd" clip-rule="evenodd" d="M3.9034 3.85586V9.00806H9.18757V3.85586H3.9034ZM3.05744 2C2.47343 2 2 2.46161 2 3.03103V9.83288C2 10.4023 2.47343 10.8639 3.05745 10.8639H10.0335C10.6175 10.8639 11.091 10.4023 11.091 9.83288V3.03103C11.091 2.46161 10.6175 2 10.0335 2H3.05744Z" fill="#21316A"/>
<path fill-rule="evenodd" clip-rule="evenodd" d="M3.9034 14.4919V19.6441H9.18757V14.4919H3.9034ZM3.05744 12.6361C2.47343 12.6361 2 13.0977 2 13.6671V20.469C2 21.0384 2.47343 21.5 3.05745 21.5H10.0335C10.6175 21.5 11.091 21.0384 11.091 20.469V13.6671C11.091 13.0977 10.6175 12.6361 10.0335 12.6361H3.05744Z" fill="#21316A"/>
</svg>
