<svg width="32" height="34" viewBox="0 0 32 34" fill="none" xmlns="http://www.w3.org/2000/svg">
<g id="simple-line-icons:arrow-up">
<rect y="0.644043" width="32" height="33" rx="16" fill="white"/>
<path id="Vector" d="M10.3057 19.9037C10.3057 20.0034 10.3439 20.1055 10.4181 20.182C10.5665 20.3351 10.8094 20.3351 10.9578 20.182L16.0378 14.9433L21.0435 20.1055C21.1919 20.2585 21.4348 20.2585 21.5832 20.1055C21.7316 19.9524 21.7316 19.702 21.5832 19.5489L16.3076 14.1061C16.1592 13.9531 15.9163 13.9531 15.7679 14.1061L10.4181 19.6231C10.3416 19.702 10.3057 19.8017 10.3057 19.9037Z" fill="#21316A"/>
<path id="Vector (Stroke)" fill-rule="evenodd" clip-rule="evenodd" d="M15.409 13.7581C15.7538 13.4024 16.3217 13.4024 16.6666 13.7581L16.6666 13.7581L21.9422 19.2008C21.9422 19.2009 21.9422 19.2009 21.9422 19.2009C22.2787 19.5479 22.2786 20.1066 21.9422 20.4536C21.5973 20.8092 21.0294 20.8092 20.6846 20.4536L16.0378 15.6615L11.3168 20.5301C10.9719 20.8857 10.404 20.8857 10.0592 20.5301C9.89059 20.3563 9.80566 20.1277 9.80566 19.9037C9.80566 19.6812 9.88587 19.4537 10.0592 19.275L15.409 13.7581ZM21.2241 19.8968L21.2242 19.8969L21.2243 19.897C21.2242 19.8969 21.2241 19.8968 21.2241 19.8968Z" fill="#21316A"/>
</g>
</svg>
