<svg width="25" height="25" viewBox="0 0 25 25" fill="none" xmlns="http://www.w3.org/2000/svg">
<g id="tabler:logout-2">
<g id="Group">
<path id="Vector" d="M10.5 8.5V6.5C10.5 5.96957 10.7107 5.46086 11.0858 5.08579C11.4609 4.71071 11.9696 4.5 12.5 4.5H19.5C20.0304 4.5 20.5391 4.71071 20.9142 5.08579C21.2893 5.46086 21.5 5.96957 21.5 6.5V18.5C21.5 19.0304 21.2893 19.5391 20.9142 19.9142C20.5391 20.2893 20.0304 20.5 19.5 20.5H12.5C11.9696 20.5 11.4609 20.2893 11.0858 19.9142C10.7107 19.5391 10.5 19.0304 10.5 18.5V16.5" stroke="#21316A" stroke-width="1.8" stroke-linecap="round" stroke-linejoin="round"/>
<path id="Vector_2" d="M15.5 12.5H3.5M3.5 12.5L6.5 9.5M3.5 12.5L6.5 15.5" stroke="#21316A" stroke-width="1.8" stroke-linecap="round" stroke-linejoin="round"/>
</g>
</g>
</svg>
