<svg width="33" height="33" viewBox="0 0 33 33" fill="none" xmlns="http://www.w3.org/2000/svg">
<g id="simple-line-icons:arrow-up">
<rect x="33" y="0.644165" width="32" height="33" rx="16" transform="rotate(90 33 0.644165)" fill="white"/>
<path id="Vector" d="M13.74 10.9498C13.6402 10.9498 13.5382 10.9881 13.4617 11.0623C13.3086 11.2107 13.3086 11.4536 13.4617 11.602L18.7004 16.6819L13.5382 21.6877C13.3851 21.8361 13.3851 22.079 13.5382 22.2274C13.6913 22.3758 13.9417 22.3758 14.0948 22.2274L19.5376 16.9518C19.6906 16.8034 19.6906 16.5605 19.5376 16.4121L14.0206 11.0623C13.9417 10.9858 13.842 10.9498 13.74 10.9498Z" fill="#21316A"/>
<path id="Vector (Stroke)" fill-rule="evenodd" clip-rule="evenodd" d="M19.8856 16.0531C20.2413 16.398 20.2413 16.9659 19.8856 17.3107L19.8855 17.3108L14.4428 22.5863C14.4428 22.5864 14.4428 22.5864 14.4428 22.5864C14.0958 22.9228 13.5371 22.9228 13.1901 22.5863C12.8345 22.2415 12.8345 21.6736 13.1901 21.3287L17.9821 16.6819L13.1136 11.9609C12.758 11.6161 12.758 11.0482 13.1136 10.7033C13.2874 10.5348 13.516 10.4498 13.74 10.4498C13.9625 10.4498 14.1899 10.53 14.3686 10.7033L19.8856 16.0531ZM13.7469 21.8682L13.7468 21.8684L13.7467 21.8684C13.7468 21.8684 13.7468 21.8683 13.7469 21.8682Z" fill="#21316A"/>
</g>
</svg>
