<svg width="23" height="22" viewBox="0 0 23 22" fill="none" xmlns="http://www.w3.org/2000/svg">
<path d="M21.5 0.924316L14.4043 20.574C14.3564 20.6786 14.2795 20.7671 14.1827 20.8292C14.086 20.8913 13.9734 20.9243 13.8584 20.9243C13.7435 20.9243 13.6309 20.8913 13.5342 20.8292C13.4374 20.7671 13.3605 20.6786 13.3126 20.574L9.49184 12.9325L1.85028 9.1117C1.74576 9.0638 1.6572 8.98691 1.5951 8.89015C1.53301 8.79339 1.5 8.68084 1.5 8.56587C1.5 8.45091 1.53301 8.33836 1.5951 8.2416C1.6572 8.14484 1.74576 8.06794 1.85028 8.02005L21.5 0.924316Z" stroke="#21316A" stroke-width="1.5" stroke-linecap="round" stroke-linejoin="round"/>
</svg>
