<svg width="49" height="49" viewBox="0 0 49 49" fill="none" xmlns="http://www.w3.org/2000/svg">
<path id="Vector" fill-rule="evenodd" clip-rule="evenodd" d="M21.2765 25.0322L30.1885 17.509C30.445 17.293 30.7419 17.1303 31.0619 17.0304C31.382 16.9305 31.7187 16.8955 32.0525 16.9272C32.3862 16.959 32.7103 17.057 33.0057 17.2155C33.3012 17.374 33.562 17.5898 33.7731 17.8503C34.7192 19.0237 34.7784 20.5543 33.5464 21.5602L22.2467 31.0989C22.0217 31.2895 21.7606 31.4327 21.479 31.52C21.1973 31.6073 20.901 31.6369 20.6077 31.6071C20.3143 31.5772 20.0301 31.4884 19.7718 31.3461C19.5136 31.2038 19.2867 31.0109 19.1048 30.7789L15.0733 25.6621C14.0904 24.4141 14.5 22.9079 15.6712 21.9853C16.1963 21.5728 16.8636 21.3854 17.5267 21.4643C18.1898 21.5432 18.7946 21.8819 19.2083 22.4061L21.2765 25.0306V25.0322ZM47.7725 23.5389C47.9655 23.5389 48.1505 23.6155 48.2869 23.7519C48.4234 23.8884 48.5 24.0734 48.5 24.2663C48.5 24.4593 48.4234 24.6443 48.2869 24.7807C48.1505 24.9172 47.9655 24.9938 47.7725 24.9938H41.8867C41.6937 24.9938 41.5087 24.9172 41.3723 24.7807C41.2358 24.6443 41.1592 24.4593 41.1592 24.2663C41.1592 24.0734 41.2358 23.8884 41.3723 23.7519C41.5087 23.6155 41.6937 23.5389 41.8867 23.5389H47.7725ZM25.2275 47.5389C25.2275 47.7318 25.1508 47.9168 25.0144 48.0533C24.878 48.1897 24.6929 48.2663 24.5 48.2663C24.3071 48.2663 24.122 48.1897 23.9856 48.0533C23.8492 47.9168 23.7725 47.7318 23.7725 47.5389V41.6535C23.7725 41.4606 23.8492 41.2756 23.9856 41.1391C24.122 41.0027 24.3071 40.9261 24.5 40.9261C24.6929 40.9261 24.878 41.0027 25.0144 41.1391C25.1508 41.2756 25.2275 41.4606 25.2275 41.6535V47.5389ZM1.22747 24.9938C1.03453 24.9938 0.849497 24.9172 0.71307 24.7807C0.576644 24.6443 0.5 24.4593 0.5 24.2663C0.5 24.0734 0.576644 23.8884 0.71307 23.7519C0.849497 23.6155 1.03453 23.5389 1.22747 23.5389H7.11333C7.30627 23.5389 7.4913 23.6155 7.62773 23.7519C7.76416 23.8884 7.8408 24.0734 7.8408 24.2663C7.8408 24.4593 7.76416 24.6443 7.62773 24.7807C7.4913 24.9172 7.30627 24.9938 7.11333 24.9938H1.22747ZM34.0376 6.29673C34.0853 6.2143 34.1488 6.14207 34.2245 6.08418C34.3001 6.02628 34.3864 5.98385 34.4785 5.95931C34.5705 5.93477 34.6665 5.9286 34.7609 5.94116C34.8553 5.95371 34.9464 5.98473 35.0288 6.03246C35.1112 6.0802 35.1835 6.1437 35.2414 6.21934C35.2993 6.29499 35.3417 6.38129 35.3662 6.47333C35.3908 6.56537 35.3969 6.66135 35.3844 6.75577C35.3718 6.8502 35.3408 6.94123 35.2931 7.02367L33.8221 9.57193C33.7237 9.73455 33.5654 9.85207 33.3813 9.89923C33.1971 9.9464 33.0018 9.91946 32.8374 9.82419C32.6729 9.72892 32.5523 9.57293 32.5016 9.38973C32.4509 9.20654 32.4741 9.01076 32.5661 8.84446L34.0376 6.29673ZM41.7432 13.4738C41.8256 13.4261 41.9167 13.395 42.0111 13.3825C42.1055 13.3699 42.2015 13.3761 42.2935 13.4006C42.3856 13.4252 42.4719 13.4676 42.5475 13.5255C42.6232 13.5834 42.6867 13.6556 42.7344 13.7381C42.7821 13.8205 42.8132 13.9115 42.8257 14.006C42.8383 14.1004 42.8321 14.1964 42.8076 14.2884C42.783 14.3804 42.7406 14.4667 42.6827 14.5424C42.6248 14.618 42.5526 14.6815 42.4701 14.7293L39.9224 16.2007C39.7561 16.2928 39.5603 16.316 39.3771 16.2653C39.1939 16.2145 39.038 16.094 38.9427 15.9295C38.8474 15.765 38.8205 15.5697 38.8676 15.3856C38.9148 15.2014 39.0323 15.0432 39.1949 14.9447L41.7432 13.4738ZM42.4701 33.8045C42.5526 33.8522 42.6248 33.9157 42.6827 33.9913C42.7406 34.067 42.783 34.1533 42.8076 34.2453C42.8321 34.3374 42.8383 34.4333 42.8257 34.5278C42.8132 34.6222 42.7821 34.7132 42.7344 34.7957C42.6867 34.8781 42.6232 34.9503 42.5475 35.0082C42.4719 35.0661 42.3856 35.1085 42.2935 35.1331C42.2015 35.1576 42.1055 35.1638 42.0111 35.1512C41.9167 35.1387 41.8256 35.1077 41.7432 35.0599L39.1949 33.589C39.0323 33.4906 38.9148 33.3323 38.8676 33.1481C38.8205 32.964 38.8474 32.7687 38.9427 32.6042C39.038 32.4397 39.1939 32.3192 39.3771 32.2685C39.5603 32.2178 39.7561 32.2409 39.9224 32.333L42.4701 33.8045ZM35.2931 41.5101C35.3408 41.5925 35.3718 41.6835 35.3844 41.778C35.3969 41.8724 35.3908 41.9684 35.3662 42.0604C35.3417 42.1524 35.2993 42.2387 35.2414 42.3144C35.1835 42.39 35.1112 42.4535 35.0288 42.5013C34.9464 42.549 34.8553 42.58 34.7609 42.5926C34.6665 42.6051 34.5705 42.599 34.4785 42.5744C34.3864 42.5499 34.3001 42.5075 34.2245 42.4496C34.1488 42.3917 34.0853 42.3194 34.0376 42.237L32.5661 39.6893C32.4741 39.523 32.4509 39.3272 32.5016 39.144C32.5523 38.9608 32.6729 38.8048 32.8374 38.7095C33.0018 38.6143 33.1971 38.5873 33.3813 38.6345C33.5654 38.6817 33.7237 38.7992 33.8221 38.9618L35.2931 41.5101ZM14.9624 42.237C14.9147 42.3194 14.8512 42.3917 14.7755 42.4496C14.6999 42.5075 14.6136 42.5499 14.5215 42.5744C14.4295 42.599 14.3335 42.6051 14.2391 42.5926C14.1447 42.58 14.0536 42.549 13.9712 42.5013C13.8888 42.4535 13.8165 42.39 13.7586 42.3144C13.7008 42.2387 13.6583 42.1524 13.6338 42.0604C13.6092 41.9684 13.6031 41.8724 13.6156 41.778C13.6282 41.6835 13.6592 41.5925 13.7069 41.5101L15.1779 38.9618C15.2763 38.7992 15.4346 38.6817 15.6187 38.6345C15.8029 38.5873 15.9982 38.6143 16.1626 38.7095C16.3271 38.8048 16.4477 38.9608 16.4984 39.144C16.5491 39.3272 16.5259 39.523 16.4339 39.6893L14.9624 42.237ZM7.2568 35.0599C7.17437 35.1077 7.08334 35.1387 6.98891 35.1512C6.89448 35.1638 6.79851 35.1576 6.70647 35.1331C6.61443 35.1085 6.52812 35.0661 6.45248 35.0082C6.37683 34.9503 6.31333 34.8781 6.2656 34.7957C6.21787 34.7132 6.18684 34.6222 6.17429 34.5278C6.16174 34.4333 6.16791 34.3374 6.19245 34.2453C6.21699 34.1533 6.25942 34.067 6.31731 33.9913C6.37521 33.9157 6.44743 33.8522 6.52987 33.8045L9.0776 32.333C9.2439 32.2409 9.43967 32.2178 9.62287 32.2685C9.80606 32.3192 9.96205 32.4397 10.0573 32.6042C10.1526 32.7687 10.1795 32.964 10.1324 33.1481C10.0852 33.3323 9.96768 33.4906 9.80507 33.589L7.2568 35.0599ZM6.52987 14.7293C6.44743 14.6815 6.37521 14.618 6.31731 14.5424C6.25942 14.4667 6.21699 14.3804 6.19245 14.2884C6.16791 14.1964 6.16174 14.1004 6.17429 14.006C6.18684 13.9115 6.21787 13.8205 6.2656 13.7381C6.31333 13.6556 6.37683 13.5834 6.45248 13.5255C6.52812 13.4676 6.61443 13.4252 6.70647 13.4006C6.79851 13.3761 6.89448 13.3699 6.98891 13.3825C7.08334 13.395 7.17437 13.4261 7.2568 13.4738L9.80507 14.9447C9.96768 15.0432 10.0852 15.2014 10.1324 15.3856C10.1795 15.5697 10.1526 15.765 10.0573 15.9295C9.96205 16.094 9.80606 16.2145 9.62287 16.2653C9.43967 16.316 9.2439 16.2928 9.0776 16.2007L6.52987 14.7293ZM13.7069 7.02367C13.6592 6.94123 13.6282 6.8502 13.6156 6.75577C13.6031 6.66135 13.6092 6.56537 13.6338 6.47333C13.6583 6.38129 13.7008 6.29499 13.7586 6.21934C13.8165 6.1437 13.8888 6.0802 13.9712 6.03246C14.0536 5.98473 14.1447 5.95371 14.2391 5.94116C14.3335 5.9286 14.4295 5.93477 14.5215 5.95931C14.6136 5.98385 14.6999 6.02628 14.7755 6.08418C14.8512 6.14207 14.9147 6.2143 14.9624 6.29673L16.4339 8.84446C16.5259 9.01076 16.5491 9.20654 16.4984 9.38973C16.4477 9.57293 16.3271 9.72892 16.1626 9.82419C15.9982 9.91946 15.8029 9.9464 15.6187 9.89923C15.4346 9.85207 15.2763 9.73455 15.1779 9.57193L13.7069 7.02367ZM23.7725 0.996998C23.7725 0.804062 23.8492 0.619028 23.9856 0.482601C24.122 0.346175 24.3071 0.269531 24.5 0.269531C24.6929 0.269531 24.878 0.346175 25.0144 0.482601C25.1508 0.619028 25.2275 0.804062 25.2275 0.996998V6.8802C25.2275 7.07313 25.1508 7.25817 25.0144 7.3946C24.878 7.53102 24.6929 7.60767 24.5 7.60767C24.3071 7.60767 24.122 7.53102 23.9856 7.3946C23.8492 7.25817 23.7725 7.07313 23.7725 6.8802V0.994331V0.996998ZM24.5 9.0978C21.4998 9.0978 18.5671 9.98745 16.0725 11.6542C13.578 13.321 11.6337 15.6901 10.4856 18.4619C9.3375 21.2337 9.0371 24.2837 9.6224 27.2262C10.2077 30.1687 11.6524 32.8716 13.7739 34.993C15.8953 37.1145 18.5982 38.5592 21.5407 39.1445C24.4832 39.7298 27.5332 39.4294 30.305 38.2813C33.0767 37.1331 35.4458 35.1889 37.1126 32.6943C38.7794 30.1998 39.6691 27.267 39.6691 24.2669C39.6691 20.2438 38.0709 16.3855 35.2262 13.5407C32.3814 10.696 28.5231 9.0978 24.5 9.0978ZM34.1981 14.5687C32.28 12.6506 29.8362 11.3444 27.1757 10.8152C24.5152 10.286 21.7576 10.5576 19.2515 11.5957C16.7453 12.6338 14.6033 14.3917 13.0963 16.6471C11.5892 18.9026 10.7848 21.5543 10.7848 24.2669C10.7848 26.9795 11.5892 29.6312 13.0963 31.8866C14.6033 34.1421 16.7453 35.9 19.2515 36.9381C21.7576 37.9761 24.5152 38.2477 27.1757 37.7185C29.8362 37.1893 32.28 35.8831 34.1981 33.965C36.7701 31.3928 38.215 27.9043 38.215 24.2669C38.215 20.6294 36.7701 17.1409 34.1981 14.5687ZM31.1261 18.6167L21.6621 26.6061C21.5882 26.6735 21.5013 26.725 21.4066 26.7574C21.312 26.7897 21.2117 26.8023 21.112 26.7942C21.0123 26.7862 20.9153 26.7577 20.8271 26.7105C20.7389 26.6634 20.6613 26.5986 20.5992 26.5202L18.0664 23.3069C17.8906 23.0858 17.6345 22.9432 17.354 22.9101C17.0734 22.877 16.7912 22.9562 16.5688 23.1303C16.0157 23.5661 15.7443 24.1693 16.2157 24.7671L20.2472 29.8839C20.3083 29.9629 20.3848 30.0287 20.4722 30.0771C20.5595 30.1256 20.6558 30.1557 20.7552 30.1657C20.8546 30.1757 20.9549 30.1653 21.0502 30.1352C21.1454 30.1051 21.2335 30.0559 21.3091 29.9906L32.6467 20.4205C33.2333 19.9261 33.0781 19.2845 32.6296 18.7453C32.4463 18.5304 32.1857 18.3964 31.9043 18.3723C31.6228 18.3483 31.3433 18.4361 31.1261 18.6167Z" fill="#21316A"/>
</svg>
