<svg width="13" height="12" viewBox="0 0 13 12" fill="none" xmlns="http://www.w3.org/2000/svg">
<path id="Vector" d="M7.00327 11.2166C6.93077 11.1444 6.87324 11.0585 6.83399 10.964C6.79473 10.8694 6.77453 10.7681 6.77453 10.6657C6.77453 10.5634 6.79473 10.462 6.83399 10.3675C6.87324 10.273 6.93077 10.1871 7.00327 10.1149L10.3403 6.77785L0.813372 6.77785C0.607112 6.77785 0.4093 6.69591 0.263451 6.55006C0.117603 6.40422 0.0356662 6.2064 0.0356662 6.00014C0.0356662 5.79388 0.117603 5.59607 0.263451 5.45022C0.4093 5.30437 0.607112 5.22244 0.813372 5.22244L10.3403 5.22244L7.00327 1.88413C6.85717 1.73803 6.77509 1.53987 6.77509 1.33325C6.77509 1.12664 6.85717 0.92848 7.00327 0.782379C7.14937 0.636278 7.34753 0.554199 7.55414 0.554199C7.76076 0.554199 7.95892 0.636278 8.10502 0.782379L12.7713 5.44862C12.8438 5.52087 12.9013 5.60672 12.9405 5.70126C12.9798 5.79579 13 5.89714 13 5.9995C13 6.10185 12.9798 6.2032 12.9405 6.29773C12.9013 6.39227 12.8438 6.47812 12.7713 6.55037L8.10502 11.2166C8.03277 11.2891 7.94691 11.3466 7.85238 11.3859C7.75785 11.4251 7.6565 11.4454 7.55414 11.4454C7.45179 11.4454 7.35044 11.4251 7.2559 11.3859C7.16137 11.3466 7.07552 11.2891 7.00327 11.2166Z" fill="white"/>
</svg>
