<svg width="35" height="35" viewBox="0 0 35 35" fill="none" xmlns="http://www.w3.org/2000/svg">
<path id="Vector" d="M16.963 28.6511H18.0984V32.0573H16.963V28.6511ZM18.0984 2.53659H16.963V5.94283H18.0984V2.53659ZM28.885 16.7291V17.8645H31.7236V16.7291H28.885ZM3.33846 17.8645H6.17699V16.7291H3.33846V17.8645ZM19.4798 18.4436L23.6098 22.5735L22.8065 23.3768L18.6765 19.2468C18.3402 19.4455 17.9513 19.5676 17.5312 19.5676C16.2794 19.5676 15.2604 18.5486 15.2604 17.2968C15.2604 16.2423 15.9871 15.3609 16.9635 15.1069V7.64584H18.0989V15.1069C19.0754 15.3609 19.802 16.2423 19.802 17.2968C19.802 17.7169 19.68 18.1058 19.4798 18.4436ZM18.6666 17.2968C18.6666 16.6709 18.1571 16.1614 17.5312 16.1614C16.9053 16.1614 16.3958 16.6709 16.3958 17.2968C16.3958 17.9227 16.9053 18.4322 17.5312 18.4322C18.1571 18.4322 18.6666 17.9227 18.6666 17.2968ZM34.5624 17.2968C34.5624 26.6882 26.9226 34.328 17.5312 34.328C8.13978 34.328 0.5 26.6882 0.5 17.2968C0.5 7.9054 8.13978 0.265625 17.5312 0.265625C26.9226 0.265625 34.5624 7.9054 34.5624 17.2968ZM33.4269 17.2968C33.4269 8.53142 26.2966 1.40104 17.5312 1.40104C8.7658 1.40104 1.63541 8.53142 1.63541 17.2968C1.63541 26.0622 8.7658 33.1926 17.5312 33.1926C26.2966 33.1926 33.4269 26.0622 33.4269 17.2968Z" fill="#21316A"/>
</svg>
