<svg width="22" height="21" viewBox="0 0 22 21" fill="none" xmlns="http://www.w3.org/2000/svg">
<path id="Vector" d="M16.2935 20.5052C16.0088 20.505 15.7285 20.4353 15.4769 20.3022L11.1999 18.0541C11.1163 18.0103 11.0235 17.9875 10.9292 17.9875C10.8349 17.9875 10.742 18.0103 10.6585 18.0541L6.37686 20.3022C6.08783 20.4543 5.76201 20.5225 5.43624 20.4991C5.11047 20.4757 4.79777 20.3615 4.5335 20.1696C4.26922 19.9777 4.06393 19.7156 3.94085 19.4131C3.81777 19.1106 3.7818 18.7796 3.83702 18.4577L4.65369 13.6954C4.66968 13.6024 4.66286 13.5068 4.6338 13.417C4.60474 13.3272 4.55431 13.2458 4.48686 13.1797L1.02886 9.80689C0.794854 9.57893 0.629331 9.29003 0.551022 8.97287C0.472713 8.65571 0.484743 8.32296 0.585753 8.01228C0.686762 7.70161 0.872716 7.42541 1.12257 7.21494C1.37242 7.00448 1.6762 6.86815 1.99952 6.82139L6.78286 6.12139C6.87629 6.10777 6.96503 6.07167 7.04143 6.01619C7.11784 5.96072 7.17964 5.88752 7.22152 5.80289L9.36002 1.46989C9.50456 1.17714 9.72812 0.930655 10.0054 0.75831C10.2827 0.585964 10.6027 0.494629 10.9292 0.494629C11.2557 0.494629 11.5757 0.585964 11.853 0.75831C12.1303 0.930655 12.3538 1.17714 12.4984 1.46989L14.6369 5.80289C14.6786 5.88774 14.7403 5.96117 14.8167 6.01686C14.8932 6.07254 14.982 6.10882 15.0755 6.12256L19.8589 6.82256C20.1822 6.86932 20.486 7.00564 20.7358 7.21611C20.9857 7.42657 21.1716 7.70277 21.2726 8.01345C21.3736 8.32413 21.3857 8.65687 21.3074 8.97403C21.229 9.29119 21.0635 9.5801 20.8295 9.80806L17.3704 13.1809C17.3027 13.2468 17.252 13.3282 17.2228 13.418C17.1935 13.5078 17.1865 13.6034 17.2024 13.6966L18.019 18.4589C18.0622 18.7102 18.0499 18.9678 17.9831 19.2139C17.9163 19.4599 17.7965 19.6884 17.6322 19.8833C17.4678 20.0782 17.2628 20.2349 17.0316 20.3423C16.8004 20.4497 16.5485 20.5053 16.2935 20.5052ZM11.7435 17.0216L16.0182 19.2651C16.1145 19.3155 16.223 19.3381 16.3315 19.3302C16.4399 19.3223 16.544 19.2842 16.632 19.2202C16.72 19.1563 16.7883 19.0691 16.8293 18.9683C16.8703 18.8676 16.8823 18.7574 16.864 18.6502L16.0474 13.8879C15.9994 13.6081 16.0203 13.3209 16.1081 13.051C16.1959 12.7811 16.348 12.5366 16.5514 12.3386L20.0105 8.96689C20.0885 8.89093 20.1437 8.79466 20.1698 8.68897C20.1959 8.58328 20.192 8.47238 20.1583 8.36884C20.1247 8.26529 20.0628 8.17322 19.9795 8.10304C19.8963 8.03286 19.7951 7.98737 19.6874 7.97173L14.904 7.27173C14.6231 7.23098 14.3562 7.12249 14.1266 6.95562C13.8969 6.78875 13.7113 6.56851 13.5857 6.31389L11.4507 1.99139C11.3984 1.89814 11.3222 1.82051 11.2299 1.76648C11.1376 1.71245 11.0326 1.68398 10.9257 1.68398C10.8188 1.68398 10.7138 1.71245 10.6215 1.76648C10.5292 1.82051 10.453 1.89814 10.4007 1.99139L8.26569 6.32439C8.13997 6.57879 7.95428 6.7988 7.72461 6.96546C7.49495 7.13212 7.2282 7.24043 6.94736 7.28106L2.16402 7.98106C2.05628 7.9967 1.95507 8.04219 1.87183 8.11237C1.7886 8.18255 1.72667 8.27462 1.69304 8.37817C1.65942 8.48172 1.65544 8.59261 1.68156 8.6983C1.70768 8.80399 1.76286 8.90027 1.84086 8.97623L5.30352 12.3444C5.50739 12.543 5.65974 12.7883 5.74736 13.0591C5.83498 13.3299 5.85523 13.618 5.80636 13.8984L4.98969 18.6607C4.97123 18.7681 4.9832 18.8785 5.02424 18.9794C5.06528 19.0803 5.13376 19.1677 5.22191 19.2316C5.31006 19.2956 5.41437 19.3337 5.52303 19.3414C5.63168 19.3492 5.74034 19.3264 5.83669 19.2756L10.1102 17.0216C10.3619 16.8887 10.6422 16.8193 10.9269 16.8193C11.2115 16.8193 11.4918 16.8887 11.7435 17.0216Z" fill="#21316A" stroke="#21316A" stroke-width="0.7"/>
</svg>
